<?xml version="1.0" encoding="utf-8"?>
<!-- Generator: Adobe Illustrator 21.0.0, SVG Export Plug-In . SVG Version: 6.00 Build 0)  -->
<svg version="1.2" baseProfile="tiny" id="Objects" xmlns="http://www.w3.org/2000/svg" xmlns:xlink="http://www.w3.org/1999/xlink"
	 x="0px" y="0px" viewBox="0 0 500 500" xml:space="preserve">
<rect x="202" y="363" fill="#FC6A33" width="66" height="66"/>
<rect x="267" y="302" fill="#CF4739" width="64" height="127"/>
<rect x="330" y="237" fill="#9B352B" width="66" height="192"/>
<g>
	<path fill="#333333" d="M136.8,372.6c0,0,7.3-2.8,7.9-6.8c0.6-4-1.9-13.8,3.5-15.7c5.4-1.9,5.5,11.5,3.8,16.1
		c-1.7,4.6-5.3,8-7.9,9.4"/>
	<path fill="#434040" d="M234.6,308.4c0,0-4.5-8.5-6.9-8.4c-2.4,0.1-6.8,2.3-0.5,9.4L234.6,308.4z"/>
	<path fill="#333333" d="M83.3,374.7c0,0,7.8-0.4,9.7-4c1.9-3.6,2.6-13.7,8.3-13.8c5.7-0.1,1.5,12.6-1.5,16.5
		c-3,3.9-7.6,5.8-10.5,6.4"/>
	<polygon fill="#FC6A33" points="81.1,384.2 223.6,321.2 217.6,309.6 75.2,372.5 	"/>
	<path fill="#333333" d="M91.3,376.7c0,0,7.8-0.4,9.7-4c1.9-3.6,2.6-13.7,8.3-13.8c5.7-0.1,1.5,12.6-1.5,16.5
		c-3,3.9-7.6,5.8-10.5,6.4"/>
	<path fill="#333333" d="M86.3,375.9c-2.6,0.9-3.2,1.4-2.8,10.6c0.3,9.2,3.5,25.9,1.4,29c-2.1,3-7.9,11.4-5,13.7
		c2.9,2.3,12.8-8.7,12.7-12.8c-0.1-4.1,0-12.4,0-12.4s7.5,5.4,7.5,9.1c0,3.7-0.6,16,4.1,16s3-20.4,3-20.4L99.8,383
		C99.8,383,97.2,372,86.3,375.9z"/>
	<polygon fill="#FC6A33" points="244.8,304.8 222.8,330.7 211.4,298.6 244.8,304.8 222.8,330.7 211.4,298.6 	"/>
	<polygon fill="#FC6A33" points="90.5,371.8 70.9,399.6 56.6,368.8 90.5,371.8 70.9,399.6 56.6,368.8 	"/>
	<polygon fill="#FC6A33" points="77.7,377.7 58.2,405.5 43.8,374.7 77.7,377.7 58.2,405.5 43.8,374.7 	"/>
	<circle fill="#333333" cx="87.7" cy="367.9" r="9.5"/>
	<path fill="#333333" d="M145.3,376.7c0,0,7.8-0.4,9.7-4c1.9-3.6,2.6-13.7,8.3-13.8c5.7-0.1,1.5,12.6-1.5,16.5
		c-3,3.9-7.6,5.8-10.5,6.4"/>
	<path fill="#333333" d="M140.3,375.9c-2.6,0.9-3.2,1.4-2.8,10.6c0.3,9.2,3.5,25.9,1.4,29c-2.1,3-7.9,11.4-5,13.7
		c2.9,2.3,12.8-8.7,12.7-12.8c-0.1-4.1,0-12.4,0-12.4s7.5,5.4,7.5,9.1c0,3.7-0.6,16,4.1,16c4.7,0,3-20.4,3-20.4l-7.3-25.8
		C153.8,383,151.2,372,140.3,375.9z"/>
	<circle fill="#333333" cx="141.7" cy="369.9" r="9.5"/>
	<path fill="#434040" d="M225.9,323.9c-0.3,0-9.6-14.4-10.7-17.6c-1.1-3.3-7-1.2-6,2.6c1,3.8,3.5,11.8,9.9,17.4
		c6.5,5.5,9.8,17.2,9.8,17.2l-5.1,6.5c0,0-3.4,2.8-2.2,6.4c1.2,3.6,4.4,10.5,7.2,9.3c2.8-1.2,0-9.5,0-9.5l10-9.2
		c0,0,2.4,7.8,3.9,9.6c1.5,1.8,13.7,10.5,16.7,6.6c3-3.9-9.9-11.9-9.9-11.9s-0.9-7.7-2.6-10.2c-1.7-2.5-9.3-17.4-9.3-17.4
		L225.9,323.9z"/>
</g>
<circle fill="#434040" cx="231.2" cy="315.4" r="10.3"/>
<circle fill="#333333" cx="291.2" cy="266.5" r="10"/>
<path fill="#333333" d="M294.8,272c0.5,0,9.3,5.9,11.1,10.8c1.8,4.9,3.2,18.3-1.1,20.7c-4.7,2.7-4.2,1.5-4.7,2.7
	c-0.5,1.3,1.5,7.4,2.7,11.6c1.2,4.2,2.6,7.4-1.6,8.2c-4.3,0.8-4.8-0.1-5.5-3.4c-1-4.8-2.7-13.3-3-15.9c-0.3-2-0.3-4.3,3.4-6.5
	c0,0-8.1,3.8-9.8,5.9c-2.6,3.3-3,13.2-3.6,15.3c-0.6,2.1-1.8,3.4-3.4,3.1c-1.6-0.4-5.4-1.2-4.4-4.4c1.1-3.2,1.8-15.8,5-19.6
	c1.1-1.3,7.3-4,7.3-4l-0.5-12.1C286.8,284.4,284.5,271,294.8,272z"/>
<path fill="#333333" stroke="#333333" stroke-width="7" stroke-linecap="round" stroke-linejoin="round" stroke-miterlimit="10" d="
	M290.5,277.6c0,0-3.1,1.2-5.3,4.2c-2.3,3.2-10.5,13.1-10.5,13.1"/>
<path fill="none" stroke="#333333" stroke-width="7" stroke-linecap="round" stroke-linejoin="round" stroke-miterlimit="10" d="
	M297.3,279c0,0,0.6,13.6-2.3,15.3c-2.8,1.8-17.9,4-17.9,4"/>
<g>
	<circle fill="#FC6A33" cx="135.6" cy="174.9" r="79"/>
	<circle fill="#FFFFFC" cx="135.6" cy="174.9" r="62.6"/>
	<circle fill="#CF4739" cx="135.6" cy="174.9" r="48.2"/>
	<circle fill="#F6FEFF" cx="135.6" cy="174.9" r="34.6"/>
	<circle fill="#FC6A33" cx="135.6" cy="174.9" r="16.1"/>
</g>
<g>
	<path fill="none" stroke="#333333" stroke-width="3" stroke-miterlimit="10" d="M99.2,94c0.5-0.2,0.9-0.4,1.4-0.6"/>
	<path fill="none" stroke="#333333" stroke-width="3" stroke-miterlimit="10" stroke-dasharray="2.9936,2.9936" d="M103.3,92.3
		c10.2-4.1,21.4-6.3,33.1-6.3c48.7,0,88.3,38.6,89.9,86.9"/>
	<path fill="none" stroke="#333333" stroke-width="3" stroke-miterlimit="10" d="M226.3,174.4c0,0.5,0,1,0,1.5"/>
</g>
<g>
	<path fill="none" stroke="#333333" stroke-width="3" stroke-miterlimit="10" d="M60.3,224c-0.3-0.4-0.5-0.8-0.8-1.3"/>
	<path fill="none" stroke="#333333" stroke-width="3" stroke-miterlimit="10" stroke-dasharray="2.9288,2.9288" d="M58.1,220.2
		c-7.4-13.1-11.6-28.2-11.6-44.2c0-7.7,1-15.2,2.8-22.4"/>
	<path fill="none" stroke="#333333" stroke-width="3" stroke-miterlimit="10" d="M49.6,152.2c0.1-0.5,0.3-1,0.4-1.4"/>
</g>
<g>
	<path fill="none" stroke="#333333" stroke-width="3" stroke-miterlimit="10" d="M167.9,260.2c-0.5,0.2-0.9,0.3-1.4,0.5"/>
	<path fill="none" stroke="#333333" stroke-width="3" stroke-miterlimit="10" stroke-dasharray="2.9003,2.9003" d="M163.8,261.6
		c-8.6,2.8-17.8,4.2-27.4,4.2c-16.1,0-31.1-4.2-44.2-11.6"/>
	<path fill="none" stroke="#333333" stroke-width="3" stroke-miterlimit="10" d="M91,253.6c-0.4-0.3-0.9-0.5-1.3-0.8"/>
</g>
<path fill="#FC6A33" stroke="#FC6A33" stroke-miterlimit="10" d="M401.5,136.3c1.6,0.3,19.5-7.7,30.2,8.5
	c8.3,12.6,24.5,12.5,24.5,12.5s-6,19-21.1,28.2c0,0-13.1-2.3-22.7-18.7c-4.3-7.3-15.5-6.8-25.1-4.1L401.5,136.3"/>
<circle fill="#333333" cx="362.9" cy="169.6" r="10.6"/>
<polyline fill="none" stroke="#333333" stroke-width="6" stroke-linecap="round" stroke-linejoin="round" stroke-miterlimit="10" points="
	367.6,179.5 378,199 378,185 "/>
<path fill="#333333" d="M357.5,177.9c0,0-4.3,19.1-5.3,38.5c-1,19.4,0.2,19.6,3.1,19.2c3-0.4,3.1-6.8,3.5-10.4
	c0.4-3.5,3.7-13.7,3.7-13.7s2.5,6.1,4.1,11.7c1.6,5.7,1.4,13.3,5.2,12.4c3.8-0.9,2.3-19.7,2.3-19.7s-2.3-31.3-9.2-39.7L357.5,177.9z
	"/>
<path fill="none" stroke="#CF4739" stroke-width="5" stroke-linecap="round" stroke-linejoin="round" stroke-miterlimit="10" d="
	M359.2,211.6c0.8-0.5,45.5-79,45.5-79"/>
<path fill="none" stroke="#333333" stroke-width="6" stroke-linecap="round" stroke-linejoin="round" stroke-miterlimit="10" d="
	M360,179.6c0,0-13.9,13.1-11.7,15.5c2.2,2.3,14.3,12.1,14.3,12.1"/>
<g>
	<line fill="none" stroke="#333333" stroke-width="3" stroke-miterlimit="10" x1="112.1" y1="341.4" x2="113.5" y2="340.8"/>
	
		<line fill="none" stroke="#333333" stroke-width="3" stroke-miterlimit="10" stroke-dasharray="3.1057,3.1057" x1="116.3" y1="339.5" x2="183.3" y2="310.5"/>
	<line fill="none" stroke="#333333" stroke-width="3" stroke-miterlimit="10" x1="184.7" y1="309.9" x2="186.1" y2="309.3"/>
</g>
<g>
	<line fill="none" stroke="#333333" stroke-width="3" stroke-miterlimit="10" x1="406.5" y1="391" x2="406.5" y2="389"/>
	
		<line fill="none" stroke="#333333" stroke-width="3" stroke-miterlimit="10" stroke-dasharray="3,3" x1="406.5" y1="386" x2="406.5" y2="312"/>
	<line fill="none" stroke="#333333" stroke-width="3" stroke-miterlimit="10" x1="406.5" y1="311" x2="406.5" y2="310"/>
</g>
<g>
	<path fill="none" stroke="#333333" stroke-width="3" stroke-miterlimit="10" d="M394.1,172.1c0,0,0.5-0.1,1.5,0.1"/>
	<path fill="none" stroke="#333333" stroke-width="3" stroke-miterlimit="10" stroke-dasharray="2.5916,2.5916" d="M398.1,172.9
		c2.7,1,6.5,3.5,10.7,9.2"/>
	<path fill="none" stroke="#333333" stroke-width="3" stroke-miterlimit="10" d="M409.5,183.1c0.3,0.4,0.6,0.8,0.8,1.2"/>
</g>
<g>
	<path fill="none" stroke="#333333" stroke-width="3" stroke-miterlimit="10" d="M107.4,387.2c0,0,0.2,0.5,0.6,1.4"/>
	<path fill="none" stroke="#333333" stroke-width="3" stroke-miterlimit="10" stroke-dasharray="3.3009,3.3009" d="M109.4,391.6
		c1.9,4.5,4.4,11.6,4.7,17.5"/>
	<path fill="none" stroke="#333333" stroke-width="3" stroke-miterlimit="10" d="M114.1,410.7c0,0.5-0.1,1-0.1,1.5"/>
</g>
<g>
	<line fill="none" stroke="#333333" stroke-width="3" stroke-miterlimit="10" x1="195.5" y1="416" x2="195.5" y2="414"/>
	
		<line fill="none" stroke="#333333" stroke-width="3" stroke-miterlimit="10" stroke-dasharray="3,3" x1="195.5" y1="411" x2="195.5" y2="359"/>
	<polyline fill="none" stroke="#333333" stroke-width="3" stroke-miterlimit="10" points="195.3,357.5 195.3,356 196.8,356 	"/>
	
		<line fill="none" stroke="#333333" stroke-width="3" stroke-miterlimit="10" stroke-dasharray="4,4" x1="200" y1="356.5" x2="206" y2="356.5"/>
	<line fill="none" stroke="#333333" stroke-width="3" stroke-miterlimit="10" x1="207" y1="356.5" x2="209" y2="356.5"/>
</g>
<g>
	<path fill="none" stroke="#333333" stroke-width="3" stroke-miterlimit="10" d="M255.2,265.3c0-0.5-0.1-1-0.1-1.5"/>
	<path fill="none" stroke="#333333" stroke-width="3" stroke-miterlimit="10" stroke-dasharray="3.0782,3.0782" d="M255.2,260.8
		c1-15.3,13.1-27.9,28.8-29.1c7.5-0.6,14.7,1.5,20.4,5.6"/>
	<path fill="none" stroke="#333333" stroke-width="3" stroke-miterlimit="10" d="M305.6,238.1c0.4,0.3,0.8,0.6,1.2,0.9"/>
</g>
<ellipse transform="matrix(0.9988 -4.981168e-02 4.981168e-02 0.9988 -3.5966 10.6977)" fill="none" stroke="#333333" stroke-width="3" stroke-miterlimit="10" cx="212.8" cy="77.5" rx="4" ry="4"/>
<ellipse transform="matrix(0.9988 -4.981168e-02 4.981168e-02 0.9988 -12.6499 11.4217)" fill="none" stroke="#333333" stroke-width="3" stroke-miterlimit="10" cx="222.8" cy="259.5" rx="4" ry="4"/>
<g>
	<line fill="none" stroke="#333333" stroke-width="3" stroke-miterlimit="10" x1="46.5" y1="86.6" x2="53.4" y2="93.5"/>
	<line fill="none" stroke="#333333" stroke-width="3" stroke-miterlimit="10" x1="53.4" y1="86.6" x2="46.5" y2="93.5"/>
	<line fill="none" stroke="#333333" stroke-width="3" stroke-miterlimit="10" x1="46.5" y1="86.6" x2="53.4" y2="93.5"/>
	<line fill="none" stroke="#333333" stroke-width="3" stroke-miterlimit="10" x1="53.4" y1="86.6" x2="46.5" y2="93.5"/>
</g>
<g>
	<line fill="none" stroke="#FC6A33" stroke-width="3" stroke-miterlimit="10" x1="57.5" y1="274.6" x2="64.4" y2="281.5"/>
	<line fill="none" stroke="#FC6A33" stroke-width="3" stroke-miterlimit="10" x1="64.4" y1="274.6" x2="57.5" y2="281.5"/>
</g>
<g>
	<line fill="none" stroke="#FC6A33" stroke-width="3" stroke-miterlimit="10" x1="279.5" y1="172.6" x2="286.4" y2="179.5"/>
	<line fill="none" stroke="#FC6A33" stroke-width="3" stroke-miterlimit="10" x1="286.4" y1="172.6" x2="279.5" y2="179.5"/>
</g>
<g>
	
		<rect x="420.9" y="245.7" transform="matrix(0.7071 -0.7072 0.7072 0.7071 -51.4187 371.8926)" fill="none" stroke="#333333" stroke-width="3" stroke-miterlimit="10" width="4.5" height="4.5"/>
	<g>
		<path fill="none" stroke="#333333" stroke-width="3" stroke-miterlimit="10" d="M416.7,218.9c0.5,0,1,0,1.5,0"/>
		<path fill="none" stroke="#333333" stroke-width="3" stroke-miterlimit="10" stroke-dasharray="3.0606,3.0606" d="M421.2,219.2
			c13.9,2.2,24.6,14.2,24.6,28.8c0,15.1-11.7,27.5-26.4,29"/>
		<path fill="none" stroke="#333333" stroke-width="3" stroke-miterlimit="10" d="M417.9,277.1c-0.5,0-1,0-1.5,0"/>
	</g>
</g>
<g>
	<line fill="none" stroke="#333333" stroke-width="3" stroke-miterlimit="10" x1="418" y1="88.5" x2="433" y2="88.5"/>
	<line fill="none" stroke="#333333" stroke-width="3" stroke-miterlimit="10" x1="411" y1="93.5" x2="426" y2="93.5"/>
</g>
<g>
	<line fill="none" stroke="#333333" stroke-width="3" stroke-miterlimit="10" x1="75" y1="313.5" x2="90" y2="313.5"/>
	<line fill="none" stroke="#333333" stroke-width="3" stroke-miterlimit="10" x1="68" y1="318.5" x2="83" y2="318.5"/>
</g>
<g>
	<line fill="none" stroke="#333333" stroke-width="3" stroke-miterlimit="10" x1="245" y1="400.5" x2="260" y2="400.5"/>
	<line fill="none" stroke="#333333" stroke-width="3" stroke-miterlimit="10" x1="238" y1="405.5" x2="253" y2="405.5"/>
</g>
<g>
	<line fill="none" stroke="#333333" stroke-width="3" stroke-miterlimit="10" x1="374" y1="289.5" x2="389" y2="289.5"/>
	<line fill="none" stroke="#333333" stroke-width="3" stroke-miterlimit="10" x1="367" y1="294.5" x2="382" y2="294.5"/>
</g>
<line fill="none" stroke="#000000" stroke-width="2" stroke-miterlimit="10" x1="44" y1="429" x2="431" y2="429"/>
</svg>
