<?xml version="1.0" encoding="utf-8"?>
<!-- Generator: Adobe Illustrator 21.0.0, SVG Export Plug-In . SVG Version: 6.00 Build 0)  -->
<svg version="1.1" id="Layer_2" xmlns="http://www.w3.org/2000/svg" xmlns:xlink="http://www.w3.org/1999/xlink" x="0px" y="0px"
	 viewBox="0 0 1695.8 1473.7" style="enable-background:new 0 0 1695.8 1473.7;" xml:space="preserve">
<style type="text/css">
	.st0{fill:#D7E9F4;}
	.st1{fill:none;}
	.st2{fill:#FFD49D;}
	.st3{fill:#3A2208;}
	.st4{fill:#AD8151;}
	.st5{fill:#3F6383;}
	.st6{fill:#FBB03B;}
</style>
<g id="Airport">
</g>
<g>
	<path class="st0" d="M182.6,217.3H287c-27,0-48.8,22-48.8,48.8v11c0,27,22,48.8,48.8,48.8h337.7c-27,0-48.8,22-48.8,48.8v11
		c0,27,22,48.8,48.8,48.8H393.5c-27,0-48.8,22-48.8,48.8v11c0,27,22,48.8,48.8,48.8H287c-27,0-48.8,22-48.8,48.8v11
		c0,27,22,48.8,48.8,48.8h397.6c-27,0-48.8,22-48.8,48.8v11c0,27,22,48.8,48.8,48.8h576.8c27,0,48.8-22,48.8-48.8v-11
		c0-27-22-48.8-48.8-48.8h203.2c27,0,48.8-22,48.8-48.8v-11c0-27-22-48.8-48.8-48.8h-89.3c27,0,48.8-22,48.8-48.8v-10.8
		c0-27-22-48.8-48.8-48.8h-173.7c27,0,48.8-22,48.8-48.8v-11c0-27-22-48.8-48.8-48.8h263.2c27,0,48.8-22,48.8-48.8v-11
		c0-27-22-48.8-48.8-48.8h-251.9c27,0,48.8-22,48.8-48.8v-11.1c0-27-22-48.8-48.8-48.8H1038c27,0,48.8-22,48.8-48.8v-11
		c0-27-22-48.8-48.8-48.8H461.2c-27,0-48.8,22-48.8,48.8v11c0,27,22,48.8,48.8,48.8H182.6c-27,0-48.8,22-48.8,48.8v11
		C133.8,195.5,155.6,217.3,182.6,217.3z"/>
	<path class="st1" d="M1005.4,233.4c5.7,0,10.3-4.6,10.3-10.3s-4.6-10.3-10.3-10.3c-5.7,0-10.3,4.6-10.3,10.3
		S999.7,233.4,1005.4,233.4z"/>
	<path class="st1" d="M862.3,83.1c5.7,0,10.3-4.6,10.3-10.3c0-5.7-4.6-10.3-10.3-10.3c-5.7,0-10.3,4.6-10.3,10.3
		C852,78.5,856.6,83.1,862.3,83.1z"/>
	<path class="st1" d="M298,233.4c5.7,0,10.3-4.6,10.3-10.3s-4.6-10.3-10.3-10.3c-5.7,0-10.3,4.6-10.3,10.3S292.3,233.4,298,233.4z"
		/>
	<path class="st1" d="M611.5,468.1c2.3,9.2,10.5,15.6,19.8,15.6c1.6,0,3.3-0.2,4.9-0.7c5.2-1.3,9.8-4.6,12.6-9.3s3.6-10.2,2.3-15.4
		c-2.3-9.2-10.5-15.6-19.8-15.6c-1.6,0-3.3,0.2-4.9,0.7C615.5,446,608.8,457.1,611.5,468.1z"/>
	<path class="st1" d="M907.2,333.4c17.4,0,31.5-14.1,31.5-31.5c0-17.4-14.1-31.5-31.5-31.5c-17.4,0-31.5,14.1-31.5,31.5
		C875.8,319.3,889.9,333.4,907.2,333.4z"/>
	<path class="st1" d="M1188.3,162.1c5.7,0,10.3-4.6,10.3-10.3s-4.6-10.3-10.3-10.3s-10.3,4.6-10.3,10.3
		C1178,157.4,1182.6,162.1,1188.3,162.1z"/>
	<path class="st1" d="M509.6,451.2c0,5.7,4.6,10.3,10.3,10.3s10.3-4.6,10.3-10.3c0-5.7-4.6-10.3-10.3-10.3
		C514.2,440.9,509.6,445.7,509.6,451.2z"/>
	<path class="st1" d="M941.3,409c-5.7,0-10.3,4.6-10.3,10.3s4.6,10.3,10.3,10.3s10.3-4.6,10.3-10.3C951.7,413.7,947.1,409,941.3,409
		z"/>
	<path class="st1" d="M811.7,369.5c5.7,0,10.3-4.6,10.3-10.3c0-5.7-4.6-10.3-10.3-10.3c-5.7,0-10.3,4.6-10.3,10.3
		C801.4,364.9,805.9,369.5,811.7,369.5z"/>
	<path class="st1" d="M1271.9,461.9c0,5.7,4.6,10.3,10.3,10.3s10.3-4.6,10.3-10.3c0-5.7-4.6-10.3-10.3-10.3
		C1276.5,451.6,1271.9,456.3,1271.9,461.9z"/>
	<path class="st1" d="M978.5,1410.4h29.5c-0.5-72.8-20.8-107.5-29.5-119.2V1410.4z"/>
	<path class="st1" d="M568.1,260.5c5.7,0,10.3-4.6,10.3-10.3s-4.6-10.3-10.3-10.3s-10.3,4.6-10.3,10.3S562.4,260.5,568.1,260.5z"/>
	<path class="st1" d="M606.6,1410.4h29.5v-119.2C627.3,1302.9,607,1337.8,606.6,1410.4z"/>
	<path class="st2" d="M809.5,1076.9L809.5,1076.9c-1.1,0-2,0-2.1,0c-0.3,0-1,0-2.1,0c-5.7,0-21-0.7-39-6.1v26.4l21.5,12.1
		c2.6-4.3,7.2-7,12.5-7h14.4c5.1,0,9.8,2.8,12.5,7l21.5-12.1v-26.4C830.5,1076.2,815.3,1076.9,809.5,1076.9z"/>
	<path class="st2" d="M933.1,853.6l-8,3.9c-0.3,0.2-0.7,0.2-1,0.2c-0.5,0-0.8-0.2-1.3-0.3c-0.7-0.5-1.1-1.1-1.1-2
		c0.3-34.6-5.1-79.3-8.2-102.6c-26.4,9.5-66.7,14.8-106.2,14.8c-39.5,0-79.8-5.2-106.2-14.8c-3.1,23.1-8.4,67.5-8.2,102.1
		c0,0.2,0,0.3,0,0.5c0,1.3-1,2.3-2.3,2.3l0,0c-0.3,0-0.7,0-1-0.2l-8-3.9c-0.7-0.3-1.1-1-1.3-1.8c0-0.2-1-7.2-2.3-18.4
		c-20.2,5.2-34.7,23.6-34.7,44.9c0,22.9,17,42.6,39.7,45.9c1.1,0.2,2,1.1,2,2.3v9c0,55.4,18.2,95.1,53.9,117.7
		c27.9,17.5,57.9,19,66.4,19c1.3,0,2,0,2.1,0c0,0,0,0,0.2,0c0,0,0,0,0.2,0c0,0,0.8,0,2.1,0l0,0c8.5,0,38.4-1.3,66.4-19
		c35.9-22.6,54.1-62.1,54.1-117.7v-9c0-1.1,0.8-2.1,2-2.3c22.6-3.3,39.7-22.9,39.7-45.9c0-21.1-14.6-39.7-34.7-44.9
		c-1.3,11.1-2.3,18.2-2.3,18.4C934.3,852.7,933.8,853.3,933.1,853.6z"/>
	<path class="st3" d="M930,850c1.1-8.7,7.9-61.8,8.9-111.6c-4.4,4.8-11.6,9.2-20.8,12.8c3,22.1,8.4,65.7,8.4,100.5L930,850z"/>
	<path class="st3" d="M675.8,738.4c1,49.8,7.7,102.9,8.9,111.6l3.6,1.8c0.2-34.9,5.4-78.3,8.4-100.5
		C687.3,747.6,680.1,743.3,675.8,738.4z"/>
	<path class="st2" d="M793.6,692c-15.7,0.5-30.3,1.6-43.4,3.4c1.6,1.3,3.3,2.5,5.1,3.8c13.6-1.5,28.4-2.5,42.9-2.8
		C796.4,695.3,795,693.8,793.6,692z"/>
	<path class="st2" d="M825.1,696.8c53.6,2,104.7,12.6,104.7,30.7c0,20.2-63.1,31-122.4,31S685,747.6,685,727.4
		c0-13.3,27.7-22.6,63.6-27.4c-1.6-1.1-3.1-2.5-4.6-3.8c-42.5,6.6-68.2,19-68.2,31c0,17.2,52.9,35.6,131.6,35.6S939,744.5,939,727.3
		c0-15.6-43.1-32-109.3-35.1C828.2,694,826.8,695.5,825.1,696.8z"/>
	<path class="st4" d="M689.4,727.4c0,12.5,48.4,26.4,117.9,26.4s117.9-13.9,117.9-26.4c0-12.5-48.4-26.4-117.9-26.4
		c-16.7,0-32.3,0.8-46.2,2.3c0.8,0.8,1.1,2,0.5,3c-0.5,0.7-1.1,1.1-2,1.1c-0.5,0-0.8-0.2-1.3-0.3c-1.5-1-3-2-4.4-3
		C714.3,708.9,689.4,718.6,689.4,727.4z M863,739.4C862.8,739.4,862.8,739.4,863,739.4c-0.3,0-3.9-0.2-10.2-1
		c-1.3-0.2-2.1-1.3-2-2.6c0.2-1.3,1.3-2.1,2.6-2c6.1,0.8,9.7,1,9.7,1c1.3,0,2.3,1.1,2.1,2.5C865.1,738.6,864.1,739.4,863,739.4z
		 M833.6,730.5c1.3,0.3,2.1,1.5,1.8,2.8c-0.2,1.1-1.1,1.8-2.3,1.8c-0.2,0-0.3,0-0.5,0c-6.6-1.3-13.1-3-19.5-4.6
		c-1.3-0.3-2-1.6-1.6-3s1.6-2,3-1.6C820.9,727.8,827.3,729.2,833.6,730.5z M774.8,713.7c0.5-1.1,2-1.6,3.1-1.1
		c5.7,2.8,11.8,5.2,18,7.5c1.1,0.5,1.8,1.8,1.3,3c-0.3,1-1.3,1.5-2.1,1.5c-0.3,0-0.5,0-0.8-0.2c-6.4-2.3-12.6-4.9-18.5-7.7
		C774.6,716.1,774.3,714.8,774.8,713.7z"/>
	<path class="st5" d="M932.5,1115.2h-40.3l-82.4,177.7c-0.3,1-1.1,1.6-2.3,1.6c-0.2,0-0.3,0-0.5,0c-0.7-0.2-1.3-0.7-1.6-1.3
		l-82.6-178h-40.3c-87.5,23.3-128.2,102.8-146.9,165.2c-18.2,60.8-19.7,118-19.8,130H602c0.5-94.4,33.4-125.9,34.9-127.2
		c0.7-0.7,1.6-0.8,2.5-0.5c0.8,0.3,1.3,1.1,1.3,2.1v125.6H974v-125.6c0-1,0.5-1.8,1.3-2.1c0.8-0.3,1.8-0.2,2.5,0.5
		c1.5,1.3,34.4,32.8,34.9,127.2h86.4c-0.2-12-1.6-69.2-19.8-130C1060.7,1218,1020,1138.7,932.5,1115.2z"/>
	<path class="st6" d="M863.8,1156.1c-0.7,0.5-1.6,0.5-2.3,0l-34.6-19.5c-2.6,4.3-7.2,7-12.5,7H800c-5.1,0-9.8-2.8-12.5-7l-34.6,19.5
		c-0.3,0.2-0.8,0.3-1.1,0.3c-0.3,0-0.8-0.2-1.1-0.3c-0.7-0.5-1.1-1.1-1.1-2v-38.8h-22l79.7,171.6l79.7-171.4h-22v38.7
		C865,1154.9,864.5,1155.7,863.8,1156.1z"/>
	<path class="st5" d="M754.3,1095.7v54.4l33.3-18.7c0.7-0.3,1.3-0.3,2-0.2c0.7,0.2,1.1,0.8,1.3,1.5c1.3,3.9,5.1,6.6,9.2,6.6h14.4
		c4.1,0,7.9-2.6,9.2-6.6c0.2-0.7,0.7-1.1,1.3-1.5c0.7-0.2,1.3-0.2,2,0.2l33.3,18.7v-54.4l-33.3,18.7c-0.7,0.3-1.3,0.3-2,0.2
		c-0.7-0.2-1.1-0.8-1.3-1.5c-1.3-3.9-5.1-6.6-9.2-6.6H800c-4.1,0-7.9,2.6-9.2,6.6c-0.2,0.7-0.7,1.1-1.3,1.5c-0.7,0.3-1.3,0.2-2-0.2
		L754.3,1095.7z"/>
	<path class="st6" d="M857.4,299.5c0.7,0,1.3,0.3,1.8,0.7c0.5,0.5,0.7,1.1,0.7,1.8c0,6.1,2.1,12,4.4,17.5c0.5,1.3,0,2.6-1.3,3.1
		l-5.7,2.6c2.3,4.9,5.6,9.5,9.5,13.8l4.9-4.8c1-1,2.5-1,3.4,0c4.3,4.3,9.3,7.5,14.9,9.8c0.7,0.3,1.1,0.7,1.3,1.3
		c0.3,0.7,0.3,1.3,0,1.8l-2.6,6.4c3.9,1.5,7.9,2.5,11.8,3v-6.7c0-1.3,1.1-2.5,2.5-2.5c7.7-0.2,13.9-1.1,19.3-3.4
		c1.1-0.5,2.5,0,3.1,1l3.8,6.6c5.6-2.6,10.7-5.7,14.6-9.3l-4.6-4.8c-1-1-1-2.5,0-3.4c4.4-4.4,7.9-9.5,10-14.8
		c0.3-0.7,0.7-1.1,1.3-1.3c0.7-0.3,1.3-0.3,1.8,0l6.4,2.6c2-5.6,3.3-11,3.4-16.4h-7c-1.3,0-2.5-1.1-2.5-2.5c0-6.1-1.1-12-3.6-17.4
		c-0.5-1.3,0-2.6,1.3-3.3l6.2-2.6c-2.3-5.1-5.4-9.7-9.2-13.8l-4.8,4.8c-1,1-2.5,1-3.4,0c-4.3-4.3-9.3-7.5-14.9-9.8
		c-0.7-0.3-1.1-0.7-1.3-1.3c-0.2-0.7-0.3-1.3,0-2l2.6-6.1c-5.1-1.8-10.5-2.8-16.2-3.1v0.3v6.4c0,0.7-0.3,1.3-0.7,1.8
		c-0.5,0.5-1.1,0.7-1.8,0.7c-6.2,0-12.1,1.1-17.5,3.4c-0.7,0.3-1.3,0.3-1.8,0c-0.7-0.3-1.1-0.7-1.3-1.3l-2.6-6.2
		c-5.1,2.3-9.7,5.4-13.8,9.2l4.8,4.8c0.5,0.5,0.7,1.1,0.7,1.8c0,0.7-0.3,1.3-0.7,1.8c-4.3,4.3-7.5,9.3-9.8,14.9
		c-0.5,1.1-1.8,1.8-3.1,1.5l-8.5-3c-0.2,0.3-0.3,0.7-0.5,1.1c-2.1,5.1-4.3,10.2-4.9,15.2L857.4,299.5z M907.2,265.5
		c20,0,36.4,16.4,36.4,36.4s-16.4,36.4-36.4,36.4c-20,0-36.4-16.4-36.4-36.4C870.9,281.8,887.1,265.5,907.2,265.5z"/>
	<path class="st6" d="M649.2,283.7c-1.3,0.5-2.6,0.8-3.9,1.3c-1.1,0.5-2.3,1-3.4,1.5l-15.6,9.3c-0.3,0.2-0.8,0.3-1.3,0.3
		c-0.3,0.2-0.7,0.5-1,0.7l-3.1,2.3l3.8,1.8c3.4,1.6,7,3.3,10.7,4.8c2.3,1,4.6,2.1,6.9,3.1c1.3,0.5,2.5,1.1,3.8,1.6l2.6,1.1
		c2.6,1.1,5.4,2.3,8,3.4c3.6,1.5,24.8,10.5,30.2,12.8c0.8,0.3,1.3,1.1,1.3,2.1c0,0.8-0.5,1.8-1.3,2.1c-7.7,3.9-12,13.4-10.5,23.8
		c1.6,11.5,10.2,20,19.8,20c0.8,0,1.5,0,2.3-0.2c10.3-1.5,17.4-12.9,15.4-25.4c-0.8-5.1-2.3-8.4-4.9-12.6c0,0,0-0.2-0.2-0.2
		c-1.1-2.3-8.9-8.5-47.4-25.4c-1.6-0.7-2.6-1.1-3.1-1.3c-2.6-1.1-5.1-2.5-7.7-3.6l-2.8-1.3c-1.1-0.5-2.5-1.1-3.8-1.6
		c-2.3-1-4.6-2.1-6.9-3.1c-1-0.5-2.1-1-3.1-1.3c-0.8-0.3-1.3-1-1.5-2c-0.2-0.8,0.3-1.6,1-2.1c2.3-1.6,4.1-2.8,5.9-3.9
		c1-0.5,1.8-1.1,2.8-1.6l0.5-0.3c1.1-0.7,2.3-1.3,3.4-1.8c0.8-0.3,1.5-0.8,2.3-1.1l1.5-0.7c1.1-0.5,2.1-1,3.3-1.5
		c1.1-0.5,2.5-1,3.6-1.3c1.3-0.5,2.5-0.8,3.8-1c1.3-0.3,2.6-0.7,3.9-0.7c0.3,0,0.8-0.2,1.3-0.2c-0.3,0-0.8,0-1.3-0.2
		c-1.5-0.2-2.8,0-4.1,0l-2,0.2c-0.3,0-0.7,0.2-1.1,0.2l-0.8,0.2c-0.5,0-1,0.2-1.5,0.3l-0.5,0.2c-0.7,0.2-1.3,0.2-1.8,0.5
		C651.7,283.1,650.6,283.4,649.2,283.7z"/>
	<path class="st6" d="M734,206c1.3,9.2,10.3,15.7,21.5,15.7l0,0c1.3,0,2.6-0.2,3.9-0.3c5.1-0.8,8.4-2.3,12.6-4.9c0,0,0.2,0,0.2-0.2
		c2.3-1.1,8.5-8.9,25.4-47.4c0.7-1.5,1.1-2.6,1.3-3.1c1.3-2.6,2.5-5.1,3.6-7.7l1.3-2.8c0.5-1.1,1.1-2.5,1.6-3.8
		c1-2.3,2.1-4.6,3.1-6.9l1.3-3.1c0.3-0.8,1-1.3,2-1.5c0.8,0,1.6,0.3,2.1,1c1.6,2.3,2.8,4.1,3.9,5.9c0.5,1,1.1,1.8,1.6,2.8l0.3,0.5
		c0.7,1.1,1.3,2.3,1.8,3.4c0.3,0.8,0.8,1.5,1.1,2.3l0.7,1.5c0.5,1.1,1,2.1,1.5,3.3c0.5,1.1,1,2.5,1.3,3.6c0.3,1.1,0.7,2.5,1,3.6v0.2
		c0.3,1.3,0.5,2.5,0.7,3.8c0,0.5,0.2,0.8,0.2,1.3c0-0.3,0-0.8,0.2-1.3c0.2-1.3,0-2.6,0-4.1l-0.2-2c0-0.3-0.2-0.7-0.2-1.1l-0.2-0.8
		c0-0.5-0.2-1-0.3-1.5l-0.2-0.5c-0.2-0.7-0.2-1.3-0.5-1.8c-0.3-1.3-0.7-2.6-1.1-3.9c-0.5-1.3-0.8-2.6-1.3-3.9
		c-0.5-1.1-1-2.3-1.5-3.4l-9.3-15.6c-0.2-0.3-0.3-0.8-0.3-1.3c-0.2-0.3-0.5-0.7-0.7-1l-2.3-3.1l-1.8,3.8c-1.6,3.4-3.3,7-4.8,10.7
		c-1,2.3-2.1,4.6-3.1,6.9c-0.5,1.3-1.1,2.5-1.6,3.8l-1.1,2.6c-1.1,2.6-2.3,5.4-3.4,8.2c-1.5,3.6-10.5,24.8-12.8,30.2
		c-0.3,0.8-1.1,1.3-2.1,1.3c-0.8,0-1.8-0.5-2.1-1.3c-3.4-6.7-10.8-10.8-19.5-10.8c-1.3,0-2.8,0.2-4.3,0.3
		C741.4,185.7,732.3,195.7,734,206z"/>
	<g>
		<polygon class="st6" points="1047.4,418.8 1198.5,245.5 1113.9,318 1032,388.1 1041.3,426 		"/>
		<polygon class="st6" points="1053.9,418.5 1068.4,408.6 1140.2,319.6 		"/>
		<polygon class="st6" points="1073.9,409.1 1136.2,429 1213.3,236.5 		"/>
		<polygon class="st6" points="1028.5,385 1195.9,241.8 974.9,380.3 		"/>
	</g>
	<path class="st6" d="M451.2,502.7c-12-1.6-19-5.4-22.9-8.7c1.6,12.5,8,37.2,32.8,37.2l0,0c0.3,0,0.7,0,1,0c0,0,0-0.2,0.2-0.2l8-9.8
		C468.9,514.7,464.8,504.5,451.2,502.7z"/>
	<path class="st6" d="M534.3,598.6c32.8,27.7,60.2,44.9,71.8,44.9l0,0c1.8,0,3.1-0.5,3.9-1.3c1.6-2.1,0.5-5.9-0.8-8.7
		c-10.5-22.3-64.4-66.2-102.1-89.8l-13.4,16.7C504.5,572,518.8,585.5,534.3,598.6z"/>
	<polygon class="st6" points="473.2,524.5 467,532.2 489.9,557 503,541.1 	"/>
	<path class="st6" d="M648.9,533.4c4.6-11.6,20.2-54.1,14.3-78c-3.6-14.6-16.7-24.8-31.6-24.8c-2.6,0-5.2,0.3-7.9,1
		c-8.5,2.1-15.6,7.4-20.2,14.9c-4.4,7.5-5.7,16.2-3.8,24.8C605.3,493.5,639.4,524.8,648.9,533.4z M625.3,438.8
		c2-0.5,4.1-0.8,6.1-0.8c11.5,0,21.5,7.9,24.4,19c1.6,6.6,0.7,13.3-2.8,19c-3.4,5.7-9,9.8-15.4,11.5c-2,0.5-4.1,0.8-6.1,0.8
		c-11.5,0-21.5-7.9-24.4-19C603.7,455.8,611.9,442.1,625.3,438.8z"/>
	<g>
		<path class="st1" d="M1242.8,363.9c3.1,2,6.9,3,10.5,3c7.2,0,13.8-3.8,17.5-9.8c2.8-4.8,3.6-10.2,2.3-15.4
			c-1.3-5.2-4.6-9.8-9.3-12.6c-3.1-2-6.9-3-10.5-3c-7.2,0-13.8,3.8-17.5,9.8C1230,345.5,1233.1,358,1242.8,363.9z"/>
		<path class="st6" d="M1216,408.3c11.5-4.9,52.5-24.1,65.2-45.1c9.3-15.4,4.3-35.6-11.1-44.7c-5.1-3.1-10.8-4.8-16.7-4.8
			c-11.6,0-22,5.9-28,15.7C1213.4,349.5,1215.4,395.7,1216,408.3z M1231.8,333.4c4.6-7.5,12.8-12.1,21.5-12.1c4.6,0,9,1.3,12.9,3.6
			c5.7,3.4,9.8,9,11.5,15.4s0.7,13.3-2.8,19c-4.6,7.5-12.8,12.1-21.5,12.1c-4.6,0-9-1.3-12.9-3.6
			C1228.5,360.8,1224.7,345.2,1231.8,333.4z"/>
	</g>
	<path class="st6" d="M860.7,586.8c1.5-6.6,6.4-13.4,12.1-21.5c11.6-16.4,27.5-38.7,25.2-72.9c-4.4-62-58-78.3-85.7-78.3
		c-28.2,0-82.4,16.4-85.7,78.3c-1.8,34.3,13.8,56.5,25.2,72.9c5.7,8,10.7,15.1,12,21.6c1.1,5.2,1.8,10.3,2.5,14.6
		c0.7,4.6,1.1,8,1.8,10.5c1.6-1.1,3.6-1.8,5.7-1.8h23.8L781,525.8c-0.2-1,0.2-2,1-2.5c0.8-0.5,1.8-0.7,2.6-0.2l15.1,7.7l10.7-7.5
		c0.8-0.7,2-0.7,2.8,0l10.3,7.2l16.6-7.4c0.8-0.3,1.8-0.3,2.6,0.3c0.7,0.7,1.1,1.5,0.8,2.5l-16.6,84.4h23.6c2.1,0,4.1,0.7,5.7,1.8
		c0.7-2.6,1.1-6.1,1.8-10.5C858.7,597.1,859.4,592.2,860.7,586.8z"/>
	<path class="st6" d="M824.1,535.5c-0.8,0.3-1.6,0.3-2.5-0.2l-10-7l-10.5,7.4c-0.8,0.5-1.8,0.7-2.6,0.2l-11.8-6.1l15.7,80.3h19.2
		l15.9-80.6L824.1,535.5z"/>
	<rect x="775.1" y="655.5" class="st6" width="73.3" height="4.8"/>
	<rect x="775.1" y="630.4" class="st6" width="73.3" height="4.8"/>
	<path class="st6" d="M773.8,625.8h76.7c3,0,5.6-2.5,5.6-5.6c0-3-2.5-5.6-5.6-5.6h-76.7c-3,0-5.6,2.5-5.6,5.6
		C768.4,623.3,770.9,625.8,773.8,625.8z"/>
	<path class="st6" d="M773.8,650.9h76.7c3,0,5.6-2.5,5.6-5.6c0-3-2.5-5.6-5.6-5.6h-76.7c-3,0-5.6,2.5-5.6,5.6
		C768.4,648.4,770.9,650.9,773.8,650.9z"/>
	<path class="st6" d="M856.1,670.4c0-3-2.5-5.6-5.6-5.6h-76.7c-3,0-5.6,2.5-5.6,5.6c0,3,2.5,5.6,5.6,5.6h17.4h41h18.4
		C853.6,676,856.1,673.5,856.1,670.4z"/>
	<path class="st6" d="M811.7,696.5c9.2,0,16.9-6.9,18-15.9h-36.1C794.8,689.4,802.5,696.5,811.7,696.5z"/>
	<path class="st6" d="M472.4,252.4H360.8c-6.7,0-12.3,5.6-12.3,12.3v84.6c0,6.7,5.6,12.3,12.3,12.3h71.8c0.5,0,1.1,0.2,1.5,0.5
		l31,27l0.2-25.2c0-1.3,1-2.3,2.3-2.3h4.9c6.7,0,12.3-5.6,12.3-12.3v-84.6C484.7,258,479.1,252.4,472.4,252.4z M385.4,313.7
		c-6.6,0-11.8-5.2-11.8-11.8c0-6.6,5.2-11.8,11.8-11.8c6.6,0,11.8,5.2,11.8,11.8C397,308.5,391.7,313.7,385.4,313.7z M417.1,313.7
		c-6.6,0-11.8-5.2-11.8-11.8c0-6.6,5.2-11.8,11.8-11.8c6.6,0,11.8,5.2,11.8,11.8C429,308.5,423.7,313.7,417.1,313.7z M447.8,313.7
		c-6.6,0-11.8-5.2-11.8-11.8c0-6.6,5.2-11.8,11.8-11.8c6.6,0,11.8,5.2,11.8,11.8C459.6,308.5,454.4,313.7,447.8,313.7z"/>
	<path class="st6" d="M588.9,140.5c0.3,0.3,5.4,6.4,5.9,12.8c0.3,5.2,0.3,9.7,0.3,10.5v0.2c0,2.5,0.7,4.9,2.1,7.2
		c0.8,1.5,2,2.6,3.3,3.8l0,0l0.2,0.2c6.6,6.4,14.8,10.2,22.8,10.2l0,0c2.6,0,5.2-0.5,7.5-1.1L617,173.9c-3.4-2.5-4.6-6.9-2.6-10.2
		l5.9-9.8c1.1-1.8,3.1-3,5.4-3c1.6,0,3.3,0.5,4.6,1.5l13.8,9.8c-0.5-7.4-4.1-14.8-9.8-20.8c-1.6-1.8-3.4-3.3-5.4-4.8
		c0,0-0.2-0.2-0.3-0.2c-0.8-0.7-2-1.5-3.3-2c-1-0.5-2.3-0.8-3.6-1h-0.7c-0.5,0-1-0.2-1.5-0.2h-0.3c-0.2,0-0.2,0-0.3,0
		c-2.6-0.2-6.2-0.5-8.5-0.8c-3.9-0.7-8.9-3.1-9-3.1c-0.3-0.2-0.5-0.3-0.7-0.5l-22.1-23.1c-0.2-0.2-0.2-0.3-0.3-0.5l-0.3-0.3
		l-11,12.8c0,0,0,0,0,0.2L588.9,140.5z"/>
	<path class="st6" d="M551.2,69.8c-0.3-5.2-0.3-9.5-0.3-10.5v-0.2c0-2.5-0.7-4.9-2.1-7.2c-0.8-1.5-2-2.6-3.3-3.8l-0.2-0.2
		c-6.6-6.4-14.9-10.2-22.8-10.2c-2.6,0-5.1,0.5-7.5,1.1l14.1,10.2c3.4,2.5,4.6,6.9,2.6,10.2l-6.1,9.8c-1.1,1.8-3.1,3-5.4,3
		c-1.6,0-3.3-0.5-4.6-1.5l-13.8-9.8c0.5,7.4,4.1,14.9,9.8,20.8c1.6,1.8,3.4,3.3,5.4,4.8l0.2,0.2l0,0c1,0.8,2.1,1.5,3.3,2
		c1,0.5,2.3,0.8,3.6,1h0.5c0.5,0,1,0.2,1.5,0.2h0.3h0.2c2.6,0.2,6.2,0.5,8.5,0.8c3.9,0.7,8.9,3.1,9,3.3c0.3,0.2,0.5,0.3,0.7,0.5
		l12.8,13.4l11-12.8L557,82.6C556.8,82.4,551.7,76.4,551.2,69.8z"/>
	<path class="st6" d="M607.6,63.6c0.5-0.7,1.1-0.8,2-0.8c3,0.3,5.9-1.1,7.7-3.8l8-12.8l-7-5.9l-11.1,10.3c-2.5,2.3-3.4,5.2-2.6,8
		c0.2,0.8,0,1.5-0.5,2.1l-47.9,56.1l3.4,3L607.6,63.6z"/>
	<path class="st6" d="M498.8,182.1l5.6,4.8c1.3,1,2.8,1.6,4.8,1.6c3.4,0,7.2-2,9.8-5.1l41.6-49l-0.2-0.2c-0.8-0.7-1.1-1.8-0.7-2.8
		c0.2-0.5,0.5-0.8,1-1c0,0,0.2,0,0.2-0.2c0.2,0,0.2-0.2,0.3-0.2l0,0l0.2-0.2l0,0c0.2-0.2,0.2-0.3,0.3-0.3l0.5-0.7
		c0.2-0.3,0.3-0.5,0.3-0.5l-4.1-3.6l-0.2-0.2l-6.4-5.6c-0.2,0-0.2-0.2-0.3-0.2l-4.6-3.9c-0.2,0-0.3,0-0.7,0.3l-0.3,0.5
		c0,0,0,0.2-0.2,0.2l0,0c0,0,0,0.2-0.2,0.2v0.2c0,0,0,0,0,0.2v0.2v0.2c0,0.3-0.2,0.7-0.3,0.8c-0.2,0.2-0.2,0.3-0.3,0.5
		c-0.8,0.8-2.3,1-3.1,0.2l0,0l-41.6,49C495.5,171.9,495,179,498.8,182.1z"/>
	<path class="st6" d="M1066.9,150.5c38.5,0,69.8-31.3,69.8-69.8s-31.3-69.8-69.8-69.8c-38.5,0-69.8,31.3-69.8,69.8
		S1028.4,150.5,1066.9,150.5z M1066.9,16.9c35.2,0,63.9,28.7,63.9,63.9s-28.7,63.8-63.9,63.8c-35.2,0-63.8-28.7-63.8-63.8
		C1003.1,45.4,1031.6,16.9,1066.9,16.9z"/>
	<path class="st6" d="M1060.3,80.6c0-0.3,0-0.7,0-1l-18.7,21.3l24.9-13.8c-0.2,0-0.5,0-0.7-0.2c-0.2,0-0.2,0-0.3,0
		C1062.6,86.4,1060.3,83.8,1060.3,80.6z"/>
	<path class="st6" d="M1073.6,80.6c0,0.3,0,0.5-0.2,0.8l18.7-21.1l-24.9,13.8l0,0C1070.8,74.3,1073.6,77,1073.6,80.6z"/>
	<circle class="st6" cx="1067.1" cy="80.6" r="2"/>
	<path d="M714.6,583.2c-1.3-0.3-2.5,0.3-3,1.6c-1.6,6.2-3,12.8-3.6,19.7c-0.2,1.3,0.8,2.5,2.1,2.6c0.2,0,0.2,0,0.3,0
		c1.1,0,2.1-0.8,2.3-2.1c0.7-6.7,1.8-13.1,3.4-19C716.6,584.7,715.8,583.5,714.6,583.2z"/>
	<path d="M709.7,622c-1.3,0-2.3,1.1-2.3,2.5c0.3,6.9,1.3,13.6,3,20c0.3,1,1.1,1.8,2.3,1.8c0.2,0,0.3,0,0.5,0c1.3-0.3,2-1.6,1.6-2.8
		c-1.5-6.1-2.5-12.5-2.8-19C712,623,711,622,709.7,622z"/>
	<path d="M718.4,660.4c-1.1,0.7-1.6,2-1,3.1c3,5.9,6.6,11.6,10.8,17c0.5,0.7,1.1,0.8,1.8,0.8c0.5,0,1-0.2,1.5-0.5
		c1-0.8,1.1-2.3,0.3-3.3c-4.1-5.1-7.5-10.5-10.3-16.2C721,660.2,719.6,659.7,718.4,660.4z"/>
	<path d="M1010.3,467.5c0.5,0,1-0.2,1.5-0.5c2.8-2.1,5.4-4.3,7.7-6.6c1-0.8,1-2.3,0-3.3c-0.8-1-2.3-1-3.3,0
		c-2.3,2.1-4.8,4.3-7.4,6.2c-1,0.8-1.3,2.3-0.5,3.3C1008.9,467.1,1009.5,467.5,1010.3,467.5z"/>
	<path d="M936.3,489.8c-1.3,0.2-2.1,1.5-2,2.6c0.2,1.1,1.1,2,2.3,2c0.2,0,0.3,0,0.3,0c7-1.3,13.4-2.6,19.5-3.9
		c1.3-0.3,2-1.5,1.8-2.8c-0.3-1.3-1.5-2-2.8-1.8C949.5,487.3,943.3,488.6,936.3,489.8z"/>
	<path d="M975.1,485.2c0.2,0,0.5,0,0.8-0.2c6.7-2.3,12.9-4.8,18.5-7.5c1.1-0.5,1.6-2,1.1-3.1c-0.5-1.1-2-1.6-3.1-1.1
		c-5.4,2.6-11.5,5.1-18,7.2c-1.1,0.3-1.8,1.8-1.5,3C973.3,484.5,974.1,485.2,975.1,485.2z"/>
	<path d="M733.3,548.9c-1-0.8-2.5-0.7-3.3,0.3c-4.3,5.1-8,10.8-11.1,16.9c-0.7,1.1-0.2,2.6,1,3.1c0.3,0.2,0.7,0.3,1,0.3
		c0.8,0,1.6-0.5,2.1-1.3c3-5.7,6.4-11.1,10.5-15.9C734.5,551.2,734.3,549.8,733.3,548.9z"/>
	<path d="M775.9,716.8c5.7,2.8,12,5.4,18.5,7.7c0.3,0.2,0.5,0.2,0.8,0.2c1,0,1.8-0.7,2.1-1.5c0.5-1.1-0.2-2.6-1.3-3
		c-6.2-2.3-12.3-4.9-18-7.5c-1.1-0.5-2.6,0-3.1,1.1C774.5,715,774.6,716.1,775.9,716.8z"/>
	<path d="M813.3,730.5c6.2,1.8,12.8,3.3,19.5,4.6c0.2,0,0.3,0,0.5,0c1.1,0,2.1-0.8,2.3-1.8c0.3-1.3-0.5-2.5-1.8-2.8
		c-6.6-1.3-12.9-2.8-19.2-4.6c-1.3-0.3-2.5,0.3-3,1.6C811.4,728.9,812.2,730.2,813.3,730.5z"/>
	<path d="M852.8,738.4c6.2,0.8,9.8,1,10,1h0.2c1.1,0,2.3-1,2.3-2.1c0-1.3-0.8-2.5-2.1-2.5c0,0-3.6-0.2-9.7-1c-1.3-0.2-2.5,0.8-2.6,2
		C850.5,737.1,851.5,738.2,852.8,738.4z"/>
	<g>
		<g>
			<path class="st1" d="M1031.3,571.1c-28.8,0-52.3,23.4-52.3,52.3s23.4,52.3,52.3,52.3c28.8,0,52.3-23.4,52.3-52.3
				C1083.8,594.7,1060.2,571.1,1031.3,571.1z"/>
			<path class="st6" d="M1103.8,650.7l11.6,4.9c3.9-10,6.1-20.2,6.4-30h-12.9c-1.3,0-2.5-1.1-2.5-2.5c0-10-2-19.7-5.7-28.7
				c-0.5-1.3,0-2.6,1.3-3.3l11.5-4.8c-4.3-9.3-9.8-17.7-16.9-25.1l-8.7,8.9c-0.5,0.5-1.1,0.7-1.8,0.7l0,0c-0.7,0-1.3-0.3-1.8-0.7
				c-7-7-15.2-12.5-24.4-16.2c-1.1-0.5-1.8-1.8-1.3-3.1l4.9-13.8c-9.8-3.9-19.5-7.4-29.7-7.9v4.4l0.2,11.5c0,0.7-0.3,1.3-0.7,1.8
				c-0.5,0.5-1.1,0.7-1.8,0.7c-9.3,0-19,2.1-28.8,6.2c-1.3,0.5-2.6,0-3.3-1.3l-4.8-11.3c-9.2,4.1-17.7,9.8-25.1,17l8.9,8.9
				c1,1,1,2.5,0,3.4c-7,7-12.5,15.4-16.2,24.6c-0.5,1.1-1.8,1.8-3.1,1.3l-13.9-5.1c-3.8,9.2-7.7,19.5-8.2,29.8l15.6-0.2l0,0
				c0.7,0,1.3,0.3,1.8,0.7c0.5,0.5,0.7,1.1,0.7,1.8c0,8.9,2.1,17.9,6.7,28.8c0.5,1.3,0,2.6-1.3,3.3l-11.1,4.8
				c4.1,9.2,9.8,17.5,17,25.2l8.9-8.9c1-1,2.5-1,3.4,0c7,7,15.2,12.5,24.6,16.4c0.7,0.3,1.1,0.8,1.3,1.3c0.2,0.7,0.2,1.3,0,2
				l-4.8,10.2c7.4,2.6,15.6,4.1,25.6,4.6v-10c0-1.3,1.1-2.5,2.5-2.5c11.1-0.2,21.6-2.1,30.2-5.7c1.1-0.5,2.6,0,3.1,1.1l5.9,11.8
				c9.8-4.4,18.7-10.2,25.9-16.9l-8.5-8.9c-1-1-1-2.5,0-3.4c7-7,12.8-15.6,16.4-24.4c0.3-0.7,0.7-1.1,1.3-1.3
				C1102.6,650.9,1103.3,650.6,1103.8,650.7z M1031.3,680.7c-31.6,0-57.2-25.7-57.2-57.2c0-31.6,25.7-57.2,57.2-57.2
				c31.5,0,57.2,25.7,57.2,57.2C1088.7,655,1063,680.7,1031.3,680.7z"/>
		</g>
		<path d="M1115.9,661c0.7,0.3,1.3,0.3,2,0c0.7-0.3,1.1-0.7,1.3-1.3c5.1-12.3,7.7-24.6,7.7-36.6c0-1.3-1.1-2.5-2.5-2.5h-12.9
			c-0.3-8.9-2.1-17.5-5.2-25.9l11.5-4.9c1.3-0.5,1.8-2,1.3-3.3c-4.8-11.5-11.8-21.8-20.7-30.7c-1-1-2.5-1-3.4,0l-8.9,8.9
			c-6.6-6.1-13.9-11-22.1-14.6l4.9-13.8c0.5-1.3-0.2-2.6-1.3-3.1c-11.3-4.8-23.6-9.2-36.2-9.2c-1.3,0-2.5,1.1-2.5,2.5v6.9l0.2,9
			c-8.5,0.3-17.2,2.1-26.1,5.6l-4.8-11.3c-0.5-1.3-2-1.8-3.3-1.3c-11.5,4.8-21.8,11.8-30.7,20.8c-1,1-1,2.5,0,3.4l8.9,8.9
			c-6.1,6.6-11.1,14.1-14.8,22.3l-13.9-5.1c-1.3-0.5-2.6,0.2-3.1,1.3c-4.4,11-9.5,23.3-9.5,36.4c0,0.7,0.3,1.3,0.7,1.8
			c0.5,0.5,1.1,0.7,1.8,0.7l15.6-0.2c0.3,8,2.3,16.4,6.1,25.9l-11.1,4.8c-1.3,0.5-1.8,2-1.3,3.3c4.8,11.3,11.6,21.6,20.8,30.7
			c1,1,2.5,1,3.4,0l9-8.9c6.6,6.1,13.9,11,22.1,14.6l-4.8,10.3c-0.3,0.7-0.3,1.3,0,2c0.2,0.7,0.7,1.1,1.3,1.3c9,3.8,19,5.6,31.8,5.9
			c0.2,0,0.3,0,0.5,0h3.9c1.3,0,2.5-1.1,2.5-2.5s-1.1-2.5-2.5-2.5c-0.5,0-1,0-1.5,0v-7.4c10-0.3,19.3-2.1,27.5-5.2l6.1,11.8
			c0.7,1.1,2,1.6,3.1,1.1c12.1-5.1,22.9-12.1,31.5-20.7c1-1,1-2.5,0-3.4l-8.5-8.9c6.2-6.6,11.3-14.1,14.9-22L1115.9,661z
			 M1102,650.7c-0.7,0.3-1.1,0.7-1.3,1.3c-3.6,8.9-9.3,17.4-16.4,24.4c-1,1-1,2.5,0,3.4l8.5,8.9c-7.2,6.7-16.1,12.6-25.9,16.9
			l-5.9-11.8c-0.7-1.1-2-1.6-3.1-1.1c-8.7,3.6-19,5.6-30.2,5.7c-1.3,0-2.5,1.1-2.5,2.5v10c-10-0.3-18.2-1.8-25.6-4.6l4.8-10.2
			c0.3-0.7,0.3-1.3,0-2c-0.2-0.7-0.7-1.1-1.3-1.3c-9.3-3.8-17.5-9.3-24.6-16.4c-1-1-2.5-1-3.4,0l-8.9,8.9
			c-7.2-7.5-12.9-16.1-17-25.2l11.1-4.8c1.3-0.5,1.8-2,1.3-3.3c-4.6-10.8-6.6-20-6.7-28.8c0-0.7-0.3-1.3-0.7-1.8
			c-0.5-0.5-1.1-0.7-1.8-0.7l0,0l-15.6,0.2c0.5-10.3,4.4-20.5,8.2-29.8l13.9,5.1c1.3,0.5,2.6-0.2,3.1-1.3
			c3.8-9.2,9.3-17.5,16.2-24.6c1-1,1-2.5,0-3.4l-8.9-8.9c7.5-7.2,15.9-12.8,25.1-17l4.8,11.3c0.5,1.3,2,1.8,3.3,1.3
			c9.8-4.1,19.5-6.2,28.8-6.2c0.7,0,1.3-0.3,1.8-0.7c0.5-0.5,0.7-1.1,0.7-1.8l-0.2-11.5v-4.4c10.2,0.5,19.8,3.9,29.7,7.9l-4.9,13.8
			c-0.5,1.3,0.2,2.6,1.3,3.1c9.2,3.8,17.4,9.2,24.4,16.2c0.5,0.5,1.1,0.7,1.8,0.7l0,0c0.7,0,1.3-0.3,1.8-0.7l8.7-8.9
			c7,7.4,12.8,15.7,16.9,25.1l-11.5,4.8c-1.3,0.5-1.8,2-1.3,3.3c3.8,9.2,5.7,18.8,5.7,28.7c0,1.3,1.1,2.5,2.5,2.5h12.9
			c-0.3,9.8-2.5,19.8-6.4,30l-11.6-4.9C1103.3,650.6,1102.6,650.6,1102,650.7z"/>
		<path d="M1031.3,566.1c-31.6,0-57.2,25.7-57.2,57.2c0,31.6,25.7,57.2,57.2,57.2c31.5,0,57.2-25.7,57.2-57.2
			C1088.7,591.9,1063,566.1,1031.3,566.1z M1031.3,675.8c-28.8,0-52.3-23.4-52.3-52.3s23.4-52.3,52.3-52.3
			c28.8,0,52.3,23.4,52.3,52.3C1083.8,652.4,1060.2,675.8,1031.3,675.8z"/>
	</g>
	<g>
		<g>
			<path class="st1" d="M1228.2,543.9c-17.4,0-31.5,14.1-31.5,31.5s14.1,31.5,31.5,31.5s31.5-14.1,31.5-31.5
				C1259.6,557.9,1245.5,543.9,1228.2,543.9z"/>
			<path class="st6" d="M1273.2,591.4l6.4,2.6c2-5.6,3.3-11,3.4-16.4h-7c-1.3,0-2.5-1.1-2.5-2.5c0-6.1-1.1-12-3.6-17.4
				c-0.5-1.3,0-2.6,1.3-3.3l6.2-2.6c-2.3-5.1-5.4-9.7-9.2-13.8l-4.8,4.8c-1,1-2.5,1-3.4,0c-4.3-4.3-9.3-7.5-14.9-9.8
				c-1.1-0.5-1.8-1.8-1.3-3.1l2.8-7.7c-5.6-2.3-11-4.1-16.2-4.6v1.8v7.2c0,0.7-0.3,1.3-0.7,1.8c-0.5,0.5-1.1,0.7-1.8,0.7
				c-5.6,0-11.5,1.3-17.5,3.8c-1.3,0.5-2.6,0-3.3-1.3l-2.6-6.1c-4.9,2.3-9.5,5.4-13.8,9.3l4.8,4.8c1,1,1,2.5,0,3.4
				c-4.3,4.3-7.5,9.3-9.8,14.9c-0.5,1.1-2,1.8-3.1,1.3l-7.5-2.8c-2.1,5.2-3.9,10.7-4.4,16.2h8.4l0,0c0.7,0,1.3,0.3,1.8,0.7
				c0.5,0.5,0.7,1.1,0.7,1.8c0,5.4,1.3,11.1,3.9,17.5c0.5,1.3,0,2.6-1.3,3.3l-6.1,2.6c2.3,4.9,5.4,9.5,9.3,13.8l4.8-4.8
				c1-1,2.5-1,3.4,0c4.3,4.3,9.3,7.5,14.9,9.8c0.7,0.3,1.1,0.8,1.3,1.3c0.3,0.7,0.2,1.3,0,2l-2.6,5.6c3.6,1.3,7.7,2.1,12,2.5v-5.6
				c0-1.3,1.1-2.5,2.5-2.5c7.5-0.2,13.8-1.1,19.2-3.4c1.1-0.5,2.5,0,3.1,1.1l3.6,6.6c5.6-2.5,10.5-5.7,14.6-9.3l-4.6-4.8
				c-1-1-1-2.5,0-3.4c4.4-4.4,7.9-9.5,10-14.8c0.3-0.7,0.7-1.1,1.3-1.3C1272.1,591.1,1272.8,591.1,1273.2,591.4z M1228.2,611.7
				c-20,0-36.4-16.4-36.4-36.4c0-20,16.4-36.4,36.4-36.4c20,0,36.4,16.4,36.4,36.4C1264.6,595.3,1248.2,611.7,1228.2,611.7z"/>
		</g>
		<path d="M1280.1,599.4c0.7,0.3,1.3,0.3,1.8,0c0.7-0.3,1.1-0.7,1.3-1.3c3.1-7.7,4.8-15.4,4.8-22.9c0-1.3-1.1-2.5-2.5-2.5h-7.2
			c-0.3-5.1-1.3-9.8-3-14.6l6.4-2.6c0.7-0.3,1.1-0.7,1.3-1.3c0.3-0.7,0.2-1.3,0-1.8c-3.1-7.2-7.4-13.8-12.9-19.3c-1-1-2.5-1-3.4,0
			l-4.8,4.9c-3.8-3.4-7.9-6.1-12.5-8.2l2.8-7.9c0.5-1.3-0.2-2.6-1.3-3.1c-7.5-3.1-14.9-5.9-22.8-5.9c-1.3,0-2.5,1.1-2.5,2.5v4.4v4.8
			c-4.8,0.3-9.7,1.3-14.6,3.3l-2.6-6.2c-0.5-1.3-2-1.8-3.3-1.3c-7.2,3-13.6,7.4-19.3,13.1c-1,1-1,2.5,0,3.4l4.9,4.9
			c-3.4,3.8-6.2,8-8.4,12.6l-7.5-2.8c-1.3-0.5-2.6,0.2-3.1,1.3c-2.8,6.7-5.7,14.6-5.7,22.8c0,0.7,0.3,1.3,0.7,1.8
			c0.5,0.5,1.1,0.7,1.8,0.7h8.5c0.3,4.6,1.3,9.5,3.3,14.6l-6.1,2.6c-1.3,0.5-1.8,2-1.3,3.3c3,7.2,7.4,13.6,13.1,19.3
			c1,1,2.5,1,3.4,0l4.9-4.9c3.8,3.3,7.9,6.1,12.5,8.2l-2.6,5.7c-0.3,0.7-0.3,1.3,0,2c0.2,0.7,0.7,1.1,1.3,1.3
			c5.4,2.1,11.1,3.4,17.9,3.9c0.3,0.2,0.5,0.2,0.8,0.2h4.1c1.3,0,2.5-1.1,2.5-2.5s-1.1-2.5-2.5-2.5c-0.5,0-1.1,0-1.6,0V626
			c6.2-0.3,11.6-1.3,16.6-3l3.8,6.7c0.7,1.1,2,1.6,3.1,1.1c7.9-3.3,14.8-7.7,20-12.9c1-1,1-2.5,0-3.4l-4.6-4.8
			c3.4-3.8,6.4-8,8.5-12.5L1280.1,599.4z M1271.4,591.4c-0.7,0.3-1.1,0.7-1.3,1.3c-2.1,5.2-5.7,10.5-10,14.8c-1,1-1,2.5,0,3.4
			l4.6,4.8c-4.1,3.6-9,6.9-14.6,9.3l-3.6-6.6c-0.7-1.1-2-1.5-3.1-1.1c-5.4,2.3-11.6,3.4-19.2,3.4c-1.3,0-2.5,1.1-2.5,2.5v5.6
			c-4.4-0.3-8.4-1.1-12-2.5l2.6-5.6c0.3-0.7,0.3-1.3,0-2c-0.3-0.7-0.7-1.1-1.3-1.3c-5.6-2.3-10.7-5.6-14.9-9.8c-1-1-2.5-1-3.4,0
			l-4.8,4.8c-3.9-4.1-7-8.9-9.3-13.8l6.1-2.6c1.3-0.5,1.8-2,1.3-3.3c-2.6-6.4-3.9-12-3.9-17.5c0-0.7-0.3-1.3-0.7-1.8
			c-0.5-0.5-1.1-0.7-1.8-0.7l0,0h-8.4c0.5-5.6,2.3-11.1,4.4-16.2l7.5,2.8c1.3,0.5,2.6-0.2,3.1-1.3c2.3-5.6,5.6-10.7,9.8-14.9
			c1-1,1-2.5,0-3.4l-4.8-4.8c4.1-3.8,8.7-6.9,13.8-9.3l2.6,6.1c0.5,1.3,2,1.8,3.3,1.3c6.1-2.5,12-3.8,17.5-3.8
			c0.7,0,1.3-0.3,1.8-0.7c0.5-0.5,0.7-1.1,0.7-1.8v-7.2v-1.8c5.4,0.5,10.7,2.3,16.2,4.6l-2.8,7.7c-0.5,1.3,0.2,2.6,1.3,3.1
			c5.6,2.3,10.5,5.6,14.9,9.8c1,1,2.5,1,3.4,0l4.8-4.8c3.8,4.1,6.9,8.7,9.2,13.8l-6.2,2.6c-1.3,0.5-1.8,2-1.3,3.3
			c2.3,5.6,3.4,11.3,3.6,17.4c0,1.3,1.1,2.5,2.5,2.5h7c-0.3,5.4-1.5,10.8-3.4,16.4l-6.4-2.6C1272.8,591.1,1272.1,591.1,1271.4,591.4
			z"/>
		<path d="M1228.2,538.9c-20,0-36.4,16.4-36.4,36.4s16.4,36.4,36.4,36.4c20,0,36.4-16.4,36.4-36.4
			C1264.6,555.2,1248.2,538.9,1228.2,538.9z M1228.2,606.8c-17.4,0-31.5-14.1-31.5-31.5c0-17.4,14.1-31.5,31.5-31.5
			s31.5,14.1,31.5,31.5C1259.6,592.7,1245.5,606.8,1228.2,606.8z"/>
	</g>
	<path d="M964.8,299.3h-7.2c-0.3-5.1-1.3-9.8-3-14.6l6.4-2.6c1.3-0.5,1.8-2,1.3-3.3c-3.1-7.2-7.4-13.8-12.9-19.3c-1-1-2.5-1-3.4,0
		l-4.8,4.9c-3.8-3.3-7.9-6.1-12.5-8.2l2.6-6.2c0.3-0.7,0.3-1.3,0-2c-0.3-0.7-0.7-1.1-1.3-1.3c-7-3-14.8-4.4-22.8-4.4
		c-1.3,0-2.5,1.1-2.5,2.5v3v3.9c-5.1,0.2-10,1.1-14.6,2.8l-2.6-6.4c-0.3-0.7-0.7-1.1-1.3-1.3c-0.7-0.3-1.3-0.3-1.8,0
		c-7.2,3.1-13.8,7.4-19.3,12.9c-0.5,0.5-0.7,1.1-0.7,1.8s0.3,1.3,0.7,1.8l4.9,4.8c-3.4,3.8-6.2,8-8.4,12.6l-8.7-3
		c-1.3-0.5-2.6,0.2-3.1,1.3c-0.5,1-0.8,2.1-1.3,3.1c-2.6,6.2-5.4,12.6-5.4,19.7c0,0.7,0.3,1.3,0.7,1.8c0.5,0.5,1.1,0.7,1.8,0.7h9.5
		c0.3,5.1,2,10,3.8,14.6l-5.9,2.6c-1.1,0.5-1.8,2-1.3,3.1c3,7,7.4,13.4,13.3,19.3c1,1,2.5,1,3.4,0l4.9-4.9c3.8,3.3,8,6.2,12.5,8.4
		l-2.6,6.4c-0.5,1.3,0,2.6,1.3,3.3c5.7,2.3,11.5,3.8,17.2,4.4c0.3,0.2,0.7,0.3,1.1,0.3h2.5c0-0.2,0-0.3,0-0.7c0,0,0,0,0-0.2
		c0-0.3,0-0.8,0-1.1l0,0l0,0c0-0.2,0-0.3,0-0.5l0,0c0,0,0,0,0-0.2c0-0.2,0-0.2-0.2-0.3c0-0.3,0-0.5,0-0.8l0,0c0-0.5-0.2-1-0.2-1.6
		c0-0.2,0-0.3,0-0.5v-3.9c6.4-0.3,11.8-1.3,16.7-3l3.8,6.7c0.7,1.1,2,1.5,3.1,1c7.9-3.3,14.8-7.7,20-12.9c1-1,1-2.5,0-3.4l-4.6-4.8
		c3.4-3.8,6.4-8,8.5-12.5l6.4,2.6c1.3,0.5,2.6,0,3.3-1.3c3.1-7.7,4.8-15.4,4.8-22.9C967.2,300.4,966.1,299.3,964.8,299.3z
		 M958.7,320.6l-6.4-2.6c-0.7-0.3-1.3-0.3-1.8,0c-0.7,0.3-1.1,0.7-1.3,1.3c-2.1,5.2-5.7,10.5-10,14.8c-1,1-1,2.5,0,3.4l4.6,4.8
		c-4.1,3.6-9,6.9-14.6,9.3l-3.8-6.6c-0.7-1.1-2-1.5-3.1-1c-5.4,2.3-11.6,3.4-19.3,3.4c-1.3,0-2.5,1.1-2.5,2.5v6.7
		c-3.9-0.5-7.9-1.5-11.8-3l2.6-6.4c0.3-0.7,0.3-1.3,0-1.8c-0.3-0.7-0.7-1.1-1.3-1.3c-5.6-2.3-10.7-5.7-14.9-9.8c-1-1-2.5-1-3.4,0
		l-4.9,4.8c-3.9-4.3-7.2-8.9-9.5-13.8l5.7-2.6c1.1-0.5,1.8-2,1.3-3.1c-2.3-5.6-4.4-11.5-4.4-17.5c0-0.7-0.3-1.3-0.7-1.8
		c-0.5-0.5-1.1-0.8-1.8-0.7h-9.3c0.5-5.1,2.8-10.3,4.9-15.2c0.2-0.3,0.3-0.7,0.5-1.1l8.5,3c1.3,0.5,2.6-0.2,3.1-1.5
		c2.3-5.6,5.6-10.7,9.8-14.9c0.5-0.5,0.7-1.1,0.7-1.8c0-0.7-0.3-1.3-0.7-1.8l-4.8-4.8c4.1-3.8,8.7-6.9,13.8-9.2l2.6,6.2
		c0.3,0.7,0.7,1.1,1.3,1.3c0.7,0.3,1.3,0.3,1.8,0c5.4-2.3,11.3-3.4,17.5-3.4c0.7,0,1.3-0.3,1.8-0.7c0.5-0.5,0.7-1.1,0.7-1.8v-6.4
		v-0.3c5.6,0.2,11,1.3,16.2,3.1l-2.6,6.1c-0.3,0.7-0.3,1.3,0,2c0.3,0.7,0.7,1.1,1.3,1.3c5.6,2.3,10.5,5.6,14.9,9.8c1,1,2.5,1,3.4,0
		l4.8-4.8c3.8,4.1,6.9,8.7,9.2,13.8l-6.2,2.6c-1.3,0.5-1.8,2-1.3,3.3c2.3,5.6,3.4,11.3,3.6,17.4c0,1.3,1.1,2.5,2.5,2.5h7
		C962,309.6,960.8,315,958.7,320.6z"/>
	<path d="M907.2,338.3c20,0,36.4-16.4,36.4-36.4s-16.4-36.4-36.4-36.4c-20,0-36.4,16.4-36.4,36.4S887.1,338.3,907.2,338.3z
		 M907.2,270.5c17.4,0,31.5,14.1,31.5,31.5c0,17.4-14.1,31.5-31.5,31.5c-17.4,0-31.5-14.1-31.5-31.5S889.9,270.5,907.2,270.5z"/>
	<path d="M647.8,279.3c-1.3,0.5-2.8,0.8-4.1,1.5c-1.3,0.5-2.5,1-3.8,1.5c-0.2,0-0.2,0.2-0.3,0.2l-14.4,8.7c-0.5,0-1.1,0-1.6,0.3
		c-0.7,0.5-1.5,1-2.3,1.6l-6.2,4.8c-0.7,0.5-1,1.3-1,2.1c0.2,0.8,0.7,1.5,1.3,1.8l7.2,3.4c3.6,1.6,7,3.3,10.7,4.9
		c2.3,1,4.8,2.1,7,3.1c1.3,0.5,2.5,1.1,3.8,1.6l2.6,1.1c2.8,1.1,5.4,2.3,8.2,3.4c3,1.1,18,7.5,26.1,11.1c-7,5.7-10.7,15.6-9.2,26.1
		c2,13.8,12.5,24.1,24.4,24.1l0,0c1,0,2,0,3-0.2c12.9-2,21.6-15.6,19.3-30.7c-0.8-5.7-2.6-9.7-5.6-14.3
		c-2.8-5.2-18.2-13.8-49.7-27.4c-1.5-0.7-2.6-1.1-3-1.3c-2.6-1.3-5.2-2.5-7.7-3.6l-3-1.3c-1.3-0.5-2.5-1.1-3.8-1.6
		c-2.1-1-4.1-1.8-6.2-2.8c0.8-0.5,1.5-1,2.3-1.5c0.8-0.5,1.8-1.1,2.6-1.6l0.5-0.3c1-0.7,2.1-1.1,3.3-1.8c0.7-0.3,1.5-0.8,2.3-1.1
		l1.3-0.7c1-0.5,2.1-1,3.1-1.3c1.1-0.5,2.3-0.8,3.4-1.3c1.1-0.3,2.3-0.7,3.4-1c1.1-0.3,2.3-0.5,3.4-0.7c0.5-0.2,1-0.2,1.5-0.2h0.7
		c0.3,0,0.5,0,0.8,0h0.3c0.5,0,1.1,0,1.6,0l1.8,0.2l1.6,0.3c0.3,0,0.7,0.2,1,0.3c0.2,0,0.5,0.2,0.8,0.2c0.2,0,0.5,0.2,0.8,0.3
		c0.2,0.2,0.3,0.2,0.5,0.2l1.6,0.8c0.7,0.3,1.3,0.8,2.1,1.3c0.3,0.2,0.7,0.5,1,0.7c0.2,0.2,0.5,0.3,0.8,0.3c0.2,0,0.3,0,0.7,0
		c1.3,0,2.3-1,2.3-2.3c0-0.7-0.3-1.1-0.7-1.6c-0.8-1-1.6-2.1-2.6-3.1l-0.7-0.8l-0.2-0.2l-0.8-0.7c-0.2-0.2-0.3-0.2-0.5-0.3
		c-0.5-0.3-1-0.8-1.5-1c-0.2-0.2-0.3-0.2-0.7-0.3c-0.5-0.3-0.8-0.5-1.5-0.8l-0.5-0.2c-0.5-0.2-1-0.5-1.5-0.7h-0.2l-2.1-0.7
		c-0.5-0.2-1.1-0.3-1.8-0.5l-0.5-0.2c-0.7-0.2-1.3-0.3-1.8-0.3h-0.5c-0.8-0.2-1.6-0.2-2.3-0.2c-1.5-0.2-3,0-4.6,0l-2.3,0.2
		c-0.5,0-1,0.2-1.3,0.2l-0.8,0.2c-0.7,0-1.1,0.2-1.8,0.3l-0.5,0.2c-0.8,0.2-1.5,0.3-2.1,0.5c-1.5,0.3-2.8,0.8-4.1,1.1
		C647.9,279.3,647.8,279.3,647.8,279.3z M653.2,282.7c0.7-0.2,1.3-0.3,1.8-0.5l0.5-0.2c0.5-0.2,1-0.2,1.5-0.3l0.8-0.2
		c0.3,0,0.8-0.2,1.1-0.2l2-0.2c1.3,0,2.6-0.2,4.1,0c0.5,0,0.8,0,1.3,0.2c-0.5,0-0.8,0.2-1.3,0.2c-1.3,0.2-2.6,0.5-3.9,0.7
		c-1.1,0.3-2.5,0.7-3.8,1c-1.1,0.3-2.5,0.8-3.6,1.3s-2.3,1-3.3,1.5l-1.5,0.7c-0.8,0.3-1.6,0.8-2.3,1.1c-1.1,0.7-2.3,1.1-3.4,1.8
		l-0.5,0.3c-1,0.5-1.8,1.1-2.8,1.6c-1.8,1.1-3.6,2.3-5.9,3.9c-0.7,0.5-1.1,1.3-1,2.1c0.2,0.8,0.7,1.6,1.5,2c1,0.5,2.1,0.8,3.1,1.3
		c2.3,1,4.6,2,6.9,3.1c1.3,0.5,2.5,1.1,3.8,1.6l2.8,1.3c2.6,1.1,5.1,2.3,7.7,3.6c0.5,0.2,1.5,0.7,3.1,1.3
		c38.5,16.7,46.2,23.1,47.4,25.4c0,0,0,0.2,0.2,0.2c2.6,4.3,4.3,7.5,4.9,12.6c1.8,12.5-5.1,23.9-15.4,25.4c-0.8,0.2-1.6,0.2-2.3,0.2
		c-9.7,0-18.2-8.7-19.8-20c-1.5-10.3,2.8-19.8,10.5-23.8c0.8-0.3,1.3-1.3,1.3-2.1s-0.5-1.6-1.3-2.1c-5.4-2.5-26.6-11.3-30.2-12.8
		c-2.8-1.1-5.4-2.3-8-3.4l-2.6-1.1c-1.3-0.5-2.5-1.1-3.8-1.6c-2.3-1-4.6-2-6.9-3.1c-3.6-1.6-7-3.1-10.7-4.8l-3.8-1.8l3.1-2.3
		c0.3-0.3,0.7-0.5,1-0.7c0.5,0,0.8-0.2,1.3-0.3l15.6-9.3c1.1-0.5,2.3-1,3.4-1.5c1.3-0.5,2.6-1,3.9-1.3
		C650.6,283.4,651.7,283.1,653.2,282.7z"/>
	<path d="M729.4,206.7c1.6,11.5,12.6,19.7,26.1,19.7l0,0c1.5,0,3.1-0.2,4.8-0.3c5.7-0.8,9.7-2.6,14.3-5.6
		c5.2-2.8,13.8-18.2,27.4-49.7c0.7-1.5,1.1-2.5,1.3-3c1.3-2.6,2.5-5.2,3.6-7.7l1.3-3c0.5-1.3,1.1-2.5,1.6-3.8c1-2.1,1.8-4.1,2.8-6.2
		c0.5,0.8,1,1.5,1.5,2.3c0.5,0.8,1.1,1.8,1.6,2.6l0.3,0.5c0.7,1,1.1,2.1,1.8,3.3c0.3,0.7,0.8,1.5,1.1,2.3l0.7,1.3c0.5,1,1,2,1.3,3.1
		c0.5,1.1,0.8,2.3,1.3,3.4c0.3,1,0.7,2.1,1,3.4c0.3,1.1,0.5,2.3,0.7,3.3v0.2c0.2,0.5,0.2,1,0.2,1.5v0.5c0,0.3,0,0.7,0,1
		c0,0.3,0,0.7,0,0.8c0,0.3,0,0.5,0,0.8l-0.2,1.8l-0.3,1.6c0,0.3-0.2,0.7-0.3,1c0,0.2-0.2,0.5-0.2,0.8c0,0.2-0.2,0.5-0.3,0.8
		c-0.2,0.2-0.2,0.3-0.2,0.5l-0.8,1.6c-0.3,0.7-0.8,1.3-1.3,2c-0.2,0.3-0.5,0.7-0.7,1c-0.7,1-0.5,2.1,0.3,3c0.8,0.8,2.1,0.8,3.1,0.2
		c1.1-0.8,2.3-1.6,3.3-2.6l0.8-0.7l0.2-0.2l1-1.3c0.3-0.5,0.8-1,1-1.5c0.2-0.2,0.2-0.3,0.3-0.7c0.3-0.5,0.5-1,0.8-1.5l0.2-0.5
		c0.3-0.5,0.5-1,0.7-1.5v-0.2l0.7-2.1c0.2-0.7,0.3-1.1,0.5-1.8l0.2-0.5c0.2-0.7,0.3-1.3,0.3-2v-0.5c0.2-0.8,0.2-1.6,0.2-2.3
		c0.2-1.5,0-3,0-4.6l-0.2-2.3c0-0.5-0.2-1-0.2-1.3l-0.2-0.8c0-0.7-0.2-1.1-0.3-1.8l-0.2-0.5c-0.2-0.8-0.3-1.5-0.5-2.1
		c-0.3-1.5-0.8-2.8-1.1-4.1v-0.2c-0.5-1.3-0.8-2.8-1.5-4.1c-0.5-1.3-1-2.5-1.5-3.8c0-0.2-0.2-0.2-0.2-0.3l-8.7-14.4
		c0-0.5,0-1.1-0.3-1.6c-0.5-0.7-1-1.5-1.6-2.3l-4.8-6.2c-0.5-0.7-1.3-1-2.1-1c-0.8,0.2-1.5,0.7-1.8,1.3l-3.4,7.2
		c-1.6,3.6-3.3,7-4.9,10.7c-1,2.3-2.1,4.6-3.1,7c-0.5,1.3-1.1,2.5-1.6,3.8l-1.1,2.6c-1.1,2.8-2.3,5.4-3.4,8.2
		c-1.1,3-7.5,18-11.1,26.1c-4.8-5.9-12.5-9.5-21.1-9.5c-1.6,0-3.3,0.2-4.9,0.3C738.1,181.6,727.4,193.9,729.4,206.7z M753.8,183.9
		c1.5-0.2,2.8-0.3,4.3-0.3c8.7,0,16.1,4.1,19.5,10.8c0.3,0.8,1.3,1.3,2.1,1.3c0.8,0,1.6-0.5,2.1-1.3c2.5-5.4,11.3-26.6,12.8-30.2
		c1.1-2.8,2.3-5.4,3.4-8.2l1.1-2.6c0.5-1.3,1.1-2.5,1.6-3.8c1-2.3,2-4.6,3.1-6.9c1.6-3.6,3.1-7,4.8-10.7l1.8-3.8l2.3,3.1
		c0.3,0.3,0.5,0.7,0.7,1c0,0.5,0.2,0.8,0.3,1.3l9.3,15.6c0.5,1.1,1,2.3,1.5,3.4c0.5,1.3,1,2.6,1.3,3.9c0.3,1.3,0.8,2.5,1.1,3.9
		c0.2,0.7,0.3,1.3,0.5,1.8l0.2,0.5c0.2,0.5,0.2,1,0.3,1.5l0.2,0.8c0,0.3,0.2,0.8,0.2,1.1l0.2,2c0,1.5,0.2,2.8,0,4.1
		c0,0.5,0,0.8-0.2,1.3c0-0.5-0.2-0.8-0.2-1.3c-0.2-1.3-0.3-2.5-0.7-3.8v-0.2c-0.3-1.1-0.7-2.3-1-3.6c-0.3-1.1-0.8-2.5-1.3-3.6
		c-0.5-1.1-1-2.3-1.5-3.3l-0.7-1.5c-0.3-0.8-0.8-1.6-1.1-2.3c-0.7-1.1-1.1-2.3-1.8-3.4l-0.3-0.5c-0.5-1-1.1-1.8-1.6-2.8
		c-1.1-1.8-2.3-3.6-3.9-5.9c-0.5-0.7-1.3-1.1-2.1-1c-0.8,0.2-1.6,0.7-2,1.5l-1.3,3.1c-1,2.3-2,4.6-3.1,6.9c-0.5,1.3-1.1,2.5-1.6,3.8
		l-1.3,2.8c-1.1,2.6-2.3,5.1-3.6,7.7c-0.2,0.5-0.7,1.5-1.3,3.1c-16.9,38.5-23.1,46.2-25.4,47.4c0,0-0.2,0-0.2,0.2
		c-4.3,2.6-7.5,4.3-12.6,4.9c-1.3,0.2-2.6,0.3-3.9,0.3l0,0c-11,0-20-6.6-21.5-15.7C732.3,195.7,741.4,185.7,753.8,183.9z"/>
	<path d="M965.6,382.6c0.2,1,1,1.6,2.1,1.8l59.8,5.2l10.3,42v0.2c0,0,0,0.2,0.2,0.2c0,0.2,0.2,0.3,0.3,0.5c0,0,0,0,0,0.2l0,0
		l0.2,0.2c0.2,0.2,0.2,0.2,0.3,0.2c0,0,0.2,0,0.2,0.2c0.2,0,0.3,0.2,0.5,0.2c0,0,0,0,0.2,0l0,0c0.2,0,0.3,0,0.5,0l0,0l0,0l0,0
		c0.2,0,0.3,0,0.7-0.2h0.2c0.2,0,0.3-0.2,0.5-0.2l0,0l29-20L1137,434c0.2,0,0.5,0.2,0.7,0.2c1,0,1.8-0.5,2.1-1.5l83.8-208.7l0,0
		c0-0.2,0-0.2,0-0.3c0-0.2,0-0.2,0-0.3v-0.2c0-0.2,0-0.2,0-0.3c0-0.2,0-0.2,0-0.3v-0.2c0-0.2-0.2-0.2-0.2-0.3l0,0c0,0,0-0.2-0.2-0.2
		l0,0c0,0,0-0.2-0.2-0.2c0,0,0,0,0-0.2l-0.2-0.2l-0.2-0.2l0,0h-0.2c-0.2,0-0.2-0.2-0.3-0.2c-0.2,0-0.2,0-0.3-0.2h-0.2
		c-0.2,0-0.3,0-0.3,0h-0.2l0,0h-0.2c-0.2,0-0.2,0-0.3,0.2c-0.2,0-0.2,0-0.3,0.2l0,0L967.2,380.1
		C965.8,380.4,965.4,381.6,965.6,382.6z M1041.3,426l-9.3-37.7l82.1-70.3l84.4-72.3l-151,173.3L1041.3,426z M1140.2,319.6
		l-71.8,88.8l-14.4,10L1140.2,319.6z M1136.2,429l-62.3-19.8l139.3-172.6L1136.2,429z M1195.9,241.8L1028.5,385l-53.6-4.8
		L1195.9,241.8z"/>
	<path d="M451.7,498.1c-20.3-2.8-24.4-11.6-24.4-11.8c-0.5-1-1.5-1.6-2.6-1.5c-1.1,0.2-1.8,1.1-1.8,2.3c0,0.5,1.1,48.5,38,48.5l0,0
		c0.8,0,1.8,0,2.6,0l24.8,26.9c0.5,0.5,1,1.1,1.6,1.1l0,0l0,0c12.1,12.8,27.2,26.7,41.1,38.7c12.8,10.8,55.7,45.9,74.7,45.9l0,0
		c3.3,0,5.7-1,7.5-3.1c2.6-3.1,2.5-7.7-0.3-13.6c-11.1-23.4-65.9-68.2-104.7-92.1c-0.2-0.3-0.5-0.7-0.8-1l-33.1-18.4
		C473,512.4,468,500.3,451.7,498.1z M462.1,530.9c0,0,0,0.2-0.2,0.2c-0.3,0-0.7,0-1,0l0,0c-24.8,0-31.1-24.8-32.8-37.2
		c4.1,3.3,11.1,6.9,22.9,8.7c13.8,2,17.7,12.1,19,18.4L462.1,530.9z M609.1,633.3c1.3,2.8,2.6,6.6,0.8,8.7c-0.8,1-2,1.3-3.9,1.3l0,0
		c-11.5,0-39-17.2-71.8-44.9c-15.6-13.1-29.8-26.6-40.8-38.4l13.4-16.7C544.7,567.1,598.6,611.1,609.1,633.3z M503,541.1L489.9,557
		L467,532.2l6.2-7.7L503,541.1z"/>
	<path d="M648.3,538.9c0.5,0.3,1,0.5,1.5,0.5c0.2,0,0.3,0,0.5,0c0.7-0.2,1.3-0.7,1.6-1.3c1-2.3,22.9-54.7,15.6-83.9
		c-4.1-16.7-19-28.4-36.2-28.4c-3,0-6.1,0.3-9,1.1c-9.7,2.5-17.9,8.4-22.9,16.9c-5.1,8.5-6.6,18.5-4.3,28.2
		C602,499.6,646.5,537.3,648.3,538.9z M603.4,446.3c4.4-7.5,11.6-12.8,20.2-14.9c2.6-0.7,5.2-1,7.9-1c15.1,0,28,10.2,31.6,24.8
		c5.9,23.9-9.7,66.4-14.3,78c-9.5-8.4-43.6-39.8-49.2-62.3C597.6,462.6,598.9,453.7,603.4,446.3z"/>
	<path d="M652.9,476c3.4-5.7,4.4-12.5,2.8-19c-2.8-11.1-12.8-19-24.4-19c-2,0-4.1,0.3-6.1,0.8c-13.4,3.3-21.6,17-18.4,30.5
		c2.8,11.1,12.8,19,24.4,19c2,0,4.1-0.3,6.1-0.8C644,485.8,649.4,481.9,652.9,476z M631.4,483.5c-9.3,0-17.5-6.4-19.8-15.6
		c-2.8-11,3.9-22.1,14.9-24.8c1.6-0.3,3.3-0.7,4.9-0.7c9.3,0,17.5,6.4,19.8,15.6c1.3,5.2,0.5,10.8-2.3,15.4s-7.2,8-12.6,9.3
		C634.7,483.4,633,483.5,631.4,483.5z"/>
	<path d="M1211.6,411.9c0,0.7,0.5,1.5,1.1,1.8c0.3,0.2,0.8,0.3,1.1,0.3s0.7,0,0.8-0.2c2.3-1,54.9-22.5,70.5-48.4
		c10.7-17.5,4.9-40.6-12.8-51.1c-5.7-3.4-12.5-5.4-19.2-5.4c-13.3,0-25.2,6.7-32,18C1206.7,351.4,1211.5,409.4,1211.6,411.9z
		 M1253.4,313.7c5.9,0,11.6,1.6,16.7,4.8c15.4,9.3,20.5,29.3,11.1,44.7c-12.6,21.1-53.8,40.2-65.2,45.1c-0.8-12.6-2.6-58.8,9.3-78.8
		C1231.3,319.6,1241.8,313.7,1253.4,313.7z"/>
	<path d="M1240.5,367.8c3.9,2.3,8.4,3.6,12.9,3.6c8.7,0,17-4.6,21.5-12.1c3.4-5.7,4.4-12.5,2.8-19c-1.6-6.6-5.7-12-11.5-15.4
		c-3.9-2.3-8.4-3.6-12.9-3.6c-8.7,0-17,4.6-21.5,12.1C1224.7,345.2,1228.5,360.8,1240.5,367.8z M1235.9,335.9
		c3.8-6.2,10.3-9.8,17.5-9.8c3.8,0,7.4,1,10.5,3c4.8,2.8,8,7.2,9.3,12.6c1.3,5.2,0.5,10.8-2.3,15.4c-3.8,6.2-10.3,9.8-17.5,9.8
		c-3.8,0-7.4-1-10.5-3C1233.1,358,1230,345.5,1235.9,335.9z"/>
	<path d="M360.8,366.2h70.8l34.3,29.8c0.5,0.3,1,0.5,1.5,0.5c0.3,0,0.7,0,1-0.2c0.8-0.3,1.3-1.1,1.3-2.1l0.2-28h2.6
		c9.3,0,16.9-7.5,16.9-16.9v-84.6c0-9.3-7.5-16.9-16.9-16.9H360.8c-9.3,0-16.9,7.5-16.9,16.9v84.6
		C343.9,358.6,351.4,366.2,360.8,366.2z M348.5,264.7c0-6.7,5.6-12.3,12.3-12.3h111.6c6.7,0,12.3,5.6,12.3,12.3v84.6
		c0,6.7-5.6,12.3-12.3,12.3h-4.9c-1.3,0-2.3,1-2.3,2.3l-0.2,25.2l-31-27c-0.5-0.3-1-0.5-1.5-0.5h-71.8c-6.7,0-12.3-5.6-12.3-12.3
		L348.5,264.7L348.5,264.7z"/>
	<path d="M385.4,313.7c6.6,0,11.8-5.2,11.8-11.8c0-6.6-5.2-11.8-11.8-11.8c-6.6,0-11.8,5.2-11.8,11.8
		C373.5,308.5,378.8,313.7,385.4,313.7z M385.4,294.9c3.9,0,7,3.1,7,7c0,3.9-3.1,7-7,7c-3.9,0-7-3.1-7-7
		C378.1,298,381.4,294.9,385.4,294.9z"/>
	<path d="M417.1,313.7c6.6,0,11.8-5.2,11.8-11.8c0-6.6-5.2-11.8-11.8-11.8c-6.6,0-11.8,5.2-11.8,11.8
		C405.3,308.5,410.8,313.7,417.1,313.7z M417.1,294.9c3.9,0,7,3.1,7,7c0,3.9-3.1,7-7,7s-7-3.1-7-7
		C410.1,298,413.2,294.9,417.1,294.9z"/>
	<path d="M447.8,313.7c6.6,0,11.8-5.2,11.8-11.8c0-6.6-5.2-11.8-11.8-11.8c-6.6,0-11.8,5.2-11.8,11.8
		C436,308.5,441.4,313.7,447.8,313.7z M447.8,294.9c3.9,0,7,3.1,7,7c0,3.9-3.1,7-7,7c-3.9,0-7-3.1-7-7
		C440.8,298,443.9,294.9,447.8,294.9z"/>
	<path d="M495.7,185.5l5.6,4.8c2.1,1.8,4.8,2.8,7.7,2.8c4.9,0,9.8-2.5,13.4-6.7l42.1-49.5c1-1.3,1.3-3,0.7-4.3
		c0-0.2,0.2-0.2,0.2-0.3l0.3-0.3c1.8-2.1,2-4.9,0.2-6.7l-0.2-0.2l-2.6-2.1l1.3-1.5l21.1,22.1c0,0,4.3,5.1,4.8,10.2
		c0.5,5.6,0.3,10.2,0.3,10.2v0.2c0,3.3,1,6.7,2.8,9.7c1.1,1.8,2.5,3.4,4.3,4.8c7.4,7.2,16.9,11.3,26.1,11.3l0,0
		c4.8,0,9.3-1.1,13.3-3.4c0.7-0.3,1.1-1.1,1.1-2s-0.3-1.5-1-2L619.7,170c-1.3-1-2-2.8-1.3-3.9l5.9-9.8c0.3-0.7,1.1-0.8,1.5-0.8
		c0.7,0,1.3,0.2,2,0.7l17.4,12.5c0.7,0.5,1.6,0.5,2.3,0.2c0.7-0.3,1.3-1.1,1.3-2c0.8-9.8-3.3-20.7-11-28.7c-1.8-2-3.9-3.8-6.1-5.2
		c-1.3-1-2.8-2-4.4-2.6c-1.5-0.7-3.1-1.1-4.9-1.5h-0.7c-0.8,0-1.5-0.2-2.1-0.2c-3.6-0.2-6.4-0.5-7.9-0.8c-2.6-0.5-6.2-2.1-7.4-2.6
		l-21.5-22.5c-0.2-0.2-0.2-0.3-0.3-0.5l-1-1l29-34.1c4.3,0,8.2-2.3,10.8-5.9l9.2-14.6c0.7-1,0.5-2.3-0.5-3l-10.2-8.7
		c-0.8-0.8-2.1-0.7-3.1,0l-12.6,11.8c-3.3,3.1-4.9,7.4-4.3,11.5l-28,32.9l-11.1-11.8c0,0-4.3-5.1-4.8-10.2
		c-0.5-5.6-0.3-10.2-0.3-10.2v-0.2c0-3.3-1-6.7-2.8-9.7c-1.1-1.8-2.5-3.4-4.3-4.8c-7.4-7.2-16.9-11.5-26.1-11.5
		c-4.8,0-9.3,1.1-13.3,3.4c-0.7,0.3-1.1,1.1-1.1,2c0,0.8,0.3,1.5,1,2l17.4,12.5c1.3,1,2,2.8,1.3,3.9l-5.9,9.8
		c-0.3,0.7-1.1,0.8-1.5,0.8c-0.7,0-1.3-0.2-2-0.7l-17.4-12.5c-0.7-0.5-1.6-0.5-2.3-0.2c-0.8,0.3-1.3,1.1-1.3,2
		c-0.8,9.8,3.3,20.7,11,28.7c1.8,2,3.9,3.8,5.9,5.2l0,0c1.3,1,2.8,2,4.4,2.6c1.5,0.7,3.1,1.1,4.9,1.5h0.7c0.8,0,1.5,0.2,2.3,0.2
		c3.6,0.2,6.4,0.5,7.9,0.8c2.6,0.5,6.2,2.1,7.4,2.6l12.9,13.4l-2.3,2.6l-2.8-2.5c-0.8-0.7-2-1.1-3.1-1.1c-1.5,0-3,0.7-4.1,2
		l-0.5,0.7l-0.2,0.2c-1.3-0.2-2.6,0.3-3.6,1.3l-42.1,49.8C490.3,171,490.1,180.8,495.7,185.5z M578.6,105.2c0.2,0.2,0.2,0.3,0.3,0.5
		l22.1,23.1c0.2,0.2,0.5,0.3,0.7,0.5c0.2,0.2,5.2,2.5,9,3.1c2.3,0.3,5.9,0.7,8.5,0.8c0.2,0,0.2,0,0.3,0h0.3c0.5,0,1,0,1.5,0.2h0.7
		c1.3,0.2,2.5,0.5,3.6,1c1.3,0.5,2.5,1.3,3.3,2c0,0,0.2,0.2,0.3,0.2c2,1.3,3.8,3,5.4,4.8c5.7,6.1,9.2,13.6,9.8,20.8l-13.8-9.8
		c-1.5-1-3-1.5-4.6-1.5c-2.3,0-4.3,1.1-5.4,3l-5.9,9.8c-2,3.3-0.8,7.7,2.6,10.2l14.1,10.2c-2.3,0.8-4.9,1.1-7.5,1.1l0,0
		c-8,0-16.2-3.6-22.8-10.2l-0.2-0.2l0,0c-1.3-1.1-2.5-2.3-3.3-3.8c-1.5-2.3-2.1-4.9-2.1-7.2v-0.2c0-0.8,0-5.2-0.3-10.5
		c-0.5-6.6-5.6-12.5-5.9-12.8l-21.5-22.5c0,0,0,0,0-0.2l11-12.8L578.6,105.2z M604.2,60.6c0.5-0.7,0.7-1.3,0.5-2.1
		c-0.8-2.8,0.2-5.9,2.6-8l11.1-10.3l7,5.9l-8,12.8c-1.8,2.6-4.8,4.1-7.7,3.8c-0.8,0-1.5,0.2-2,0.8l-48.2,56.4l-3.4-3L604.2,60.6z
		 M545,94.2c-0.2-0.2-0.5-0.3-0.7-0.5c-0.2-0.2-5.2-2.5-9-3.3c-2.3-0.3-5.9-0.7-8.5-0.8c-0.2,0-0.2,0-0.2,0h-0.3c-0.5,0-1,0-1.5-0.2
		h-0.5c-1.3-0.2-2.5-0.5-3.6-1c-1.3-0.5-2.3-1.3-3.3-2l0,0l-0.2-0.2c-2-1.3-3.8-3-5.4-4.8c-5.7-6.1-9.2-13.6-9.8-20.8l13.8,9.8
		c1.5,1,3,1.5,4.6,1.5c2.3,0,4.3-1.1,5.4-3l6.1-9.8c2-3.3,0.8-7.7-2.6-10.2L515.2,39c2.3-0.8,4.9-1.1,7.5-1.1
		c8,0,16.4,3.8,22.8,10.2l0.2,0.2c1.3,1.1,2.5,2.3,3.3,3.8c1.5,2.3,2.1,4.9,2.1,7.2v0.2c0,1,0,5.2,0.3,10.5
		c0.5,6.6,5.6,12.5,5.9,12.8l11.6,12.3l-11,12.8L545,94.2z M499.8,167l41.6-48.8l0,0c1,0.8,2.3,0.7,3.1-0.2c0.2-0.2,0.3-0.3,0.3-0.5
		c0.2-0.2,0.3-0.5,0.3-0.8v-0.2v-0.2c0,0,0,0,0-0.2V116c0,0,0-0.2,0.2-0.2l0,0c0,0,0-0.2,0.2-0.2l0.3-0.5c0.3-0.3,0.5-0.3,0.7-0.3
		l4.6,3.9c0.2,0.2,0.2,0.2,0.3,0.2l6.4,5.6l0.2,0.2l4.1,3.6c0,0.2-0.2,0.3-0.3,0.5l-0.5,0.7c-0.2,0.2-0.2,0.3-0.3,0.3l0,0l-0.2,0.2
		l0,0c-0.2,0-0.2,0.2-0.3,0.2c0,0-0.2,0-0.2,0.2c-0.3,0.2-0.7,0.7-1,1c-0.5,1-0.2,2.1,0.7,2.8l0.2,0.2l-41.6,49
		c-2.6,3.1-6.4,5.1-9.8,5.1c-1.8,0-3.4-0.5-4.8-1.6l-5.1-4.6C495,179,495.5,171.9,499.8,167z"/>
	<path d="M1066.9,155.1c41.1,0,74.4-33.4,74.4-74.4c0-41.1-33.4-74.4-74.4-74.4s-74.4,33.4-74.4,74.4
		C992.5,121.8,1025.9,155.1,1066.9,155.1z M1066.9,10.8c38.5,0,69.8,31.3,69.8,69.8s-31.3,69.8-69.8,69.8
		c-38.5,0-69.8-31.3-69.8-69.8S1028.4,10.8,1066.9,10.8z"/>
	<path d="M1066.9,144.6c35.2,0,63.9-28.7,63.9-63.8c0-35.2-28.7-63.9-63.9-63.9c-35.2,0-63.8,28.7-63.8,63.9
		C1003.1,115.9,1031.6,144.6,1066.9,144.6z M1066.9,21.5c32.6,0,59.2,26.6,59.2,59.2s-26.6,59.2-59.2,59.2
		c-32.6,0-59.2-26.6-59.2-59.2S1034.3,21.5,1066.9,21.5z"/>
	<path d="M1031,111.8c0.3,0,0.8-0.2,1.1-0.3l40.8-22.6c0.3-0.2,0.7-0.5,1-1l30.5-34.6c0.8-0.8,0.8-2.1,0-3c-0.8-0.8-2-1.1-3-0.7
		l-40.6,22.6c-0.3,0.2-0.7,0.5-1,1l-30.5,34.6c-0.8,0.8-0.8,2.1,0,3C1029.7,111.5,1030.3,111.8,1031,111.8z M1067.1,78.7
		c1.1,0,2,0.8,2,2c0,1-0.8,2-2,2c-1,0-2-0.8-2-2S1065.9,78.7,1067.1,78.7z M1092.1,60.3l-18.7,21.1c0-0.3,0.2-0.5,0.2-0.8
		c0-3.4-2.8-6.4-6.2-6.6l0,0L1092.1,60.3z M1060.5,79.7c0,0.3,0,0.7,0,1c0,3.1,2.3,5.7,5.2,6.4c0.2,0,0.2,0,0.3,0s0.5,0.2,0.7,0.2
		l-24.9,13.8L1060.5,79.7z"/>
	<path d="M1129.2,530.1c1.3,0,2.3-1,2.3-2.3v-27.2h27.2c1.3,0,2.3-1,2.3-2.3c0-1.3-1-2.3-2.3-2.3h-27.2v-27.2c0-1.3-1-2.3-2.3-2.3
		c-1.3,0-2.3,1-2.3,2.3V496h-27.2c-1.3,0-2.3,1-2.3,2.3c0,1.3,1,2.3,2.3,2.3h27.2v27.2C1126.9,529.1,1127.9,530.1,1129.2,530.1z"/>
	<path d="M1032,1017.7c1.3,0,2.3-1,2.3-2.3v-27.2h27.2c1.3,0,2.3-1,2.3-2.3c0-1.3-1-2.3-2.3-2.3h-27.2v-27.2c0-1.3-1-2.3-2.3-2.3
		c-1.3,0-2.3,1-2.3,2.3v27.2h-27.2c-1.3,0-2.3,1-2.3,2.3c0,1.3,1,2.3,2.3,2.3h27.2v27.2C1029.7,1016.6,1030.7,1017.7,1032,1017.7z"
		/>
	<path d="M562.4,859c1.3,0,2.3-1,2.3-2.3v-27.2h27.2c1.3,0,2.3-1,2.3-2.3c0-1.3-1-2.3-2.3-2.3h-27.2v-27.2c0-1.3-1-2.3-2.3-2.3
		c-1.3,0-2.3,1-2.3,2.3V825h-27.2c-1.3,0-2.3,1-2.3,2.3c0,1.3,1,2.3,2.3,2.3h27.2v27.2C560.1,857.9,561.1,859,562.4,859z"/>
	<path d="M884.1,155.1h27.2v27.2c0,1.3,1,2.3,2.3,2.3c1.3,0,2.3-1,2.3-2.3v-27.2h27.2c1.3,0,2.3-1,2.3-2.3c0-1.3-1-2.3-2.3-2.3
		h-27.2v-27.2c0-1.3-1-2.3-2.3-2.3c-1.3,0-2.3,1-2.3,2.3v27.2h-27.2c-1.3,0-2.3,1-2.3,2.3C881.8,154.1,882.8,155.1,884.1,155.1z"/>
	<path d="M387,154.1h27.2v27.2c0,1.3,1,2.3,2.3,2.3s2.3-1,2.3-2.3v-27.2H446c1.3,0,2.3-1,2.3-2.3c0-1.3-1-2.3-2.3-2.3h-27.2v-27.2
		c0-1.3-1-2.3-2.3-2.3s-2.3,1-2.3,2.3v27H387c-1.3,0-2.3,1-2.3,2.3C384.7,152.9,385.7,154.1,387,154.1z"/>
	<path d="M1094.6,194.4c-1.3,0-2.3,1-2.3,2.3v27.2h-27.2c-1.3,0-2.3,1-2.3,2.3c0,1.3,1,2.3,2.3,2.3h27.2v27.2c0,1.3,1,2.3,2.3,2.3
		c1.3,0,2.3-1,2.3-2.3v-27.2h27.2c1.3,0,2.3-1,2.3-2.3c0-1.3-1-2.3-2.3-2.3h-27.2v-27.2C1096.9,195.5,1095.9,194.4,1094.6,194.4z"/>
	<path d="M687.3,82.9h27.2v27.2c0,1.3,1,2.3,2.3,2.3s2.3-1,2.3-2.3V82.9h27.2c1.3,0,2.3-1,2.3-2.3c0-1.3-1-2.3-2.3-2.3h-27.2V51
		c0-1.3-1-2.3-2.3-2.3s-2.3,1-2.3,2.3v27.2h-27.2c-1.3,0-2.3,1-2.3,2.3C685,82,686,82.9,687.3,82.9z"/>
	<path d="M549.6,330.9v27.2h-27.2c-1.3,0-2.3,1-2.3,2.3s1,2.3,2.3,2.3h27.2v27.2c0,1.3,1,2.3,2.3,2.3c1.3,0,2.3-1,2.3-2.3v-27.2
		h27.2c1.3,0,2.3-1,2.3-2.3s-1-2.3-2.3-2.3h-27.2v-27.2c0-1.3-1-2.3-2.3-2.3S549.6,329.6,549.6,330.9z"/>
	<path d="M311.9,421.7v27.2h-27.2c-1.3,0-2.3,1-2.3,2.3s1,2.3,2.3,2.3h27.2v27.2c0,1.3,1,2.3,2.3,2.3s2.3-1,2.3-2.3v-27.2h27.2
		c1.3,0,2.3-1,2.3-2.3s-1-2.3-2.3-2.3h-27.2v-27.2c0-1.3-1-2.3-2.3-2.3C312.9,419.4,311.9,420.4,311.9,421.7z"/>
	<path d="M763.8,337.2c1.3,0,2.3-1,2.3-2.3v-27.2h27.2c1.3,0,2.3-1,2.3-2.3c0-1.3-1-2.3-2.3-2.3h-27.2v-27.2c0-1.3-1-2.3-2.3-2.3
		c-1.3,0-2.3,1-2.3,2.3v27.2h-27.2c-1.3,0-2.3,1-2.3,2.3s1,2.3,2.3,2.3h27.2v27.2C761.5,336.2,762.5,337.2,763.8,337.2z"/>
	<path d="M862.3,89c9,0,16.2-7.4,16.2-16.2c0-9-7.4-16.2-16.2-16.2c-9,0-16.2,7.4-16.2,16.2C845.9,81.6,853.3,89,862.3,89z
		 M862.3,62.3c5.7,0,10.3,4.6,10.3,10.3c0,5.7-4.6,10.3-10.3,10.3c-5.7,0-10.3-4.6-10.3-10.3C852,67,856.6,62.3,862.3,62.3z"/>
	<path d="M811.7,375.4c9,0,16.2-7.4,16.2-16.2c0-9-7.4-16.2-16.2-16.2c-9,0-16.2,7.4-16.2,16.2C795.5,368.1,802.8,375.4,811.7,375.4
		z M811.7,348.8c5.7,0,10.3,4.6,10.3,10.3c0,5.7-4.6,10.3-10.3,10.3c-5.7,0-10.3-4.6-10.3-10.3C801.4,353.4,805.9,348.8,811.7,348.8
		z"/>
	<path d="M1005.4,239.3c9,0,16.2-7.4,16.2-16.2c0-9-7.4-16.2-16.2-16.2c-8.9,0-16.2,7.4-16.2,16.2
		C989.2,232.1,996.4,239.3,1005.4,239.3z M1005.4,212.8c5.7,0,10.3,4.6,10.3,10.3s-4.6,10.3-10.3,10.3c-5.7,0-10.3-4.6-10.3-10.3
		S999.7,212.8,1005.4,212.8z"/>
	<path d="M568.1,266.5c9,0,16.2-7.4,16.2-16.2c0-8.9-7.4-16.2-16.2-16.2c-9,0-16.2,7.4-16.2,16.2
		C551.9,259.1,559.1,266.5,568.1,266.5z M568.1,239.8c5.7,0,10.3,4.6,10.3,10.3s-4.6,10.3-10.3,10.3s-10.3-4.6-10.3-10.3
		S562.4,239.8,568.1,239.8z"/>
	<path d="M503.7,451.2c0,9,7.4,16.2,16.2,16.2c9,0,16.2-7.4,16.2-16.2s-7.4-16.2-16.2-16.2C510.9,435,503.7,442.4,503.7,451.2z
		 M530.2,451.2c0,5.7-4.6,10.3-10.3,10.3s-10.3-4.6-10.3-10.3c0-5.7,4.6-10.3,10.3-10.3C525.7,440.9,530.2,445.7,530.2,451.2z"/>
	<path d="M298,239.3c9,0,16.2-7.4,16.2-16.2c0-9-7.4-16.2-16.2-16.2c-9,0-16.2,7.4-16.2,16.2C281.6,232.1,289,239.3,298,239.3z
		 M298,212.8c5.7,0,10.3,4.6,10.3,10.3s-4.6,10.3-10.3,10.3c-5.7,0-10.3-4.6-10.3-10.3S292.3,212.8,298,212.8z"/>
	<path d="M941.3,403.1c-9,0-16.2,7.4-16.2,16.2c0,9,7.4,16.2,16.2,16.2c9,0,16.2-7.4,16.2-16.2S950.3,403.1,941.3,403.1z
		 M941.3,429.8c-5.7,0-10.3-4.6-10.3-10.3c0-5.7,4.6-10.3,10.3-10.3s10.3,4.6,10.3,10.3C951.7,425.2,947.1,429.8,941.3,429.8z"/>
	<path d="M1188.3,168c9,0,16.2-7.4,16.2-16.2c0-9-7.4-16.2-16.2-16.2s-16.2,7.4-16.2,16.2S1179.3,168,1188.3,168z M1188.3,141.3
		c5.7,0,10.3,4.6,10.3,10.3s-4.6,10.3-10.3,10.3s-10.3-4.6-10.3-10.3C1178,146,1182.6,141.3,1188.3,141.3z"/>
	<path d="M1266,461.9c0,9,7.4,16.2,16.2,16.2c9,0,16.2-7.4,16.2-16.2s-7.4-16.2-16.2-16.2C1273.2,445.7,1266,453,1266,461.9z
		 M1292.6,461.9c0,5.7-4.6,10.3-10.3,10.3s-10.3-4.6-10.3-10.3c0-5.7,4.6-10.3,10.3-10.3C1288,451.6,1292.6,456.3,1292.6,461.9z"/>
	<path d="M610.6,1002c0,9,7.4,16.2,16.2,16.2c9,0,16.2-7.4,16.2-16.2c0-8.9-7.4-16.2-16.2-16.2S610.6,993,610.6,1002z M637.3,1002
		c0,5.7-4.6,10.3-10.3,10.3c-5.7,0-10.3-4.6-10.3-10.3c0-5.7,4.6-10.3,10.3-10.3C632.5,991.7,637.3,996.2,637.3,1002z"/>
	<path d="M1046.4,827.7c0,9,7.4,16.2,16.2,16.2c9,0,16.2-7.4,16.2-16.2s-7.4-16.2-16.2-16.2C1053.6,811.4,1046.4,818.7,1046.4,827.7
		z M1073,827.7c0,5.7-4.6,10.3-10.3,10.3s-10.3-4.6-10.3-10.3s4.6-10.3,10.3-10.3C1068.4,817.3,1073,822,1073,827.7z"/>
	<path d="M1693.5,1410.4h-589.7c-0.2-12.1-1.6-69.7-20-131.1c-12.1-40.5-29-74.7-50.3-101.6c-26.7-33.8-60.5-56.4-100.1-66.9
		c-0.2,0-0.3,0-0.7,0h-42.1h-25.7v-19c0-0.8-0.5-1.6-1.1-2c-0.7-0.3-1.6-0.5-2.3,0l-8.4,4.8v-25.2c8.2-2.8,16.7-6.7,25.2-12
		c37.2-23.4,56.2-64.4,56.2-121.6v-7c23.9-4.4,41.6-25.6,41.6-50.2c0-23.6-16.4-44.1-38.8-49.5c2.8-24.6,6.4-64.9,6.4-101.5
		c0-22-53.1-36.2-111.3-39.5c1.1-2.3,1.8-4.8,2.1-7.4h16.1c5.6,0,10.2-4.6,10.2-10.2c0-4.8-3.3-8.7-7.5-9.8v-5.4
		c4.4-1.1,7.5-5.1,7.5-9.8s-3.3-8.7-7.5-9.8v-5.4c4.4-1.1,7.5-5.1,7.5-9.8c0-1.5-0.3-2.8-0.8-4.1c1.5-3.6,2.3-8.7,3-14.1
		c0.7-4.3,1.3-9.2,2.5-14.3c1.1-5.6,5.9-12.1,11.3-19.8c11.1-15.7,26.2-36.9,26.2-68.5c5.4-0.7,10.2-1.3,14.6-2
		c1.3-0.2,2.1-1.3,2-2.6c-0.2-1.3-1.3-2.1-2.6-2c-4.3,0.7-8.9,1.1-14.1,1.8c0-0.8-0.2-1.8-0.2-2.6c-4.6-65.4-61.1-82.6-90.3-82.6
		c-29.7,0-86.9,17.2-90.3,82.8c-2,35.9,14.3,59,26.1,75.9c5.4,7.7,10,14.3,11.3,20c1.1,5.1,1.8,10,2.5,14.3c0.8,5.6,1.5,10.5,3,14.1
		c-0.5,1.3-0.8,2.6-0.8,4.1c0,4.4,2.8,8,6.7,9.5v6.1c-3.9,1.5-6.7,5.1-6.7,9.5c0,4.4,2.8,8,6.7,9.5v6.1c-3.9,1.5-6.7,5.1-6.7,9.5
		c0,5.6,4.6,10.2,10.2,10.2h15.1c0.3,2.5,1,4.8,2,7c-15.7,0.5-31.1,2-45.6,4.1c0,0,0,0-0.2-0.2c-1-0.8-2.5-0.8-3.3,0.2
		c-0.2,0.2-0.2,0.3-0.2,0.5c-40.2,6.4-70.8,18.5-70.8,35.2l0,0c0,36.6,3.8,76.9,6.4,101.5c-22.5,5.4-38.8,25.9-38.8,49.5
		c0,24.4,17.7,45.7,41.6,50.2v7c0,57.2,18.8,98,56.2,121.6c8.4,5.2,17,9.2,25.2,12v25.2l-8.4-4.8c-0.7-0.3-1.6-0.3-2.3,0
		c-0.7,0.3-1.1,1.1-1.1,2v18.8h-25.7H682c-0.2,0-0.3,0-0.7,0c-39.7,10.5-73.4,32.9-100.1,66.9c-21.3,27-38.2,61.1-50.3,101.6
		c-18.4,61.5-19.8,119.2-19.8,131.1H2.3c-1.3,0-2.3,1-2.3,2.3c0,1.3,1,2.3,2.3,2.3h510.9h91h34.1h338h34.1h91h592.2
		c1.3,0,2.3-1,2.3-2.3C1695.8,1411.6,1694.8,1410.4,1693.5,1410.4z M930,850l-3.6,1.8c-0.2-34.9-5.4-78.3-8.4-100.5
		c9.3-3.8,16.4-8,20.8-12.8C937.9,788.2,931.2,841.3,930,850z M759.6,707.4c0.8,0,1.5-0.3,2-1.1c0.7-1,0.5-2.3-0.5-3
		c13.9-1.5,29.5-2.3,46.2-2.3c69.5,0,117.9,13.9,117.9,26.4c0,12.5-48.4,26.4-117.9,26.4s-117.9-13.9-117.9-26.4
		c0-9,24.8-18.5,64.4-23.4c1.5,1,3,2,4.4,3C758.7,707.3,759.2,707.4,759.6,707.4z M811.7,696.5c-9.2,0-16.9-6.9-18-15.9h36.1
		C828.6,689.4,821,696.5,811.7,696.5z M775.1,655.5h73.3v4.8h-73.3V655.5z M775.1,630.4h73.3v4.8h-73.3V630.4z M766.3,601.4
		c-0.7-4.4-1.3-9.3-2.5-14.6c-1.5-6.6-6.4-13.4-12-21.6c-11.5-16.4-27-38.7-25.2-72.9c3.3-62,57.5-78.3,85.7-78.3
		c27.7,0,81.3,16.4,85.7,78.3c2.5,34.3-13.6,56.5-25.2,72.9c-5.7,8-10.7,15.1-12.1,21.5c-1.1,5.2-1.8,10.3-2.5,14.6
		c-0.7,4.6-1.1,8-1.8,10.5c-1.6-1.1-3.6-1.8-5.7-1.8h-23.6l16.6-84.4c0.2-1-0.2-1.8-0.8-2.5c-0.7-0.7-1.6-0.7-2.6-0.3l-16.6,7.4
		l-10.3-7.2c-0.8-0.7-2-0.7-2.8,0l-10.7,7.5l-15.1-7.7c-0.8-0.5-1.8-0.3-2.6,0.2c-0.8,0.5-1.1,1.5-1,2.5l16.6,84.4H774
		c-2.1,0-4.1,0.7-5.7,1.8C767.4,609.4,766.8,606,766.3,601.4z M821.8,610.1h-19.2l-15.7-80.3l11.8,6.1c0.8,0.5,1.8,0.3,2.6-0.2
		l10.5-7.4l10,7c0.7,0.5,1.6,0.7,2.5,0.2l13.4-6.1L821.8,610.1z M768.4,620.2c0-3,2.5-5.6,5.6-5.6h76.7c3,0,5.6,2.5,5.6,5.6
		c0,3-2.5,5.6-5.6,5.6H774C770.9,625.8,768.4,623.3,768.4,620.2z M768.4,645.3c0-3,2.5-5.6,5.6-5.6h76.7c3,0,5.6,2.5,5.6,5.6
		c0,3-2.5,5.6-5.6,5.6H774C770.9,650.9,768.4,648.4,768.4,645.3z M768.4,670.4c0-3,2.5-5.6,5.6-5.6h76.7c3,0,5.6,2.5,5.6,5.6
		c0,3-2.5,5.6-5.6,5.6h-18.4h-41H774C770.9,676,768.4,673.5,768.4,670.4z M793.6,692c1.3,1.6,2.8,3.1,4.4,4.4
		c-14.6,0.3-29.3,1.1-42.9,2.8c-1.8-1.3-3.4-2.5-5.1-3.8C763.3,693.7,777.9,692.5,793.6,692z M743.8,696.5c1.5,1.3,3,2.5,4.6,3.8
		c-35.9,4.8-63.6,14.1-63.6,27.4c0,20.2,63.1,31,122.4,31s122.4-10.8,122.4-31c0-18.2-51.1-28.8-104.7-30.7c1.6-1.3,3.3-2.6,4.6-4.3
		c66.2,3.1,109.3,19.5,109.3,35.1c0,17.2-52.9,35.6-131.6,35.6S675.6,745,675.6,727.8C675.6,715.5,701.5,702.8,743.8,696.5z
		 M675.8,738.4c4.4,4.8,11.6,9.2,20.8,12.8c-3,22.3-8.4,65.7-8.4,100.5l-3.6-1.8C683.5,841.3,676.6,788.2,675.8,738.4z
		 M738.7,1053.1c-35.9-22.6-53.9-62.1-53.9-117.7v-9c0-1.1-0.8-2.1-2-2.3c-22.6-3.3-39.7-22.9-39.7-45.9c0-21.1,14.6-39.7,34.7-44.9
		c1.3,11.1,2.3,18.2,2.3,18.4c0.2,0.8,0.7,1.5,1.3,1.8l8,3.9c0.3,0.2,0.7,0.2,1,0.2l0,0c1.3,0,2.3-1,2.3-2.3c0-0.2,0-0.3,0-0.5
		c-0.3-34.6,5.1-79,8.2-102.1c26.4,9.5,66.7,14.8,106.2,14.8c39.5,0,79.8-5.2,106.2-14.8c3.1,23.3,8.5,67.9,8.2,102.6
		c0,0.8,0.3,1.5,1.1,2c0.3,0.2,0.8,0.3,1.3,0.3c0.3,0,0.7,0,1-0.2l8-3.9c0.7-0.3,1.1-1,1.3-1.8c0-0.2,1-7.2,2.3-18.4
		c20.2,5.2,34.7,23.6,34.7,44.9c0,22.9-17,42.6-39.7,45.9c-1.1,0.2-2,1.1-2,2.3v9c0,55.4-18.2,95.1-54.1,117.7
		c-27.9,17.5-57.9,19-66.4,19l0,0c-1.3,0-2,0-2.1,0c0,0,0,0-0.2,0c0,0,0,0-0.2,0c0,0-0.8,0-2.1,0
		C796.6,1072.1,766.8,1070.8,738.7,1053.1z M766.1,1070.7c17.9,5.6,33.1,6.1,39,6.1c1.1,0,2,0,2.1,0c0.3,0,1,0,2.1,0l0,0
		c5.7,0,21-0.7,39-6.1v26.4l-21.5,12.1c-2.6-4.3-7.2-7-12.5-7H800c-5.1,0-9.8,2.8-12.5,7l-21.5-12.1L766.1,1070.7L766.1,1070.7z
		 M754.3,1095.7l33.3,18.7c0.7,0.3,1.3,0.3,2,0.2c0.7-0.2,1.1-0.8,1.3-1.5c1.3-3.9,5.1-6.6,9.2-6.6h14.4c4.1,0,7.9,2.6,9.2,6.6
		c0.2,0.7,0.7,1.1,1.3,1.5c0.7,0.3,1.3,0.2,2-0.2l33.3-18.7v54.4l-33.3-18.7c-0.7-0.3-1.3-0.3-2-0.2c-0.7,0.2-1.1,0.8-1.3,1.5
		c-1.3,3.9-5.1,6.6-9.2,6.6H800c-4.1,0-7.9-2.6-9.2-6.6c-0.2-0.7-0.7-1.1-1.3-1.5c-0.7-0.2-1.3-0.2-2,0.2l-33.3,18.7V1095.7z
		 M749.7,1115.2v38.8c0,0.8,0.5,1.6,1.1,2c0.3,0.2,0.8,0.3,1.1,0.3s0.8-0.2,1.1-0.3l34.6-19.5c2.6,4.3,7.2,7,12.5,7h14.4
		c5.1,0,9.8-2.8,12.5-7l34.6,19.5c0.7,0.3,1.6,0.3,2.3,0s1.1-1.1,1.1-2v-38.8h22l-79.8,171.6l-79.7-171.4h22.1V1115.2z
		 M606.6,1410.4c0.5-72.8,20.8-107.5,29.5-119.2v119.2H606.6z M978.5,1410.4v-119.2c8.7,11.6,29,46.6,29.5,119.2H978.5z
		 M1012.8,1410.4c-0.5-94.4-33.4-125.9-34.9-127.2c-0.7-0.7-1.6-0.8-2.5-0.5c-0.8,0.3-1.3,1.1-1.3,2.1v125.6H640.7v-125.6
		c0-1-0.5-1.8-1.3-2.1c-0.8-0.3-1.8-0.2-2.5,0.5c-1.5,1.3-34.4,32.8-34.9,127.2h-86.4c0.2-12,1.6-69.2,19.8-130
		c18.7-62.4,59.3-141.9,146.9-165.2h40.3l82.6,178c0.3,0.7,0.8,1.1,1.6,1.3c0.2,0,0.3,0,0.5,0c1.1,0,2-0.7,2.3-1.6l82.4-177.7h40.3
		c87.5,23.3,128.2,102.8,146.9,165.2c18.2,60.8,19.7,118,19.8,130L1012.8,1410.4L1012.8,1410.4z"/>
	<path d="M1546.8,1439.5h-366.3c-1.3,0-2.3,1-2.3,2.3c0,1.3,1,2.3,2.3,2.3h366.3c1.3,0,2.3-1,2.3-2.3
		C1549.1,1440.4,1548.1,1439.5,1546.8,1439.5z"/>
	<path d="M1073.8,1441.7c0-1.3-1-2.3-2.3-2.3H90.8c-1.3,0-2.3,1-2.3,2.3c0,1.3,1,2.3,2.3,2.3h980.7
		C1072.8,1444,1073.8,1443.1,1073.8,1441.7z"/>
	<path d="M1341.1,1469.1H360.4c-1.3,0-2.3,1-2.3,2.3c0,1.3,1,2.3,2.3,2.3h980.7c1.3,0,2.3-1,2.3-2.3
		C1343.4,1470.1,1342.4,1469.1,1341.1,1469.1z"/>
</g>
</svg>
