<?xml version="1.0" encoding="utf-8"?>
<!-- Generator: Adobe Illustrator 21.0.0, SVG Export Plug-In . SVG Version: 6.00 Build 0)  -->
<svg version="1.2" baseProfile="tiny" id="Layer_1" xmlns="http://www.w3.org/2000/svg" xmlns:xlink="http://www.w3.org/1999/xlink"
	 x="0px" y="0px" viewBox="0 0 56 32.4" xml:space="preserve">
<rect x="30.6" y="21.1" fill-rule="evenodd" fill="#8F8F8F" width="4" height="10.5"/>
<g>
	<rect x="33" y="21.8" fill-rule="evenodd" fill="#87786E" width="1.1" height="0.3"/>
	<rect x="33" y="22.8" fill-rule="evenodd" fill="#87786E" width="1.1" height="0.3"/>
	<rect x="33" y="23.9" fill-rule="evenodd" fill="#87786E" width="1.1" height="0.3"/>
	<rect x="33" y="25" fill-rule="evenodd" fill="#87786E" width="1.1" height="0.3"/>
	<rect x="33" y="26" fill-rule="evenodd" fill="#87786E" width="1.1" height="0.3"/>
	<rect x="33" y="27.1" fill-rule="evenodd" fill="#87786E" width="1.1" height="0.3"/>
	<rect x="33" y="28.2" fill-rule="evenodd" fill="#87786E" width="1.1" height="0.3"/>
	<rect x="33" y="29.3" fill-rule="evenodd" fill="#87786E" width="1.1" height="0.3"/>
	<rect x="31.3" y="21.8" fill-rule="evenodd" fill="#87786E" width="1.1" height="0.3"/>
	<rect x="31.3" y="22.8" fill-rule="evenodd" fill="#87786E" width="1.1" height="0.3"/>
	<rect x="31.3" y="23.9" fill-rule="evenodd" fill="#87786E" width="1.1" height="0.3"/>
	<rect x="31.3" y="25" fill-rule="evenodd" fill="#87786E" width="1.1" height="0.3"/>
	<rect x="31.3" y="26" fill-rule="evenodd" fill="#87786E" width="1.1" height="0.3"/>
	<rect x="31.3" y="27.1" fill-rule="evenodd" fill="#87786E" width="1.1" height="0.3"/>
	<rect x="31.3" y="28.2" fill-rule="evenodd" fill="#87786E" width="1.1" height="0.3"/>
	<rect x="31.3" y="29.3" fill-rule="evenodd" fill="#87786E" width="1.1" height="0.3"/>
</g>
<path fill-rule="evenodd" fill="#BFB293" d="M46.5,11.8c-0.4-0.3-0.9-0.2-1.3,0.1c-0.4,0.3-0.5,0.8-0.3,1.3c3.5,0.1,7.1,0.1,10.6,0
	c0.3-0.1,0.5-0.4,0.4-0.8c0-0.3-0.2-0.6-0.5-0.7c-0.3-0.1-0.6-0.1-0.9,0.1c-0.1-0.5-0.4-0.9-0.9-1.1c-0.5-0.2-1-0.1-1.4,0.2
	c-0.6-1.3-1.9-2-3.3-1.8C47.6,9.3,46.6,10.4,46.5,11.8z"/>
<path fill-rule="evenodd" fill="#BFB293" d="M17.9,2.8c-0.4-0.3-0.9-0.2-1.3,0.1c-0.4,0.3-0.5,0.8-0.3,1.3c3.5,0.1,7.1,0.1,10.6,0
	c0.3-0.1,0.5-0.4,0.4-0.8c0-0.3-0.2-0.6-0.5-0.7c-0.3-0.1-0.6-0.1-0.9,0.1c-0.1-0.5-0.4-0.9-0.9-1.1c-0.5-0.2-1-0.1-1.4,0.2
	c-0.6-1.3-1.9-2-3.3-1.8C19,0.3,18,1.4,17.9,2.8z"/>
<rect x="41.6" y="22.9" fill-rule="evenodd" fill="#ACACAE" width="5" height="8.7"/>
<rect x="42.1" y="21.3" fill-rule="evenodd" fill="#596D90" width="4" height="1.7"/>
<rect x="42.5" y="21.3" fill-rule="evenodd" fill="#ACACAE" width="3.3" height="1.7"/>
<circle fill-rule="evenodd" fill="#596D90" cx="44.1" cy="22.1" r="0.2"/>
<g>
	<circle fill-rule="evenodd" fill="#596D90" cx="45" cy="22.1" r="0.2"/>
	<circle fill-rule="evenodd" fill="#596D90" cx="43.2" cy="22.1" r="0.2"/>
</g>
<path fill-rule="evenodd" fill="#BFB293" d="M41.2,4.6h9.7c0.1,0,0.2,0.1,0.2,0.2v0c0,0.1-0.1,0.2-0.2,0.2h-9.7
	c-0.1,0-0.2-0.1-0.2-0.2v0C41,4.7,41.1,4.6,41.2,4.6z"/>
<path fill-rule="evenodd" fill="#BFB293" d="M40.2,4.6h-0.9c-0.1,0-0.2,0.1-0.2,0.2v0c0,0.1,0.1,0.2,0.2,0.2h0.9
	c0.1,0,0.2-0.1,0.2-0.2v0C40.3,4.7,40.3,4.6,40.2,4.6z"/>
<path fill-rule="evenodd" fill="#BFB293" d="M52.8,4.6h-0.9c-0.1,0-0.2,0.1-0.2,0.2v0c0,0.1,0.1,0.2,0.2,0.2h0.9
	c0.1,0,0.2-0.1,0.2-0.2v0C52.9,4.7,52.9,4.6,52.8,4.6z"/>
<path fill-rule="evenodd" fill="#BFB293" d="M7.7,5h9.7c0.1,0,0.2,0.1,0.2,0.2l0,0c0,0.1-0.1,0.2-0.2,0.2H7.7
	c-0.1,0-0.2-0.1-0.2-0.2l0,0C7.6,5.1,7.6,5,7.7,5z"/>
<path fill-rule="evenodd" fill="#BFB293" d="M7,5H6.2C6.1,5,6,5.1,6,5.2l0,0c0,0.1,0.1,0.2,0.2,0.2H7c0.1,0,0.2-0.1,0.2-0.2l0,0
	C7.1,5.1,7.1,5,7,5z"/>
<path fill-rule="evenodd" fill="#BFB293" d="M47.6,15.5h-5.4c-0.1,0-0.2,0.1-0.2,0.2v0c0,0.1,0.1,0.2,0.2,0.2h5.4
	c0.1,0,0.2-0.1,0.2-0.2v0C47.8,15.6,47.7,15.5,47.6,15.5z"/>
<path fill-rule="evenodd" fill="#BFB293" d="M49,15.5h0.8c0.1,0,0.2,0.1,0.2,0.2v0c0,0.1-0.1,0.2-0.2,0.2H49c-0.1,0-0.2-0.1-0.2-0.2
	v0C48.8,15.6,48.9,15.5,49,15.5z"/>
<rect x="41.4" y="23.5" fill-rule="evenodd" fill="#596D90" width="5.4" height="0.2"/>
<rect x="41.4" y="24.2" fill-rule="evenodd" fill="#596D90" width="5.4" height="0.2"/>
<rect x="41.4" y="25" fill-rule="evenodd" fill="#596D90" width="5.4" height="0.2"/>
<rect x="41.4" y="25.7" fill-rule="evenodd" fill="#596D90" width="5.4" height="0.2"/>
<rect x="41.4" y="26.5" fill-rule="evenodd" fill="#596D90" width="5.4" height="0.2"/>
<rect x="41.4" y="27.2" fill-rule="evenodd" fill="#596D90" width="5.4" height="0.2"/>
<rect x="41.4" y="28" fill-rule="evenodd" fill="#596D90" width="5.4" height="0.2"/>
<rect x="41.4" y="28.7" fill-rule="evenodd" fill="#596D90" width="5.4" height="0.2"/>
<rect x="41.4" y="29.4" fill-rule="evenodd" fill="#596D90" width="5.4" height="0.2"/>
<rect x="41.4" y="30.2" fill-rule="evenodd" fill="#596D90" width="5.4" height="0.2"/>
<rect x="41.4" y="30.9" fill-rule="evenodd" fill="#596D90" width="5.4" height="0.2"/>
<g>
	<rect x="34.2" y="28.2" fill-rule="evenodd" fill="#838FA7" width="7.5" height="3.5"/>
	<rect x="34.2" y="27.9" fill-rule="evenodd" fill="#5A6E8F" width="7.5" height="0.3"/>
	<rect x="34.7" y="28.7" fill-rule="evenodd" fill="#5A6E8F" width="0.2" height="2.9"/>
	<g>
		<rect x="36.9" y="28.6" fill-rule="evenodd" fill="#5A6E8F" width="1" height="0.2"/>
		<rect x="38.6" y="28.6" fill-rule="evenodd" fill="#5A6E8F" width="1" height="0.2"/>
		<rect x="40.2" y="28.6" fill-rule="evenodd" fill="#5A6E8F" width="1" height="0.2"/>
	</g>
	<g>
		<rect x="35.4" y="29.3" fill-rule="evenodd" fill="#5A6E8F" width="1" height="0.2"/>
		<rect x="36.9" y="29.3" fill-rule="evenodd" fill="#5A6E8F" width="1" height="0.2"/>
		<rect x="38.6" y="29.3" fill-rule="evenodd" fill="#5A6E8F" width="1" height="0.2"/>
		<rect x="40.2" y="29.3" fill-rule="evenodd" fill="#5A6E8F" width="1" height="0.2"/>
	</g>
	<g>
		<rect x="35.4" y="29.9" fill-rule="evenodd" fill="#5A6E8F" width="1" height="0.2"/>
		<rect x="36.9" y="29.9" fill-rule="evenodd" fill="#5A6E8F" width="1" height="0.2"/>
		<rect x="38.6" y="29.9" fill-rule="evenodd" fill="#5A6E8F" width="1" height="0.2"/>
		<rect x="40.2" y="29.9" fill-rule="evenodd" fill="#5A6E8F" width="1" height="0.2"/>
	</g>
	<g>
		<rect x="35.4" y="30.6" fill-rule="evenodd" fill="#5A6E8F" width="1" height="0.2"/>
		<rect x="36.9" y="30.6" fill-rule="evenodd" fill="#5A6E8F" width="1" height="0.2"/>
		<rect x="38.6" y="30.6" fill-rule="evenodd" fill="#5A6E8F" width="1" height="0.2"/>
		<rect x="40.2" y="30.6" fill-rule="evenodd" fill="#5A6E8F" width="1" height="0.2"/>
	</g>
	<g>
		<rect x="35.4" y="31.2" fill-rule="evenodd" fill="#5A6E8F" width="1" height="0.2"/>
		<rect x="36.9" y="31.2" fill-rule="evenodd" fill="#5A6E8F" width="1" height="0.2"/>
		<rect x="38.6" y="31.2" fill-rule="evenodd" fill="#5A6E8F" width="1" height="0.2"/>
		<rect x="40.2" y="31.2" fill-rule="evenodd" fill="#5A6E8F" width="1" height="0.2"/>
	</g>
	<rect x="36.9" y="13.2" fill-rule="evenodd" fill="#C0C4CD" width="2.9" height="14.7"/>
	<rect x="37.6" y="13.2" fill-rule="evenodd" fill="#A3ABB6" width="0.6" height="14.7"/>
	<rect x="38.2" y="11.6" fill-rule="evenodd" fill="#A3ABB6" width="0.2" height="1.6"/>
	<polygon fill-rule="evenodd" fill="#96AAC2" points="36.9,23.2 35.7,23.2 36.9,19.5 	"/>
	<rect x="35.7" y="23.2" fill-rule="evenodd" fill="#96AAC2" width="1.2" height="4.7"/>
	<g>
		<rect x="36.4" y="23.2" fill-rule="evenodd" fill="#596D90" width="0.2" height="4.7"/>
		<rect x="36" y="23.2" fill-rule="evenodd" fill="#596D90" width="0.2" height="4.7"/>
	</g>
</g>
<g>
	<path fill-rule="evenodd" fill="#5D6977" d="M7.3,14.1c1.2-0.3,2.4-0.5,3.7-0.4c1.2,0,2.5,0.1,3.7,0.4c-2,5.9-2.6,11.8,0,17.9H11
		H7.3C9.9,26,9.3,20,7.3,14.1z"/>
	<path fill-rule="evenodd" fill="#415161" d="M7.5,14.8c2.3-0.7,4.7-0.7,6.9,0c0,0,0,0,0,0c0.1-0.2,0.1-0.5,0.2-0.7
		c-1.2-0.3-2.4-0.5-3.7-0.4c-1.2,0-2.5,0.1-3.7,0.4C7.4,14.4,7.5,14.6,7.5,14.8z"/>
	<path fill-rule="evenodd" fill="#5D6977" d="M12.4,13H9.6v0.7c0.5,0,0.9-0.1,1.4,0c0.5,0,0.9,0,1.4,0V13z"/>
</g>
<g>
	<path fill="none" d="M10.8,22.9c-0.5-0.2-1.1-0.5-1.7-0.7c-0.1,0-0.1,0.1-0.2,0.1c0,0.5,0,0.9,0,1.4c0,0,0,0,0.1,0
		C9.7,23.5,10.2,23.2,10.8,22.9z"/>
	<path fill="none" d="M8.4,28.9c-0.1,0.2-0.1,0.4-0.2,0.6c0.2-0.2,0.5-0.3,0.7-0.5C8.7,29,8.6,28.9,8.4,28.9z"/>
	<path fill="none" d="M11.2,31.5c0.4,0.2,0.7,0.4,1,0.5h2.5c0,0,0,0,0,0c-0.6-0.4-1.2-0.8-1.8-1.2C12.3,31,11.8,31.3,11.2,31.5z"/>
	<path fill="none" d="M8.7,27.3c0,0.1,0,0.1,0,0.2c0.1-0.1,0.2-0.1,0.2-0.2C8.9,27.3,8.8,27.3,8.7,27.3z"/>
	<path fill="none" d="M7.9,30.5c-0.1,0.4-0.3,0.9-0.5,1.3c0.5-0.3,1-0.7,1.5-1C8.6,30.7,8.3,30.6,7.9,30.5z"/>
	<path fill="none" d="M10.8,29.8c-0.5-0.2-1.1-0.5-1.7-0.7c-0.3,0.2-0.7,0.4-1,0.6C8.1,29.9,8,30.1,8,30.3c0.4,0.1,0.8,0.2,1.1,0.4
		C9.7,30.4,10.2,30.1,10.8,29.8z"/>
	<path fill="none" d="M10.8,21.2c-0.5-0.2-1.1-0.5-1.7-0.7c-0.1,0.1-0.2,0.1-0.3,0.2C8.9,21.2,9,21.6,9,22c0,0,0.1,0,0.1,0
		C9.7,21.8,10.2,21.5,10.8,21.2z"/>
	<path fill="none" d="M10.8,26.3c-0.5-0.2-1.1-0.5-1.7-0.7c-0.1,0-0.2,0.1-0.2,0.2c0,0.4-0.1,0.9-0.2,1.3c0.1,0,0.2,0.1,0.4,0.1
		C9.7,26.9,10.2,26.6,10.8,26.3z"/>
	<path fill="none" d="M10.8,19.5c-0.5-0.2-1.1-0.5-1.7-0.7C9,18.9,8.8,19,8.6,19.1c0.1,0.4,0.1,0.7,0.2,1.1c0.1,0,0.2,0.1,0.3,0.1
		C9.7,20,10.2,19.7,10.8,19.5z"/>
	<path fill="none" d="M8.8,20.4C8.8,20.5,8.8,20.5,8.8,20.4c0,0.1,0.1,0.1,0.1,0C8.9,20.4,8.9,20.4,8.8,20.4z"/>
	<path fill="none" d="M10.8,24.6c-0.5-0.2-1.1-0.5-1.7-0.7C9.1,24,9.1,24,9,24c0,0.5,0,0.9-0.1,1.4c0,0,0.1,0,0.1,0
		C9.7,25.2,10.2,24.9,10.8,24.6z"/>
	<path fill="none" d="M9.1,30.8c-0.6,0.4-1.2,0.8-1.8,1.2c0,0,0,0,0,0h2.5c0.3-0.2,0.7-0.4,1-0.5C10.3,31.3,9.7,31,9.1,30.8z"/>
	<path fill="none" d="M12.7,17c-0.6-0.3-1.1-0.6-1.7-0.9c-0.6,0.3-1.2,0.6-1.7,0.9c0.6,0.2,1.2,0.4,1.7,0.7
		C11.6,17.4,12.1,17.2,12.7,17z"/>
	<path fill="none" d="M12.7,25.6c-0.6-0.3-1.1-0.6-1.7-0.9c-0.6,0.3-1.2,0.6-1.7,0.9c0.6,0.2,1.2,0.4,1.7,0.7
		C11.6,26,12.1,25.8,12.7,25.6z"/>
	<path fill="none" d="M12.7,15.3c-0.6-0.3-1.1-0.6-1.7-0.9c-0.6,0.3-1.2,0.6-1.7,0.9c0.6,0.2,1.2,0.4,1.7,0.7
		C11.6,15.7,12.1,15.5,12.7,15.3z"/>
	<path fill="none" d="M12.7,27.3c-0.6-0.3-1.1-0.6-1.7-0.9c-0.6,0.3-1.2,0.6-1.7,0.9c0.6,0.2,1.2,0.4,1.7,0.7
		C11.6,27.7,12.1,27.5,12.7,27.3z"/>
	<path fill="none" d="M12.7,30.7c-0.6-0.3-1.1-0.6-1.7-0.9c-0.6,0.3-1.2,0.6-1.7,0.9c0.6,0.2,1.2,0.4,1.7,0.7
		C11.6,31.2,12.1,31,12.7,30.7z"/>
	<path fill="none" d="M11,31.6c-0.3,0.1-0.6,0.3-0.9,0.4H11h0.9C11.6,31.9,11.3,31.7,11,31.6z"/>
	<path fill="none" d="M12.7,29c-0.6-0.3-1.1-0.6-1.7-0.9c-0.6,0.3-1.2,0.6-1.7,0.9c0.6,0.2,1.2,0.4,1.7,0.7
		C11.6,29.5,12.1,29.2,12.7,29z"/>
	<path fill="none" d="M12.7,23.9c-0.6-0.3-1.1-0.6-1.7-0.9c-0.6,0.3-1.2,0.6-1.7,0.9c0.6,0.2,1.2,0.4,1.7,0.7
		C11.6,24.3,12.1,24.1,12.7,23.9z"/>
	<path fill="none" d="M8.5,18.6c0,0.1,0,0.2,0.1,0.3c0.1-0.1,0.2-0.2,0.3-0.2C8.8,18.7,8.7,18.7,8.5,18.6z"/>
	<path fill="none" d="M12.7,18.7c-0.6-0.3-1.1-0.6-1.7-0.9c-0.6,0.3-1.2,0.6-1.7,0.9c0.6,0.2,1.2,0.4,1.7,0.7
		C11.6,19.1,12.1,18.9,12.7,18.7z"/>
	<path fill="none" d="M12.7,22.1c-0.6-0.3-1.1-0.6-1.7-0.9c-0.6,0.3-1.2,0.6-1.7,0.9c0.6,0.2,1.2,0.4,1.7,0.7
		C11.6,22.6,12.1,22.4,12.7,22.1z"/>
	<path fill="none" d="M12.7,20.4c-0.6-0.3-1.1-0.6-1.7-0.9c-0.6,0.3-1.2,0.6-1.7,0.9c0.6,0.2,1.2,0.4,1.7,0.7
		C11.6,20.9,12.1,20.6,12.7,20.4z"/>
	<path fill="none" d="M10.8,28.1c-0.5-0.2-1.1-0.5-1.7-0.7c-0.2,0.1-0.3,0.2-0.5,0.3c-0.1,0.3-0.1,0.7-0.2,1
		c0.2,0.1,0.5,0.1,0.7,0.2C9.7,28.6,10.2,28.3,10.8,28.1z"/>
	<path fill="none" d="M11.2,22.9c0.6,0.3,1.2,0.6,1.7,0.9c0,0,0,0,0,0c0-0.5,0-1,0-1.4c0,0-0.1-0.1-0.1-0.1
		C12.3,22.4,11.8,22.7,11.2,22.9z"/>
	<path fill="none" d="M11.2,21.2c0.6,0.3,1.2,0.6,1.7,0.9c0,0,0.1,0,0.1,0c0-0.5,0.1-0.9,0.1-1.3c-0.1-0.1-0.2-0.1-0.3-0.2
		C12.3,20.7,11.8,21,11.2,21.2z"/>
	<path fill="none" d="M11.2,24.6c0.6,0.3,1.2,0.6,1.7,0.9c0,0,0.1,0,0.1,0c0-0.5-0.1-1-0.1-1.4c0,0-0.1,0-0.1-0.1
		C12.3,24.2,11.8,24.4,11.2,24.6z"/>
	<path fill="none" d="M13.4,18.9c0-0.1,0-0.2,0.1-0.3c-0.1,0-0.2,0.1-0.4,0.1C13.2,18.8,13.3,18.9,13.4,18.9z"/>
	<path fill="none" d="M13.2,20.5C13.2,20.5,13.2,20.5,13.2,20.5C13.2,20.4,13.1,20.4,13.2,20.5C13.1,20.5,13.2,20.5,13.2,20.5z"/>
	<path fill="none" d="M11.2,19.5c0.6,0.3,1.2,0.6,1.7,0.9c0.1,0,0.2-0.1,0.3-0.1c0.1-0.4,0.1-0.8,0.2-1.1c-0.2-0.1-0.3-0.2-0.5-0.3
		C12.3,19,11.8,19.2,11.2,19.5z"/>
	<path fill="none" d="M11.2,26.3c0.6,0.3,1.2,0.6,1.7,0.9c0.1,0,0.2-0.1,0.3-0.1c-0.1-0.4-0.1-0.9-0.2-1.3c-0.1,0-0.1-0.1-0.2-0.1
		C12.3,25.9,11.8,26.1,11.2,26.3z"/>
	<path fill="none" d="M10.8,17.8c-0.5-0.2-1.1-0.5-1.7-0.7c-0.3,0.2-0.6,0.4-0.8,0.5c0.1,0.3,0.1,0.6,0.2,0.8
		c0.2,0.1,0.4,0.1,0.6,0.2C9.7,18.3,10.2,18,10.8,17.8z"/>
	<path fill="none" d="M11.2,29.8c0.6,0.3,1.2,0.6,1.7,0.9c0.4-0.1,0.7-0.2,1.1-0.3c-0.1-0.2-0.1-0.4-0.2-0.6c-0.3-0.2-0.6-0.4-1-0.6
		C12.3,29.3,11.8,29.5,11.2,29.8z"/>
	<path fill="none" d="M14.6,31.7c-0.2-0.4-0.3-0.8-0.5-1.3c-0.3,0.1-0.7,0.2-1,0.3C13.6,31.1,14.1,31.4,14.6,31.7z"/>
	<path fill="none" d="M13.8,29.5c-0.1-0.2-0.1-0.4-0.2-0.6c-0.2,0.1-0.4,0.1-0.5,0.2C13.4,29.2,13.6,29.3,13.8,29.5z"/>
	<path fill="none" d="M11.2,28.1c0.6,0.3,1.2,0.6,1.7,0.9c0.2-0.1,0.4-0.1,0.7-0.2c-0.1-0.3-0.2-0.7-0.2-1c-0.2-0.1-0.3-0.2-0.5-0.3
		C12.3,27.6,11.8,27.8,11.2,28.1z"/>
	<path fill="none" d="M13.3,27.5c0-0.1,0-0.1,0-0.2c-0.1,0-0.1,0-0.2,0.1C13.2,27.4,13.3,27.4,13.3,27.5z"/>
	<path fill="none" d="M10.8,14.3c-0.5-0.2-1-0.4-1.4-0.6C8.7,13.8,8,14,7.3,14.1c0.1,0.2,0.1,0.4,0.2,0.6c0.5,0.2,1.1,0.3,1.6,0.5
		C9.7,14.9,10.2,14.6,10.8,14.3z"/>
	<path fill="none" d="M7.6,14.9c0.1,0.4,0.2,0.7,0.3,1.1c0.3-0.2,0.7-0.5,1-0.7C8.5,15.1,8,15,7.6,14.9z"/>
	<path fill="none" d="M10.8,16c-0.5-0.2-1.1-0.5-1.7-0.7c-0.4,0.2-0.8,0.5-1.2,0.8c0,0.2,0.1,0.3,0.1,0.5c0.3,0.1,0.7,0.2,1,0.3
		C9.7,16.6,10.2,16.3,10.8,16z"/>
	<path fill="none" d="M12.3,13.7c-0.4,0-0.9-0.1-1.3,0c-0.4,0-0.9,0-1.3,0c0.4,0.2,0.9,0.3,1.3,0.5C11.4,14.1,11.9,13.9,12.3,13.7z"
		/>
	<path fill="none" d="M8.1,16.8c0.1,0.2,0.1,0.4,0.2,0.7c0.2-0.1,0.4-0.3,0.6-0.4C8.7,16.9,8.4,16.9,8.1,16.8z"/>
	<path fill="none" d="M13,15.2c0.5-0.2,1-0.3,1.6-0.5c0.1-0.2,0.1-0.4,0.2-0.6c-0.7-0.2-1.4-0.3-2.1-0.4c-0.5,0.2-1,0.4-1.4,0.6
		C11.8,14.6,12.4,14.9,13,15.2z"/>
	<path fill="none" d="M14.1,16c0.1-0.4,0.2-0.7,0.3-1c-0.4,0.1-0.9,0.2-1.3,0.4C13.5,15.5,13.8,15.7,14.1,16z"/>
	<path fill="none" d="M11.2,17.8c0.6,0.3,1.2,0.6,1.7,0.9c0.2-0.1,0.4-0.1,0.6-0.2c0.1-0.3,0.1-0.6,0.2-0.9
		c-0.3-0.2-0.5-0.4-0.8-0.5C12.3,17.3,11.8,17.5,11.2,17.8z"/>
	<path fill="none" d="M11.2,16c0.6,0.3,1.2,0.6,1.7,0.9c0.3-0.1,0.7-0.2,1-0.3c0-0.2,0.1-0.3,0.1-0.5c-0.4-0.3-0.8-0.5-1.2-0.8
		C12.3,15.6,11.8,15.8,11.2,16z"/>
	<path fill="none" d="M13.8,17.4c0.1-0.2,0.1-0.4,0.2-0.6c-0.3,0.1-0.5,0.1-0.8,0.2C13.3,17.1,13.5,17.3,13.8,17.4z"/>
	<path fill="#415161" d="M11.9,32h0.4c-0.3-0.2-0.7-0.4-1-0.5c0.5-0.2,1.1-0.5,1.7-0.7c0.6,0.4,1.2,0.7,1.8,1.2
		c0-0.1-0.1-0.2-0.1-0.3c-0.5-0.3-0.9-0.7-1.5-1c0.3-0.1,0.7-0.2,1-0.3c0,0,0-0.1,0-0.1c-0.4,0.1-0.8,0.2-1.1,0.3
		c-0.6-0.3-1.1-0.6-1.7-0.9c0.5-0.2,1.1-0.5,1.7-0.7c0.3,0.2,0.7,0.4,1,0.6c0-0.1,0-0.2-0.1-0.3c-0.2-0.1-0.5-0.3-0.7-0.5
		c0.2-0.1,0.4-0.1,0.5-0.2c0,0,0-0.1,0-0.1c-0.2,0.1-0.4,0.1-0.7,0.2c-0.6-0.3-1.1-0.6-1.7-0.9c0.5-0.2,1.1-0.5,1.7-0.7
		c0.2,0.1,0.3,0.2,0.5,0.3c0-0.1,0-0.2-0.1-0.2c-0.1,0-0.1-0.1-0.2-0.1c0.1,0,0.1,0,0.2-0.1c0,0,0-0.1,0-0.1c-0.1,0-0.2,0.1-0.3,0.1
		c-0.6-0.3-1.1-0.6-1.7-0.9c0.5-0.2,1.1-0.5,1.7-0.7c0.1,0,0.1,0.1,0.2,0.1c0-0.1,0-0.2,0-0.3c0,0-0.1,0-0.1,0
		c-0.6-0.3-1.1-0.6-1.7-0.9c0.5-0.2,1.1-0.5,1.7-0.7c0,0,0.1,0,0.1,0.1c0-0.1,0-0.2,0-0.2c0,0,0,0,0,0c-0.6-0.3-1.1-0.6-1.7-0.9
		c0.5-0.2,1.1-0.5,1.7-0.7c0,0,0.1,0.1,0.1,0.1c0-0.1,0-0.2,0-0.3c0,0-0.1,0-0.1,0c-0.6-0.3-1.1-0.6-1.7-0.9
		c0.5-0.2,1.1-0.5,1.7-0.7c0.1,0.1,0.2,0.1,0.3,0.2c0-0.1,0-0.1,0-0.2c0,0,0,0-0.1,0c0,0,0.1,0,0.1,0c0-0.1,0-0.1,0-0.2
		c-0.1,0-0.2,0.1-0.3,0.1c-0.6-0.3-1.1-0.6-1.7-0.9c0.5-0.2,1.1-0.5,1.7-0.7c0.2,0.1,0.3,0.2,0.5,0.3c0-0.1,0-0.1,0-0.2
		c-0.1-0.1-0.2-0.1-0.3-0.2c0.1,0,0.2-0.1,0.4-0.1c0-0.1,0-0.1,0-0.2c-0.2,0.1-0.4,0.1-0.6,0.2c-0.6-0.3-1.1-0.6-1.7-0.9
		c0.5-0.2,1.1-0.5,1.7-0.7c0.3,0.2,0.5,0.3,0.8,0.5c0-0.1,0-0.1,0-0.2c-0.2-0.1-0.4-0.3-0.6-0.4c0.3-0.1,0.5-0.2,0.8-0.2
		c0-0.1,0-0.1,0-0.2c-0.3,0.1-0.7,0.2-1,0.3c-0.6-0.3-1.1-0.6-1.7-0.9c0.5-0.2,1.1-0.5,1.7-0.7c0.4,0.2,0.8,0.5,1.2,0.8
		c0-0.1,0-0.1,0.1-0.2c-0.3-0.2-0.7-0.5-1-0.7c0.4-0.1,0.9-0.3,1.3-0.4c0-0.1,0-0.1,0.1-0.2C14,14.9,13.5,15,13,15.2
		c-0.6-0.3-1.1-0.6-1.7-0.9c0.5-0.2,0.9-0.4,1.4-0.6c-0.1,0-0.2,0-0.3,0c-0.4,0.2-0.9,0.3-1.3,0.5c-0.4-0.2-0.9-0.3-1.3-0.5
		c-0.1,0-0.2,0-0.3,0c0.5,0.2,1,0.4,1.4,0.6c-0.6,0.3-1.2,0.6-1.7,0.9c-0.5-0.2-1-0.3-1.6-0.5c0,0.1,0,0.1,0.1,0.2
		C8,15,8.5,15.1,8.9,15.3c-0.4,0.2-0.7,0.4-1,0.7c0,0.1,0,0.1,0.1,0.2c0.4-0.3,0.8-0.5,1.2-0.8c0.6,0.2,1.1,0.4,1.7,0.7
		c-0.6,0.3-1.2,0.6-1.7,0.9c-0.3-0.1-0.7-0.2-1-0.3c0,0.1,0,0.1,0,0.2c0.3,0.1,0.6,0.2,0.8,0.2c-0.2,0.1-0.4,0.3-0.6,0.4
		c0,0.1,0,0.1,0,0.2c0.3-0.2,0.5-0.4,0.8-0.5c0.6,0.2,1.1,0.4,1.7,0.7c-0.6,0.3-1.2,0.6-1.7,0.9c-0.2-0.1-0.4-0.1-0.6-0.2
		c0,0.1,0,0.1,0,0.2c0.1,0,0.3,0.1,0.4,0.1c-0.1,0.1-0.2,0.1-0.3,0.2c0,0.1,0,0.1,0,0.2C8.8,19,9,18.9,9.1,18.8
		c0.6,0.2,1.1,0.4,1.7,0.7c-0.6,0.3-1.2,0.6-1.7,0.9c-0.1,0-0.2-0.1-0.3-0.1c0,0.1,0,0.1,0,0.2c0,0,0.1,0,0.1,0c0,0-0.1,0-0.1,0.1
		c0,0.1,0,0.1,0,0.2c0.1-0.1,0.2-0.1,0.3-0.2c0.6,0.2,1.1,0.4,1.7,0.7c-0.6,0.3-1.2,0.6-1.7,0.9c0,0-0.1,0-0.1,0c0,0.1,0,0.2,0,0.3
		c0.1,0,0.1-0.1,0.2-0.1c0.6,0.2,1.1,0.4,1.7,0.7c-0.6,0.3-1.2,0.6-1.7,0.9c0,0,0,0-0.1,0C9,23.9,9,24,9,24c0,0,0.1-0.1,0.1-0.1
		c0.6,0.2,1.1,0.4,1.7,0.7c-0.6,0.3-1.2,0.6-1.7,0.9c0,0-0.1,0-0.1,0c0,0.1,0,0.2,0,0.4c0.1,0,0.2-0.1,0.2-0.2
		c0.6,0.2,1.1,0.4,1.7,0.7c-0.6,0.3-1.2,0.6-1.7,0.9c-0.1,0-0.2-0.1-0.4-0.1c0,0,0,0.1,0,0.1c0.1,0,0.1,0,0.2,0.1
		c-0.1,0-0.2,0.1-0.2,0.2c0,0.1,0,0.2-0.1,0.2c0.2-0.1,0.3-0.2,0.5-0.3c0.6,0.2,1.1,0.4,1.7,0.7c-0.6,0.3-1.2,0.6-1.7,0.9
		c-0.2-0.1-0.5-0.1-0.7-0.2c0,0,0,0.1,0,0.1C8.6,28.9,8.7,29,8.9,29c-0.3,0.1-0.5,0.3-0.7,0.5c0,0.1,0,0.2-0.1,0.3
		c0.3-0.2,0.7-0.4,1-0.6c0.6,0.2,1.1,0.4,1.7,0.7c-0.6,0.3-1.2,0.6-1.7,0.9c-0.4-0.1-0.8-0.2-1.1-0.4c0,0,0,0.1,0,0.1
		c0.3,0.1,0.7,0.2,1,0.3c-0.5,0.3-1,0.6-1.5,1c0,0.1-0.1,0.2-0.1,0.3c0.6-0.4,1.2-0.8,1.8-1.2c0.6,0.2,1.1,0.4,1.7,0.7
		c-0.4,0.2-0.7,0.4-1,0.5h0.4c0.3-0.1,0.6-0.3,0.9-0.4C11.3,31.7,11.6,31.9,11.9,32z M9.3,15.3c0.6-0.3,1.1-0.6,1.7-0.9
		c0.6,0.3,1.2,0.6,1.7,0.9c-0.6,0.2-1.2,0.4-1.7,0.7C10.5,15.7,9.9,15.5,9.3,15.3z M9.3,17c0.6-0.3,1.1-0.6,1.7-0.9
		c0.6,0.3,1.2,0.6,1.7,0.9c-0.6,0.2-1.2,0.4-1.7,0.7C10.5,17.4,9.9,17.2,9.3,17z M9.3,18.7c0.6-0.3,1.1-0.6,1.7-0.9
		c0.6,0.3,1.2,0.6,1.7,0.9c-0.6,0.2-1.2,0.4-1.7,0.7C10.5,19.1,9.9,18.9,9.3,18.7z M9.3,20.4c0.6-0.3,1.1-0.6,1.7-0.9
		c0.6,0.3,1.2,0.6,1.7,0.9c-0.6,0.2-1.2,0.4-1.7,0.7C10.5,20.9,9.9,20.6,9.3,20.4z M9.3,22.1c0.6-0.3,1.1-0.6,1.7-0.9
		c0.6,0.3,1.2,0.6,1.7,0.9c-0.6,0.2-1.2,0.4-1.7,0.7C10.5,22.6,9.9,22.4,9.3,22.1z M9.3,23.9c0.6-0.3,1.1-0.6,1.7-0.9
		c0.6,0.3,1.2,0.6,1.7,0.9c-0.6,0.2-1.2,0.4-1.7,0.7C10.5,24.3,9.9,24.1,9.3,23.9z M9.3,25.6c0.6-0.3,1.1-0.6,1.7-0.9
		c0.6,0.3,1.2,0.6,1.7,0.9c-0.6,0.2-1.2,0.4-1.7,0.7C10.5,26,9.9,25.8,9.3,25.6z M9.3,27.3c0.6-0.3,1.1-0.6,1.7-0.9
		c0.6,0.3,1.2,0.6,1.7,0.9c-0.6,0.2-1.2,0.4-1.7,0.7C10.5,27.7,9.9,27.5,9.3,27.3z M9.3,29c0.6-0.3,1.1-0.6,1.7-0.9
		c0.6,0.3,1.2,0.6,1.7,0.9c-0.6,0.2-1.2,0.4-1.7,0.7C10.5,29.5,9.9,29.2,9.3,29z M9.3,30.7c0.6-0.3,1.1-0.6,1.7-0.9
		c0.6,0.3,1.2,0.6,1.7,0.9c-0.6,0.2-1.2,0.4-1.7,0.7C10.5,31.2,9.9,31,9.3,30.7z"/>
</g>
<g>
	<g>
		<rect x="21.6" y="12.6" fill-rule="evenodd" fill="#8898A5" width="0.2" height="4.9"/>
		<polygon fill-rule="evenodd" fill="#9EA9AF" points="22.7,21.3 20.5,21.3 20.5,17.4 22.7,16.4 		"/>
		<path fill-rule="evenodd" fill="#5D6977" d="M22.7,17.5h-1.5v0.1h1.5V17.5L22.7,17.5z M22.7,20.5h-1.5v0.1h1.5V20.5L22.7,20.5z
			 M22.7,19.8h-1.5v0.1h1.5V19.8L22.7,19.8z M22.7,19h-1.5v0.1h1.5V19L22.7,19z M22.7,18.2h-1.5v0.1h1.5V18.2z"/>
		<rect x="21.2" y="13" fill-rule="evenodd" fill="#8898A5" width="1" height="0.1"/>
		<rect x="21.3" y="13.4" fill-rule="evenodd" fill="#8898A5" width="0.8" height="0.1"/>
	</g>
	<polygon fill-rule="evenodd" fill="#8898A5" points="20.5,19.5 23.4,21.9 23.4,31.6 20.5,31.6 	"/>
	<path fill-rule="evenodd" fill="#5D6977" d="M21,22.4h2.4v0.2H21V22.4L21,22.4z M21,30.6h2.4v0.2H21V30.6L21,30.6z M21,29.8h2.4V30
		H21V29.8L21,29.8z M21,29h2.4v0.2H21V29L21,29z M21,28.1h2.4v0.2H21V28.1L21,28.1z M21,27.3h2.4v0.2H21V27.3L21,27.3z M21,26.5h2.4
		v0.2H21V26.5L21,26.5z M21,25.7h2.4v0.2H21V25.7L21,25.7z M21,24.8h2.4V25H21V24.8L21,24.8z M21,24h2.4v0.2H21V24L21,24z M21,23.2
		h2.4v0.2H21V23.2z"/>
</g>
<g>
	<path fill-rule="evenodd" fill="#5D6977" d="M30.8,9.9L33,9.3c-1,7.8-1.4,15.2-0.6,22.5h-1.6V9.9z"/>
	<path fill-rule="evenodd" fill="#5D6977" d="M23.9,10l4.2-1.7c-1.3,8.3-1.6,16.2,0.7,23.5h-5C25.9,24.9,25.2,17.5,23.9,10z"/>
	<path fill-rule="evenodd" fill="#A7AEB8" d="M24.6,5.6l7.8-3.7c-1.8,9.5-2.3,19.3,0,29.9h-7.8C26.7,23.1,26,14.4,24.6,5.6z"/>
	<path fill-rule="evenodd" fill="#5A6E8F" d="M30.1,4.4h1.8c0-0.1,0-0.1,0-0.2h-1.8V4.4z"/>
	<path fill-rule="evenodd" fill="#5A6E8F" d="M31.8,5.5h-3.1v0.2h3.1C31.7,5.6,31.7,5.5,31.8,5.5z"/>
	<path fill-rule="evenodd" fill="#5A6E8F" d="M31.6,6.7h-4.8v0.2h4.8C31.6,6.8,31.6,6.7,31.6,6.7z"/>
	<path fill-rule="evenodd" fill="#5A6E8F" d="M31.4,7.9h-4.2v0.2h4.2C31.4,8,31.4,8,31.4,7.9z"/>
	<path fill-rule="evenodd" fill="#5A6E8F" d="M31.3,9.1H29v0.2h2.3C31.3,9.3,31.3,9.2,31.3,9.1z"/>
	<path fill-rule="evenodd" fill="#5A6E8F" d="M31.1,10.4h-1.8v0.2h1.8C31.1,10.5,31.1,10.4,31.1,10.4z"/>
	<path fill-rule="evenodd" fill="#5A6E8F" d="M31,11.6h-2.2v0.2H31C31,11.7,31,11.7,31,11.6z"/>
	<path fill-rule="evenodd" fill="#5A6E8F" d="M31,12.8h-2.5V13h2.5C30.9,12.9,31,12.9,31,12.8z"/>
	<path fill-rule="evenodd" fill="#5A6E8F" d="M30.9,14.1h-1.7v0.2h1.7C30.9,14.2,30.9,14.1,30.9,14.1z"/>
	<path fill-rule="evenodd" fill="#5A6E8F" d="M30.8,15.3h-2.2v0.2h2.2C30.8,15.4,30.8,15.3,30.8,15.3z"/>
	<path fill-rule="evenodd" fill="#5A6E8F" d="M30.8,16.5h-2.3v0.2h2.3C30.8,16.6,30.8,16.6,30.8,16.5z"/>
	<path fill-rule="evenodd" fill="#5A6E8F" d="M30.8,17.7h-1.7v0.2h1.7C30.8,17.8,30.8,17.8,30.8,17.7z"/>
	<path fill-rule="evenodd" fill="#5A6E8F" d="M30.8,19h-2.7v0.2h2.7C30.8,19.1,30.8,19,30.8,19z"/>
	<path fill-rule="evenodd" fill="#5A6E8F" d="M30.9,20.2h-1.6v0.2h1.6C30.9,20.3,30.9,20.2,30.9,20.2z"/>
	<path fill-rule="evenodd" fill="#5A6E8F" d="M30.9,21.4h-2.7v0.2h2.7C30.9,21.5,30.9,21.5,30.9,21.4z"/>
	<path fill-rule="evenodd" fill="#5A6E8F" d="M31,22.6h-1.5v0.2H31C31,22.8,31,22.7,31,22.6z"/>
	<path fill-rule="evenodd" fill="#5A6E8F" d="M31.1,23.9h-2.5V24h2.5C31.1,24,31.1,23.9,31.1,23.9z"/>
	<path fill-rule="evenodd" fill="#5A6E8F" d="M31.3,25.1H30v0.2h1.3C31.3,25.2,31.3,25.2,31.3,25.1z"/>
	<path fill-rule="evenodd" fill="#5A6E8F" d="M31.4,26.3h-2.9v0.2h3C31.4,26.4,31.4,26.4,31.4,26.3z"/>
	<path fill-rule="evenodd" fill="#5A6E8F" d="M31.6,27.6H30v0.2h1.7C31.6,27.7,31.6,27.6,31.6,27.6z"/>
	<path fill-rule="evenodd" fill="#5A6E8F" d="M31.8,28.8h-2.6v0.2h2.7C31.8,28.9,31.8,28.8,31.8,28.8z"/>
	<path fill-rule="evenodd" fill="#5A6E8F" d="M32,30h-1.9v0.2H32C32,30.1,32,30.1,32,30z"/>
</g>
<g>
	<path fill-rule="evenodd" fill="#986842" d="M13.4,31l0,0.2c-0.1-0.2-0.1-0.2-0.3-0.4c-0.1-0.1-0.1-0.1-0.1-0.1
		c0,0.1,0,0.1,0.1,0.2c0.1,0.2,0.2,0.4,0.1,0.6l0.1,0c-0.1,0,0-0.1-0.1,0.2l0.6,0l-0.1-0.4l0-0.3l0.1-0.3l0.1-0.3l-0.1-0.1
		c0.2,0,0.1,0,0.4-0.4L14.1,30C13.9,30.1,13.5,30.6,13.4,31z"/>
	<path fill-rule="evenodd" fill="#97BA3A" d="M14.7,29.7c0,0.1,0.2,0.2,0.3,0.3l0.1-0.1c0,0.1,0,0.1,0.1,0.2
		c0.1,0.1,0.1,0.1,0.2,0.1c0,0.1,0.1,0.2,0.2,0.3l0.1,0c0,0.2,0,0.1,0.2,0.3C15.9,30.4,15.5,29.3,14.7,29.7z"/>
	<path fill-rule="evenodd" fill="#97BA3A" d="M13.1,29.4c0.2,0,0.2,0.1,0.3-0.1c0,0.2,0,0.1,0.3,0.1c0,0,0,0,0.2,0
		c0.1,0,0.1,0,0.2-0.1l0,0.1c0.1,0,0.2,0,0.3,0c-0.1-0.2-0.3-0.4-0.6-0.4C13.5,29.1,13.2,29.3,13.1,29.4z"/>
	<path fill-rule="evenodd" fill="#97BA3A" d="M12,31c0,0,0.1-0.1,0.1-0.1c0.1-0.1,0,0,0.2-0.1l0.1-0.1c0.1,0,0.1-0.1,0.1-0.2
		c0.1,0.1,0.2-0.1,0.2-0.1c-0.1-0.1-0.3,0-0.4,0C12.2,30.5,11.9,30.8,12,31z"/>
	<path fill-rule="evenodd" fill="#97BA3A" d="M14.5,29.3c0,0-0.1,0,0,0.1l0.1,0.1c0.4-0.3,0.1-0.8-0.2-0.9c0,0.1,0,0.1,0,0.2
		c0.1,0.1,0,0,0,0.1l0,0.2C14.4,29.2,14.4,29.2,14.5,29.3z"/>
	<path fill-rule="evenodd" fill="#97BA3A" d="M14.6,29.6c0.1,0,0.1,0,0.1,0c0.2-0.1,0-0.1,0.2-0.1c0.1,0,0.4-0.1,0.4-0.1
		c0,0,0,0,0.1,0c0.1,0,0.1,0,0.1-0.1C15.1,29.1,14.7,29.1,14.6,29.6z"/>
	<path fill-rule="evenodd" fill="#97BA3A" d="M14.6,30.6c0.2-0.1,0.4-0.7-0.1-0.9c0,0.2,0,0.2,0,0.2c0,0,0,0,0,0c0,0,0,0,0,0.2
		c0,0,0,0.1,0,0.1c0,0.2,0-0.1,0,0.2C14.6,30.5,14.6,30.5,14.6,30.6z"/>
	<path fill-rule="evenodd" fill="#97BA3A" d="M14.4,30c0.1-0.1,0.1-0.2,0-0.3c0,0.1,0,0.1-0.1,0.2c0.2-0.5-0.5-0.2-0.1,0
		C14.3,30,14.3,30,14.4,30z"/>
	<path fill-rule="evenodd" fill="#97BA3A" d="M12.9,30.4l0.3,0c0.1,0,0,0,0.1,0l0.4,0c-0.1-0.1-0.3-0.2-0.4-0.2
		C13,30.1,12.9,30.2,12.9,30.4z"/>
	<path fill-rule="evenodd" fill="#97BA3A" d="M12.8,30.4l0-0.2c0,0,0,0,0-0.1l0.1-0.2c0,0,0,0,0-0.1C12.8,30,12.6,30.2,12.8,30.4z"
		/>
	<path fill-rule="evenodd" fill="#97BA3A" d="M12.2,30.2c0,0.1,0.2,0.1,0.2,0.1l0.2,0.1C12.7,30.1,12.3,30.2,12.2,30.2z"/>
	<path fill-rule="evenodd" fill="#97BA3A" d="M12.7,31C12.7,31,12.7,31,12.7,31l0.1-0.5C12.5,30.6,12.5,30.9,12.7,31z"/>
	<path fill-rule="evenodd" fill="#97BA3A" d="M12.8,30.6c0.1,0.1,0.1,0,0.2,0c0.2-0.1,0-0.3-0.1-0.2C12.8,30.5,12.8,30.5,12.8,30.6z
		"/>
</g>
<g>
	<path fill-rule="evenodd" fill="#986842" d="M23.6,30.8l0,0.2c0.2-0.3,0.1-0.2,0.3-0.5c0.1-0.1,0.1-0.1,0.2-0.1
		c0,0.1,0,0.1-0.1,0.2c-0.1,0.2-0.2,0.5-0.2,0.8l-0.1,0c0.1,0,0.1-0.1,0.1,0.3l-0.8,0l0.1-0.5l0-0.4L23,30.5l-0.1-0.3l0.1-0.1
		c-0.3,0-0.1,0-0.4-0.5l0.1-0.1C23,29.6,23.5,30.3,23.6,30.8z"/>
	<path fill-rule="evenodd" fill="#97BA3A" d="M22,29.2c0,0.1-0.3,0.3-0.4,0.3l-0.1-0.1c0,0.2,0.1,0.2-0.1,0.3
		c-0.1,0.1-0.1,0.2-0.2,0.1c0,0.2-0.1,0.3-0.3,0.4L20.8,30c0,0.2,0,0.2-0.3,0.4C20.4,30,20.9,28.6,22,29.2z"/>
	<path fill-rule="evenodd" fill="#97BA3A" d="M24,28.8c-0.2,0-0.3,0.1-0.4-0.1c0,0.2,0,0.1-0.4,0.1c-0.1,0-0.1,0-0.2,0
		c-0.2,0-0.1,0-0.2-0.1l0,0.1c-0.1,0-0.3,0-0.4,0c0.1-0.3,0.3-0.5,0.8-0.5C23.5,28.4,23.8,28.6,24,28.8z"/>
	<path fill-rule="evenodd" fill="#97BA3A" d="M25.3,30.9c-0.1,0-0.1-0.1-0.1-0.1c-0.1-0.1,0,0-0.2-0.2l-0.1-0.1
		c-0.1-0.1-0.1-0.1-0.1-0.2c-0.1,0.1-0.3-0.1-0.2-0.2c0.1-0.1,0.4,0,0.5,0C25.1,30.2,25.4,30.6,25.3,30.9z"/>
	<path fill-rule="evenodd" fill="#97BA3A" d="M22.2,28.7c0.1,0,0.1,0,0.1,0.1L22.2,29c-0.5-0.3-0.1-0.9,0.3-1.1c0,0.1,0,0.1-0.1,0.2
		c-0.1,0.1,0,0,0,0.1l-0.1,0.2C22.3,28.6,22.4,28.6,22.2,28.7z"/>
	<path fill-rule="evenodd" fill="#97BA3A" d="M22,29.1c-0.1,0-0.1,0-0.1,0c-0.2-0.1,0-0.1-0.2-0.1c-0.1,0-0.5-0.2-0.5-0.2
		c0,0,0,0-0.1,0c-0.1,0-0.1,0-0.2-0.1C21.4,28.5,21.9,28.5,22,29.1z"/>
	<path fill-rule="evenodd" fill="#97BA3A" d="M22,30.3c-0.2-0.1-0.5-0.9,0.1-1.1c0,0.2,0,0.2,0,0.3c0,0,0,0,0,0c0,0.1,0,0,0,0.3
		c0,0,0,0.1,0,0.1c0,0.3-0.1-0.1,0,0.2C22.1,30.2,22,30.2,22,30.3z"/>
	<path fill-rule="evenodd" fill="#97BA3A" d="M22.2,29.6c-0.1-0.2-0.1-0.3,0.1-0.4c0,0.1,0,0.1,0.1,0.2c-0.2-0.7,0.7-0.2,0.2,0.1
		C22.4,29.5,22.5,29.6,22.2,29.6z"/>
	<path fill-rule="evenodd" fill="#97BA3A" d="M24.2,30l-0.3,0c-0.1,0-0.1,0-0.1,0l-0.5,0c0.1-0.2,0.3-0.2,0.5-0.2
		C24,29.7,24.1,29.8,24.2,30z"/>
	<path fill-rule="evenodd" fill="#97BA3A" d="M24.3,30l-0.1-0.2c0,0,0-0.1,0-0.1l-0.1-0.2c0,0,0,0,0-0.1
		C24.4,29.5,24.6,29.8,24.3,30z"/>
	<path fill-rule="evenodd" fill="#97BA3A" d="M25,29.8C25,29.9,24.8,30,24.7,30l-0.3,0.1C24.4,29.7,24.9,29.8,25,29.8z"/>
	<path fill-rule="evenodd" fill="#97BA3A" d="M24.5,30.8c0,0,0-0.1,0-0.1l-0.1-0.5C24.7,30.3,24.6,30.7,24.5,30.8z"/>
	<path fill-rule="evenodd" fill="#97BA3A" d="M24.3,30.4c-0.1,0.1-0.1,0.1-0.2,0c-0.2-0.2-0.1-0.3,0.1-0.2
		C24.3,30.2,24.3,30.2,24.3,30.4z"/>
</g>
<g>
	<path fill-rule="evenodd" fill="#986842" d="M48.7,31l0,0.2c-0.2-0.3-0.1-0.2-0.3-0.5c-0.1-0.1-0.1-0.1-0.2-0.1
		c0,0.1,0,0.1,0.1,0.2c0.1,0.2,0.2,0.5,0.2,0.8l0.1,0c-0.1,0-0.1-0.1-0.1,0.3l0.8,0l-0.1-0.5l0-0.4l0.1-0.4l0.1-0.3l-0.1-0.1
		c0.3,0,0.1,0,0.4-0.5l-0.1-0.1C49.3,29.9,48.8,30.6,48.7,31z"/>
	<path fill-rule="evenodd" fill="#97BA3A" d="M50.3,29.4c0,0.1,0.3,0.3,0.4,0.3l0.1-0.1c0,0.2-0.1,0.2,0.1,0.3
		c0.1,0.1,0.1,0.2,0.2,0.1c0,0.2,0.1,0.3,0.3,0.4l0.1-0.1c0,0.2,0,0.2,0.3,0.4C51.9,30.3,51.3,28.9,50.3,29.4z"/>
	<path fill-rule="evenodd" fill="#97BA3A" d="M48.3,29.1c0.2,0,0.3,0.1,0.4-0.1c0,0.2,0,0.1,0.4,0.1c0.1,0,0.1,0,0.2,0
		c0.2,0,0.1,0,0.2-0.1l0,0.1c0.1,0,0.3,0,0.4,0c-0.1-0.3-0.3-0.5-0.8-0.5C48.8,28.7,48.4,28.9,48.3,29.1z"/>
	<path fill-rule="evenodd" fill="#97BA3A" d="M46.9,31.1c0.1,0,0.1-0.1,0.1-0.1c0.1-0.1,0,0,0.2-0.2l0.1-0.1
		c0.1-0.1,0.1-0.1,0.1-0.2c0.1,0.1,0.3-0.1,0.2-0.2c-0.1-0.1-0.4,0-0.5,0C47.1,30.4,46.8,30.9,46.9,31.1z"/>
	<path fill-rule="evenodd" fill="#97BA3A" d="M50,28.9c-0.1,0-0.1,0-0.1,0.1l0.1,0.2c0.5-0.3,0.1-0.9-0.3-1.1c0,0.1,0,0.1,0.1,0.2
		c0.1,0.1,0,0,0,0.1l0.1,0.2C49.9,28.8,49.9,28.8,50,28.9z"/>
	<path fill-rule="evenodd" fill="#97BA3A" d="M50.2,29.3c0.1,0,0.1,0,0.1,0c0.2-0.1,0-0.1,0.2-0.1c0.1,0,0.5-0.2,0.5-0.2
		c0,0,0,0,0.1,0c0.1,0,0.1,0,0.2-0.1C50.8,28.7,50.3,28.7,50.2,29.3z"/>
	<path fill-rule="evenodd" fill="#97BA3A" d="M50.2,30.5c0.2-0.1,0.5-0.9-0.1-1.1c0,0.2,0,0.2,0,0.3c0,0,0,0,0,0c0,0.1,0,0,0,0.3
		c0,0,0,0.1,0,0.1c0,0.3,0.1-0.1,0,0.2C50.2,30.4,50.2,30.5,50.2,30.5z"/>
	<path fill-rule="evenodd" fill="#97BA3A" d="M48,30.3l0.3,0c0.1,0,0.1,0,0.1,0l0.5,0c-0.1-0.2-0.3-0.2-0.5-0.2
		C48.2,30,48.1,30.1,48,30.3z"/>
	<path fill-rule="evenodd" fill="#97BA3A" d="M47.9,30.3l0.1-0.2c0,0,0-0.1,0-0.1l0.1-0.2c0,0,0,0,0-0.1
		C47.9,29.8,47.6,30.1,47.9,30.3z"/>
	<path fill-rule="evenodd" fill="#97BA3A" d="M47.2,30.1c0.1,0.1,0.2,0.1,0.3,0.2l0.3,0.1C47.8,29.9,47.3,30.1,47.2,30.1z"/>
	<path fill-rule="evenodd" fill="#97BA3A" d="M47.8,31.1c0,0,0-0.1,0-0.1l0.1-0.5C47.5,30.5,47.6,31,47.8,31.1z"/>
	<path fill-rule="evenodd" fill="#97BA3A" d="M47.9,30.6c0.1,0.1,0.1,0.1,0.2,0c0.2-0.2,0.1-0.3-0.1-0.2
		C47.9,30.5,47.9,30.5,47.9,30.6z"/>
</g>
<path fill-rule="evenodd" fill="#66472D" d="M3.8,31.6h48.9c0.2,0,0.4,0.2,0.4,0.4v0c0,0.2-0.2,0.4-0.4,0.4H3.8
	c-0.2,0-0.4-0.2-0.4-0.4v0C3.4,31.8,3.6,31.6,3.8,31.6z"/>
<path fill-rule="evenodd" fill="#66472D" d="M2.3,31.6H0.4C0.2,31.6,0,31.8,0,32v0c0,0.2,0.2,0.4,0.4,0.4h1.9c0.2,0,0.4-0.2,0.4-0.4
	v0C2.6,31.8,2.5,31.6,2.3,31.6z"/>
<path fill-rule="evenodd" fill="#66472D" d="M55.4,31.6h-0.9c-0.2,0-0.4,0.2-0.4,0.4v0c0,0.2,0.2,0.4,0.4,0.4h0.9
	c0.2,0,0.4-0.2,0.4-0.4v0C55.8,31.8,55.6,31.6,55.4,31.6z"/>
<g>
	<path fill-rule="evenodd" fill="#ACACAE" d="M15,31.6h5.6V18.3c-0.1-2.8-1.1-4.2-2.8-4.5c-1.7,0.2-2.7,1.7-2.8,4.5V31.6z"/>
	<rect x="17.8" y="10.7" fill-rule="evenodd" fill="#938E8B" width="0.2" height="3.4"/>
	<g>
		<g>
			<rect x="15.7" y="30.9" fill-rule="evenodd" fill="#797980" width="0.7" height="0.4"/>
			<rect x="19.4" y="30.9" fill-rule="evenodd" fill="#797980" width="0.7" height="0.4"/>
		</g>
		<g>
			<rect x="15.7" y="29.8" fill-rule="evenodd" fill="#797980" width="0.7" height="0.4"/>
			<rect x="19.4" y="29.8" fill-rule="evenodd" fill="#797980" width="0.7" height="0.4"/>
		</g>
		<g>
			<rect x="15.7" y="28.8" fill-rule="evenodd" fill="#797980" width="0.7" height="0.4"/>
			<rect x="19.4" y="28.8" fill-rule="evenodd" fill="#797980" width="0.7" height="0.4"/>
		</g>
		<g>
			<rect x="15.7" y="27.7" fill-rule="evenodd" fill="#797980" width="0.7" height="0.4"/>
			<rect x="19.4" y="27.7" fill-rule="evenodd" fill="#797980" width="0.7" height="0.4"/>
		</g>
		<g>
			<rect x="15.7" y="26.6" fill-rule="evenodd" fill="#797980" width="0.7" height="0.4"/>
			<rect x="19.4" y="26.6" fill-rule="evenodd" fill="#797980" width="0.7" height="0.4"/>
		</g>
		<g>
			<rect x="15.7" y="25.6" fill-rule="evenodd" fill="#797980" width="0.7" height="0.4"/>
			<rect x="19.4" y="25.6" fill-rule="evenodd" fill="#797980" width="0.7" height="0.4"/>
		</g>
		<g>
			<rect x="15.7" y="24.5" fill-rule="evenodd" fill="#797980" width="0.7" height="0.4"/>
			<rect x="19.4" y="24.5" fill-rule="evenodd" fill="#797980" width="0.7" height="0.4"/>
		</g>
		<g>
			<rect x="15.7" y="23.5" fill-rule="evenodd" fill="#797980" width="0.7" height="0.4"/>
			<rect x="19.4" y="23.5" fill-rule="evenodd" fill="#797980" width="0.7" height="0.4"/>
		</g>
		<g>
			<rect x="15.7" y="22.4" fill-rule="evenodd" fill="#797980" width="0.7" height="0.4"/>
			<rect x="19.4" y="22.4" fill-rule="evenodd" fill="#797980" width="0.7" height="0.4"/>
		</g>
		<g>
			<rect x="15.7" y="21.4" fill-rule="evenodd" fill="#797980" width="0.7" height="0.4"/>
			<rect x="19.4" y="21.4" fill-rule="evenodd" fill="#797980" width="0.7" height="0.4"/>
		</g>
		<g>
			<rect x="15.7" y="20.3" fill-rule="evenodd" fill="#797980" width="0.7" height="0.4"/>
			<rect x="19.4" y="20.3" fill-rule="evenodd" fill="#797980" width="0.7" height="0.4"/>
		</g>
		<g>
			<rect x="15.7" y="19.2" fill-rule="evenodd" fill="#797980" width="0.7" height="0.4"/>
			<rect x="19.4" y="19.2" fill-rule="evenodd" fill="#797980" width="0.7" height="0.4"/>
		</g>
		<g>
			<rect x="15.7" y="18.2" fill-rule="evenodd" fill="#797980" width="0.7" height="0.4"/>
			<rect x="19.4" y="18.2" fill-rule="evenodd" fill="#797980" width="0.7" height="0.4"/>
		</g>
		<g>
			<rect x="15.7" y="17.1" fill-rule="evenodd" fill="#797980" width="0.7" height="0.4"/>
			<rect x="19.4" y="17.1" fill-rule="evenodd" fill="#797980" width="0.7" height="0.4"/>
		</g>
		<g>
			<rect x="16.9" y="30.9" fill-rule="evenodd" fill="#797980" width="0.7" height="0.4"/>
			<rect x="18.1" y="30.9" fill-rule="evenodd" fill="#797980" width="0.7" height="0.4"/>
		</g>
		<g>
			<rect x="16.9" y="29.8" fill-rule="evenodd" fill="#797980" width="0.7" height="0.4"/>
			<rect x="18.1" y="29.8" fill-rule="evenodd" fill="#797980" width="0.7" height="0.4"/>
		</g>
		<g>
			<rect x="16.9" y="28.8" fill-rule="evenodd" fill="#797980" width="0.7" height="0.4"/>
			<rect x="18.1" y="28.8" fill-rule="evenodd" fill="#797980" width="0.7" height="0.4"/>
		</g>
		<g>
			<rect x="16.9" y="27.7" fill-rule="evenodd" fill="#797980" width="0.7" height="0.4"/>
			<rect x="18.1" y="27.7" fill-rule="evenodd" fill="#797980" width="0.7" height="0.4"/>
		</g>
		<g>
			<rect x="16.9" y="26.6" fill-rule="evenodd" fill="#797980" width="0.7" height="0.4"/>
			<rect x="18.1" y="26.6" fill-rule="evenodd" fill="#797980" width="0.7" height="0.4"/>
		</g>
		<g>
			<rect x="16.9" y="25.6" fill-rule="evenodd" fill="#797980" width="0.7" height="0.4"/>
			<rect x="18.1" y="25.6" fill-rule="evenodd" fill="#797980" width="0.7" height="0.4"/>
		</g>
		<g>
			<rect x="16.9" y="24.5" fill-rule="evenodd" fill="#797980" width="0.7" height="0.4"/>
			<rect x="18.1" y="24.5" fill-rule="evenodd" fill="#797980" width="0.7" height="0.4"/>
		</g>
		<g>
			<rect x="16.9" y="23.5" fill-rule="evenodd" fill="#797980" width="0.7" height="0.4"/>
			<rect x="18.1" y="23.5" fill-rule="evenodd" fill="#797980" width="0.7" height="0.4"/>
		</g>
		<g>
			<rect x="16.9" y="22.4" fill-rule="evenodd" fill="#797980" width="0.7" height="0.4"/>
			<rect x="18.1" y="22.4" fill-rule="evenodd" fill="#797980" width="0.7" height="0.4"/>
		</g>
		<g>
			<rect x="16.9" y="21.4" fill-rule="evenodd" fill="#797980" width="0.7" height="0.4"/>
			<rect x="18.1" y="21.4" fill-rule="evenodd" fill="#797980" width="0.7" height="0.4"/>
		</g>
		<g>
			<rect x="16.9" y="20.3" fill-rule="evenodd" fill="#797980" width="0.7" height="0.4"/>
			<rect x="18.1" y="20.3" fill-rule="evenodd" fill="#797980" width="0.7" height="0.4"/>
		</g>
		<g>
			<rect x="16.9" y="19.2" fill-rule="evenodd" fill="#797980" width="0.7" height="0.4"/>
			<rect x="18.1" y="19.2" fill-rule="evenodd" fill="#797980" width="0.7" height="0.4"/>
		</g>
		<g>
			<rect x="16.9" y="18.2" fill-rule="evenodd" fill="#797980" width="0.7" height="0.4"/>
			<rect x="18.1" y="18.2" fill-rule="evenodd" fill="#797980" width="0.7" height="0.4"/>
		</g>
		<g>
			<rect x="16.9" y="17.1" fill-rule="evenodd" fill="#797980" width="0.7" height="0.4"/>
			<rect x="18.1" y="17.1" fill-rule="evenodd" fill="#797980" width="0.7" height="0.4"/>
		</g>
		<g>
			<rect x="16.9" y="16.1" fill-rule="evenodd" fill="#797980" width="0.7" height="0.4"/>
			<rect x="18.1" y="16.1" fill-rule="evenodd" fill="#797980" width="0.7" height="0.4"/>
		</g>
		<g>
			<rect x="16.9" y="15" fill-rule="evenodd" fill="#797980" width="0.7" height="0.4"/>
			<rect x="18.1" y="15" fill-rule="evenodd" fill="#797980" width="0.7" height="0.4"/>
		</g>
	</g>
</g>
</svg>
