<?xml version="1.0" encoding="utf-8"?>
<!-- Generator: Adobe Illustrator 21.0.0, SVG Export Plug-In . SVG Version: 6.00 Build 0)  -->
<svg version="1.2" baseProfile="tiny" id="Layer_1" xmlns="http://www.w3.org/2000/svg" xmlns:xlink="http://www.w3.org/1999/xlink"
	 x="0px" y="0px" viewBox="0 0 196.1 95.2" xml:space="preserve">
<g>
	<g>
		<rect x="106" y="30" fill="#231F20" width="19.3" height="0.8"/>
	</g>
	<g>
		<rect x="103.7" y="38.2" fill="#231F20" width="17.5" height="0.8"/>
	</g>
	<g>
		<rect x="106" y="44.5" fill="#231F20" width="19.3" height="0.8"/>
	</g>
	<g>
		<rect x="102.7" y="50.8" fill="#231F20" width="16.1" height="0.8"/>
	</g>
	<g>
		<rect x="96.8" y="58.3" fill="#231F20" width="27.5" height="0.8"/>
	</g>
	<g>
		<rect x="108.8" y="65.5" fill="#231F20" width="19.9" height="0.8"/>
	</g>
	<g>
		<rect x="96.8" y="72.7" fill="#231F20" width="15.6" height="0.8"/>
	</g>
	<g>
		<rect x="109.5" y="79.6" fill="#231F20" width="23.7" height="0.8"/>
	</g>
	<g>
		<path fill="#231F20" d="M105,86.5h-3.9V40.6c0.9-6.5,1.9-11.9,3.1-16.2l0.8-3.1V86.5z M102,85.7h2.2V28c-0.8,3.6-1.6,7.9-2.2,12.7
			L102,85.7z"/>
	</g>
	<g>
		<path fill="#231F20" d="M108.1,86.5h-3.9l0-62.1c1-3.6,2-6.4,3.1-8.2l0.8-1.3V86.5z M105,85.7h2.2V18.1c-0.8,1.6-1.5,3.8-2.2,6.4
			V85.7z"/>
	</g>
	<g>
		<path fill="#231F20" d="M102,86.5h-3.9l0-0.4c0.2-17,1.3-32.8,3-45.6l0.8,0.1V86.5z M98.9,85.7h2.2V47.5
			C99.9,58.7,99.1,71.8,98.9,85.7z"/>
	</g>
	<g>
		<path fill="#231F20" d="M111.2,86.5h-3.9V16.3l0.1-0.1c1.1-1.8,2.2-2.7,3.4-2.7h0.4V86.5z M108.1,85.7h2.2V14.4
			c-0.7,0.2-1.5,0.9-2.2,2.1V85.7z"/>
	</g>
	<g>
		<path fill="#231F20" d="M120.4,86.5h-3.9V21.3l0.8,3.1c1.2,4.3,2.2,9.7,3.1,16.2L120.4,86.5z M117.3,85.7h2.2V40.6
			c-0.7-4.8-1.4-9-2.2-12.6V85.7z"/>
	</g>
	<g>
		<path fill="#231F20" d="M123.4,86.5h-3.9V40.6l0.8-0.1c1.8,12.8,2.8,28.5,3,45.6L123.4,86.5z M120.4,85.7h2.2
			c-0.2-13.9-0.9-27-2.2-38.2V85.7z"/>
	</g>
	<g>
		<path fill="#231F20" d="M117.3,86.5h-3.9V14.9l0.8,1.3c1.1,1.8,2.1,4.5,3.1,8.2l0,0.1V86.5z M114.3,85.7h2.2V24.5
			c-0.7-2.6-1.5-4.8-2.2-6.4V85.7z"/>
	</g>
	<g>
		<path fill="#231F20" d="M114.3,86.5h-3.9v-73h0.4c1.2,0,2.4,0.9,3.4,2.7l0.1,0.1V86.5z M111.2,85.7h2.2V16.6
			c-0.8-1.2-1.5-1.9-2.2-2.1L111.2,85.7z"/>
	</g>
	<g>
		<path fill="#231F20" d="M110.8,14.4c-0.2,0-0.4-0.2-0.4-0.4V0.4c0-0.2,0.2-0.4,0.4-0.4c0.2,0,0.4,0.2,0.4,0.4V14
			C111.2,14.2,111,14.4,110.8,14.4z"/>
	</g>
	<g>
		<path fill="#231F20" d="M147,48.6c-1,0.3-2.2,0.5-3.5,0.6l0.1,0.8c1.3-0.1,2.5-0.3,3.5-0.6L147,48.6z"/>
	</g>
	<g>
		<path fill="#231F20" d="M134,45.8c0-1.6,3.3-3.4,8.2-3.4c4.9,0,8.2,1.7,8.2,3.4l0,0l0.8,0.1c0,0,0,0,0-0.1c0-2.4-4-4.2-9-4.2
			c-5.1,0-9,1.9-9,4.2c0,0,0,0,0,0.1L134,45.8L134,45.8z"/>
	</g>
	<g>
		<path fill="#231F20" d="M133.3,46.4l-0.1-0.5C133.2,46.1,133.2,46.3,133.3,46.4z"/>
	</g>
	<g>
		<path fill="#231F20" d="M139.2,49.8c0.6,0.1,1.2,0.2,1.8,0.2l0.1-0.8c-0.7,0-1.4-0.1-2-0.2L139.2,49.8z"/>
	</g>
	<g>
		<path fill="#231F20" d="M138.1,48.8c-2.2-0.6-3.7-1.5-4-2.5l0.3,1.7c0.9,0.7,2.2,1.3,3.9,1.7L138.1,48.8z"/>
	</g>
	<g>
		<path fill="#231F20" d="M151.2,46l0,0.4C151.2,46.2,151.2,46.1,151.2,46z"/>
	</g>
	<g>
		<path fill="#231F20" d="M147.8,48.3l0.1,0.9c0.9-0.3,1.6-0.7,2.1-1.2l0.2-1.7C150.1,46.9,149.2,47.7,147.8,48.3z"/>
	</g>
	<g>
		<path fill="#231F20" d="M142.2,49.2c-0.1,0-0.2,0-0.3,0l-0.1,0.8c0.1,0,0.3,0,0.4,0c0.2,0,0.4,0,0.6,0l-0.1-0.8
			C142.5,49.2,142.3,49.2,142.2,49.2z"/>
	</g>
	<g>
		<path fill="#231F20" d="M148.1,81.7c-0.5-2.8-1-5.7-1.4-8.5"/>
	</g>
	<g>
		<path fill="#231F20" d="M146.7,73.3c0.5,2.8,1,5.7,1.4,8.5"/>
	</g>
	<g>
		<path fill="#231F20" d="M151.2,45.9L151.2,45.9C151.2,45.9,151.2,46,151.2,45.9L151.2,45.9z"/>
	</g>
	<g>
		<polygon fill="#231F20" points="151.2,94.8 147.6,73.2 149.1,61.3 148.7,58.5 147.1,70.4 151.2,94.8 		"/>
	</g>
	<g>
		<path fill="#231F20" d="M150.1,47.9l-1,7.7l0.5,2.8l1.6-12.1C151,46.9,150.6,47.4,150.1,47.9z"/>
	</g>
	<g>
		<path fill="#231F20" d="M150.4,45.8C150.4,45.8,150.4,45.8,150.4,45.8l0,0.3C150.3,46.1,150.4,46,150.4,45.8z"/>
	</g>
	<g>
		<path fill="#231F20" d="M150.4,45.8C150.4,45.8,150.4,45.8,150.4,45.8c0,0.1,0,0.2,0,0.4l-0.2,1.7c0.6-0.5,0.9-1,1.1-1.6l0-0.4
			c0,0,0,0,0-0.1L150.4,45.8L150.4,45.8z"/>
	</g>
	<g>
		<path fill="#231F20" d="M134,45.8c0,0.1,0,0.3,0.1,0.4L134,45.8C134,45.8,134,45.8,134,45.8z"/>
	</g>
	<g>
		<polygon fill="#231F20" points="142.3,94.8 138.7,73.4 138.3,76.3 141.4,94.8 		"/>
	</g>
	<g>
		<path fill="#231F20" d="M134.4,48c-0.6-0.5-1-1-1.1-1.6l4.5,27l0.4-2.8L134.4,48z"/>
	</g>
	<g>
		<path fill="#231F20" d="M133.2,45.9L133.2,45.9C133.2,45.9,133.2,45.9,133.2,45.9L133.2,45.9z"/>
	</g>
	<g>
		<path fill="#231F20" d="M134.4,48l-0.3-1.7c0-0.1-0.1-0.3-0.1-0.4c0,0,0,0,0,0l0,0l-0.8,0.1c0,0,0,0,0,0l0.1,0.5
			C133.4,47,133.8,47.5,134.4,48z"/>
	</g>
	<g>
		<polygon fill="#231F20" points="146.7,94.8 140.6,58.7 140.3,61.5 145.9,94.8 		"/>
	</g>
	<g>
		<path fill="#231F20" d="M138.3,49.7l1.5,9l0.4-2.8l-1-6C138.8,49.8,138.6,49.7,138.3,49.7z"/>
	</g>
	<g>
		<path fill="#231F20" d="M139.2,49.8L139,49c-0.3-0.1-0.6-0.1-0.9-0.2l0.2,0.9C138.6,49.7,138.8,49.8,139.2,49.8z"/>
	</g>
	<g>
		<path fill="#231F20" d="M143.6,50c-0.3,0-0.6,0-0.9,0l3.9,23.2l0.4-2.8L143.6,50z"/>
	</g>
	<g>
		<path fill="#231F20" d="M143.5,49.2c-0.3,0-0.6,0-0.9,0l0.1,0.8c0.3,0,0.6,0,0.9,0L143.5,49.2z"/>
	</g>
	<g>
		<polygon fill="#231F20" points="151.2,94.8 147.1,70.4 146.7,73.3 150.3,94.8 		"/>
	</g>
	<g>
		<path fill="#231F20" d="M148,49.1c-0.3,0.1-0.5,0.2-0.8,0.3l1.5,9.1l0.4-2.8L148,49.1z"/>
	</g>
	<g>
		<path fill="#231F20" d="M147,48.6l0.1,0.8c0.3-0.1,0.6-0.2,0.8-0.3l-0.1-0.9C147.6,48.4,147.3,48.5,147,48.6z"/>
	</g>
	<g>
		<polygon fill="#231F20" points="148.7,58.5 149.1,61.3 149.5,58.5 149.1,55.6 		"/>
	</g>
	<g>
		<polygon fill="#231F20" points="135.8,94.8 138.3,76.3 137.8,73.5 134.9,94.8 		"/>
	</g>
	<g>
		<path fill="#231F20" d="M141.1,49.2l-0.1,0.8c0.3,0,0.6,0,0.8,0l0.1-0.8C141.6,49.2,141.3,49.2,141.1,49.2z"/>
	</g>
	<g>
		<polygon fill="#231F20" points="137.8,73.5 138.3,76.3 138.7,73.4 138.2,70.6 		"/>
	</g>
	<g>
		<polygon fill="#231F20" points="139.8,58.7 140.3,61.5 140.6,58.7 140.2,55.8 		"/>
	</g>
	<g>
		<rect x="123.1" y="94.4" fill="#231F20" width="12.7" height="0.8"/>
	</g>
	<g>
		<path fill="#231F20" d="M98.9,95.2h-8V5.6h-4.4v89.2h-0.8V4.8h6.1v89.6H98l0-0.5c0-2.2,0-6.5,0-7.8l0-0.4h25.3l0,0.4
			c0,1.4,0,5.6,0,7.8l0,0.9l-0.8,0l0-0.9c0-2,0-5.7,0-7.4H98.9c0,1.7,0,5.4,0,7.4L98.9,95.2z"/>
	</g>
	<g>
		<polygon fill="#231F20" points="86.5,94.8 85.6,94.8 85.6,9.6 81.2,9.6 81.2,94.8 80.3,94.8 80.3,8.7 86.5,8.7 		"/>
	</g>
	<g>
		<rect x="77.7" y="3.9" transform="matrix(0.6 -0.8 0.8 0.6 25.5321 65.3683)" fill="#231F20" width="0.8" height="6.6"/>
	</g>
	<g>
		
			<rect x="85.4" y="6.7" transform="matrix(0.8005 -0.5994 0.5994 0.8005 13.4069 54.5787)" fill="#231F20" width="6.6" height="0.8"/>
	</g>
	<g>
		<polygon fill="#231F20" points="91.1,22.4 85.9,19 80.9,19 75.7,22.4 75.3,21.7 80.6,18.2 86.2,18.2 91.6,21.7 		"/>
	</g>
	<g>
		<g>
			<polygon fill="#231F20" points="75.9,95.2 66.8,95.2 66.8,61.2 44.5,61.2 44.5,94.8 43.6,94.8 43.6,60.3 67.6,60.3 67.6,94.4 
				75.1,94.4 75.1,4.8 81.2,4.8 81.2,94.8 80.3,94.8 80.3,5.6 75.9,5.6 			"/>
		</g>
		<g>
			<path fill="#231F20" d="M67.6,61.2H47.9V48.5h19.7V61.2z M48.7,60.3h18v-11h-18V60.3z"/>
		</g>
		<g>
			<path fill="#231F20" d="M60.3,49.3H47.9V36.6h12.4V49.3z M48.7,48.5h10.7v-11H48.7V48.5z"/>
		</g>
		<g>
			<rect x="53.6" y="26.6" fill="#231F20" width="0.8" height="10.4"/>
		</g>
		<g>
			<rect x="50.6" y="39.5" fill="#231F20" width="6.9" height="0.8"/>
		</g>
		<g>
			<rect x="50.6" y="43.3" fill="#231F20" width="6.9" height="0.8"/>
		</g>
		<g>
			<rect x="50.6" y="52.1" fill="#231F20" width="13.4" height="0.8"/>
		</g>
		<g>
			<rect x="50.6" y="56.1" fill="#231F20" width="13.4" height="0.8"/>
		</g>
		<g>
			<rect x="48.3" y="64.8" fill="#231F20" width="15.8" height="0.8"/>
		</g>
		<g>
			<rect x="48.3" y="68.9" fill="#231F20" width="15.8" height="0.8"/>
		</g>
		<g>
			<rect x="48.3" y="73" fill="#231F20" width="15.8" height="0.8"/>
		</g>
		<g>
			<rect x="48.3" y="77.2" fill="#231F20" width="15.8" height="0.8"/>
		</g>
		<g>
			<rect x="48.3" y="81.3" fill="#231F20" width="15.8" height="0.8"/>
		</g>
		<g>
			<rect x="48.3" y="85.4" fill="#231F20" width="15.8" height="0.8"/>
		</g>
	</g>
	<g>
		<g>
			<rect x="165.6" y="17.9" fill="#231F20" width="0.8" height="15.6"/>
		</g>
		<g>
			<rect x="175.1" y="29.1" fill="#231F20" width="0.8" height="4.4"/>
		</g>
		<g>
			<path fill="#231F20" d="M196.1,95.2H182v-7.4c-9.6-28.9-1.8-50.1-0.2-53.9h-22c1.6,3.8,9.4,25.1-0.2,53.9v7.4h-9.3v-0.8h8.4
				l0-6.7c10.5-31.5,0.1-53.8,0-54l-0.3-0.6h24.6l-0.3,0.6c-0.1,0.2-10.5,22.5,0,54l0,0.1v6.6h13.3V95.2z"/>
		</g>
		<g>
			<rect x="164.5" y="87.1" fill="#231F20" width="7.5" height="0.8"/>
		</g>
		<g>
			<rect x="168.2" y="92" fill="#231F20" width="9.3" height="0.8"/>
		</g>
	</g>
	<g>
		<g>
			<path fill="#231F20" d="M35.6,78H15.4l0-0.5c0.1-1.5,0.3-2.9,0.4-4.3l0-0.4h19.2l0,0.4c0.2,1.4,0.3,2.9,0.4,4.3L35.6,78z
				 M16.4,77.2h18.3c-0.1-1.2-0.2-2.3-0.3-3.5H16.7C16.6,74.9,16.5,76,16.4,77.2z"/>
		</g>
		<g>
			<path fill="#231F20" d="M44.1,95.2h-8.6v-0.4c0-4.1-0.1-8.3-0.4-12.5H16c-0.3,4.2-0.4,8.4-0.4,12.5v0.4H0v-0.8h14.7
				c0-4.1,0.2-8.3,0.4-12.5l0-0.4h20.7l0,0.4c0.3,4.2,0.4,8.4,0.4,12.5h7.7V95.2z"/>
		</g>
		<g>
			<path fill="#231F20" d="M35.2,73.7H15.8l0.1-0.5c0.2-1.5,0.3-2.9,0.5-4.3l0-0.4h18.1l0,0.4c0.2,1.4,0.3,2.9,0.5,4.3L35.2,73.7z
				 M16.8,72.9h17.5c-0.1-1.2-0.3-2.3-0.4-3.5H17.2C17.1,70.5,16.9,71.7,16.8,72.9z"/>
		</g>
		<g>
			<path fill="#231F20" d="M35.9,82.4H15.1l0-0.5c0.1-1.5,0.2-2.9,0.3-4.3l0-0.4h20l0,0.4c0.1,1.4,0.2,2.9,0.3,4.3L35.9,82.4z
				 M16,81.5h19c-0.1-1.2-0.2-2.3-0.3-3.5H16.3C16.2,79.2,16.1,80.3,16,81.5z"/>
		</g>
		<g>
			<path fill="#231F20" d="M30.4,45.5h-9.8l0.1-0.5c2.3-9.6,4.4-15.6,4.4-15.6l0.4-1.1l0.4,1.1c0,0.1,2.1,6,4.4,15.6L30.4,45.5z
				 M21.7,44.6h7.7c-1.6-6.8-3.1-11.7-3.8-13.8C24.8,32.9,23.3,37.8,21.7,44.6z"/>
		</g>
		<g>
			<path fill="#231F20" d="M32.6,55.6H18.5l0.1-0.5c0.6-3.4,1.4-6.8,2.2-10.2l0.1-0.3h9.4l0.1,0.3c0.8,3.3,1.5,6.7,2.2,10.2
				L32.6,55.6z M19.5,54.8h12c-0.6-3.2-1.3-6.3-2-9.3h-8.1C20.8,48.5,20.1,51.7,19.5,54.8z"/>
		</g>
		<g>
			<path fill="#231F20" d="M34.7,69.4H16.3l0.1-0.5c0.2-1.5,0.4-2.9,0.6-4.3l0.1-0.4H34l0.1,0.4c0.2,1.4,0.4,2.9,0.6,4.3L34.7,69.4z
				 M17.3,68.5h16.4c-0.2-1.2-0.3-2.3-0.5-3.5H17.8C17.6,66.2,17.5,67.4,17.3,68.5z"/>
		</g>
		<g>
			<path fill="#231F20" d="M34.1,65.1H16.9l0.1-0.5c0.2-1.3,0.4-2.6,0.6-3.9l0.1-0.4h15.7l0.1,0.4c0.2,1.3,0.4,2.6,0.6,3.9
				L34.1,65.1z M17.9,64.2h15.2c-0.2-1-0.3-2-0.5-3H18.4C18.2,62.2,18.1,63.2,17.9,64.2z"/>
		</g>
		<g>
			<path fill="#231F20" d="M33.5,61.2h-16l0.1-0.5c0.3-1.9,0.6-3.7,1-5.6l0.1-0.3h13.8l0.1,0.3c0.4,1.9,0.7,3.8,1,5.6L33.5,61.2z
				 M18.5,60.3h14c-0.3-1.5-0.5-3.1-0.8-4.7H19.3C19.1,57.2,18.8,58.8,18.5,60.3z"/>
		</g>
	</g>
</g>
</svg>
