<?xml version="1.0" encoding="utf-8"?>
<!-- Generator: Adobe Illustrator 21.0.0, SVG Export Plug-In . SVG Version: 6.00 Build 0)  -->
<svg version="1.2" baseProfile="tiny" id="OBJECTS" xmlns="http://www.w3.org/2000/svg" xmlns:xlink="http://www.w3.org/1999/xlink"
	 x="0px" y="0px" viewBox="0 0 500 427" xml:space="preserve">
<g>
	<rect y="378.1" fill="#DBDBDB" width="500" height="48.9"/>
	<g>
		<g>
			<rect x="241.6" y="332" fill="#353535" width="4.7" height="54.4"/>
			<path fill="#353535" d="M279.3,332c0,1.7-1.4,3.2-3.2,3.2h-65c-1.7,0-3.2-1.4-3.2-3.2l0,0c0-1.7,1.4-3.2,3.2-3.2h65
				C277.9,328.8,279.3,330.2,279.3,332L279.3,332z"/>
		</g>
		<g>
			<path fill="#006163" d="M219.8,308.1c0,0-4.7,2.8-6.4,8.8c-1.8,6,2.6,19.2,11.3,19.8c15,1,16.6-6.9,26.8-1.7
				c10.2,5.3,20.1,1.6,21.6-2.7c1.5-4.3,8.1-22.6-10.3-23.9C242.4,307.9,219.8,308.1,219.8,308.1z"/>
			<g>
				<path fill="#707070" d="M222.1,241.8c0,0,2.2-13.7,9.9-15.1c7.7-1.4,18.4,1.5,18.4,1.5s8.1,7,10.7,12.5
					C263.6,246.1,227.7,251.6,222.1,241.8z"/>
				<g>
					<path fill="#FABB86" d="M231.4,202.2c0,0,7.8,1.5,10.1-2c2.4-3.5,4.6-1.7,7.5,2.1c3,3.8,8,12,8.6,18.5c0.7,3.8-0.6,6.2-0.6,6.2
						s-1.1,1.4-3.3,1.5c-2.2,0.1-4.7,3.4-4.7,8.8c0,6.7-3.3,7.4-3.3,7.4s-12.7,4.4-13-6.9c-0.2-6.7,0.5-7.9-0.2-9.9
						c-0.7-2-5.2-2-7.7-5.7C222.4,218.7,215.1,203.8,231.4,202.2z"/>
					<path fill="#7F3F22" d="M248.5,194.4c0,0,1.3,4.5,0,7.1c-0.6,1.3-5.1,5-9,4.9c-3.9-0.1-6.9,1.1-6.9,1.1h4.4
						c0,0,1.3,3.1,1.8,5.3s-1.8,2.3-1.4,4.1s2.8,5.1,2.8,5.1l-2.3,1.2c0,0-2.6-5.6-4.4-6c-2.9-0.6-5,2.4-2.8,4.8
						c2.6,2.7,3.3,3.2,2.2,10.2c-0.5-2.6-7.7-4.9-11.7-12.4c-4-7.4-1.6-13.3,1.6-16c-0.4-4.4,4.8-7.8,8.3-7.4s6.6-3.6,6.6-3.6
						s-0.4,2.3-1.8,3.1c1.5,0.3,2.8-1.7,2.8-2.1c0.4,1-0.4,2.1-0.4,2.1s2.8,0,3.6-1.5c0.1,0.5-0.3,1.5-0.8,1.8
						c1.3,0.1,2.5,0,3.5-1.4c0.1,0.8-0.3,1.8-1.5,2.3c2.3,0.4,3.4-2.2,3.5-2.8c0.3,0.9-0.1,2.8-0.7,3.6
						C247.2,198.1,248.2,196,248.5,194.4z"/>
				</g>
				<path fill="#9DC030" d="M276.8,276.4c-2.9-10.3-8.9-32.3-10.9-33.4c-2.1-1.1-6.1-1.3-10.4-2.6c-4.3-1.3-6.3-4.8-6.3-4.8
					c-1.1,7.6-4.7,9.1-8.2,9.3c-4.2-0.4-7.2-2.2-8.3-9.7c0,0-1.9,3.9-6.2,5.2c-4.3,1.3-8.3,1.6-10.4,2.6
					c-2.1,1.1-8.1,23.1-10.9,33.4c-2.9,10.3-4,12.7,0,14.5c2.6,1.2,9.4,2,13.7,2.5c-0.1,6-0.1,11.3,0.1,14.1c13.8,5.9,31.2,8,43.9,0
					c0.2-2.7,0.2-8.1,0.1-14.1c4.3-0.5,11.1-1.3,13.7-2.5C280.7,289.1,279.6,286.7,276.8,276.4z M219.1,284.1
					c-2.2-0.2-4.3-0.4-4.7-0.6c-0.9-0.4,5.3-16.9,5.3-16.9S219.4,274.8,219.1,284.1z M267.5,283.4c-0.4,0.2-2.5,0.4-4.7,0.6
					c-0.2-9.3-0.6-17.5-0.6-17.5S268.4,283,267.5,283.4z"/>
				<path fill="#939393" d="M276.8,276.4c-2.9-10.3-8.9-32.3-10.9-33.4c-2.1-1.1-5.5-2.9-9.8-4.3c-0.5-0.2-2-1.2-2.4-1.4
					c-5.3,24.8-3.1,72.9,1,79.1c5-2.8,8.3-6.7,14.9-6.2c1.4,0.1-6.4-9.2-6.6-16.9c4.3-0.5,11.1-1.3,13.7-2.5
					C280.7,289.1,279.6,286.7,276.8,276.4z M267.5,283.4c-0.4,0.2-2.5,0.4-4.7,0.6c-0.2-9.3-0.6-17.5-0.6-17.5
					S268.4,283,267.5,283.4z"/>
				<path fill="#707070" d="M256.5,237.4c-0.5-0.2-2.4,0.2-2.8,0c-1.6,7.5-2.6,15.2-3.3,23.1c2.5-7.4,6.3-13.9,10.7-19.8
					C259.6,240,258.3,237.9,256.5,237.4z"/>
				<path fill="#939393" d="M229.7,236.7c-0.9,0.7-2.8,2.3-4.1,2.8c-4.3,1.3-7.4,2.5-9.4,3.6c-2.1,1.1-8.1,23.1-10.9,33.4
					c-2.9,10.3-4,12.7,0,14.5c2.6,1.2,9.4,2,13.7,2.5c-0.1,7.7-7.5,17.4-5.2,22.5c0,0,1.4-7.3,18.8,0
					C237.9,302.2,237.7,261.7,229.7,236.7z M219.1,284.1c-2.2-0.2-4.3-0.4-4.7-0.6c-0.9-0.4,5.3-16.9,5.3-16.9
					S219.4,274.8,219.1,284.1z"/>
				<path fill="#707070" d="M229.7,236.7c-0.9,0.7-3.1,0.2-4.4,0.6c-1.1,0.3-1.9,2.8-2.8,3.1c5,5.1,9,10.7,12,16.8
					C233.4,250.3,231.8,243.4,229.7,236.7z"/>
			</g>
			<g>
				<path fill="#006A72" d="M242.5,386.8c0,0,14-25.2,20.8-36c6.8-10.8,12.5-21.5,12.3-29c-0.2-7.5-1.9-8.9-5-9.9
					c-3.1-0.9-10.1,1.8-13.2,6.1c-3.1,4.4-9.2,23.7-15.6,42.1l-7.9,22.8C233.8,383.1,236.6,386.8,242.5,386.8z"/>
				<path fill="#262626" d="M235.2,378.1c0,0-5.5,9.8-10.3,13.2c-4.8,3.3-9.8,5-12,8.8c-0.7,2.6,19,1.9,25.8-1.6
					c3.1-1.6,4.7-8.9,6.2-15C246.4,377.3,235.2,378.1,235.2,378.1z"/>
				<path fill="#494949" d="M249.1,377c0,0-9.9,1.1-11.6-6.1c-2.5,2.3-5.9,6.8-5.9,6.8s4.5,7.4,15.2,7
					C248.1,382.1,249.1,377,249.1,377z"/>
			</g>
			<g>
				<path fill="#007686" d="M245.9,386.8c0,0-14-25.2-20.8-36c-6.8-10.8-12.5-21.5-12.3-29c0.2-7.5,1.9-8.9,5-9.9
					c3.1-0.9,10.1,1.8,13.2,6.1c3.1,4.4,9.2,23.7,15.6,42.1l7.9,22.8C254.6,383.1,251.7,386.8,245.9,386.8z"/>
				<path fill="#353535" d="M253.2,378.1c0,0,5.5,9.8,10.3,13.2c4.8,3.3,9.8,5,12,8.8c0.7,2.6-19,1.9-25.8-1.6
					c-3.1-1.6-4.7-8.9-6.2-15C242,377.3,253.2,378.1,253.2,378.1z"/>
				<path fill="#595959" d="M239.8,375.8c0,0,9.2,3.3,10.9-4c2.6,0,6.1,5.8,6.1,5.8s-4.5,7.4-15.2,7
					C238.9,380.8,239.8,375.8,239.8,375.8z"/>
			</g>
		</g>
		<g>
			<path fill="#823D1A" d="M121.8,378.4c0,0-1.7,5.4,1,13.5c1.9,3.1,14.6,7.7,14.6,7.7s2.1,3.6-11,2.9c-6.7-0.3-16.4-12.7-18.3-16.3
				c-1.9-3.6,0.7-5.1,3.1-6.2c2.4-1.1,3.9-3.4,3.9-3.4S120.9,376.3,121.8,378.4z"/>
			<path fill="#545454" d="M92.9,321.9c0,0,3.1-4-2.6,5.7c-5.7,9.6,55.1-6.9,56.3-3.7c-1.6,4.8-8.5-0.3-15.6,19.3
				c-6.8,18.5-17.1,33.8-17.1,33.8l8.2,6.6c0,0,14.3-18.9,27.7-34.5c13.4-15.6,20.8-29.2,14-34.5c0,0,0.8-6.1-60.2,3.6
				C93.9,319.7,92.9,321.9,92.9,321.9z"/>
		</g>
		<g>
			<rect x="147.9" y="296.3" fill="#303030" width="45.7" height="1.1"/>
			<path fill="#8C8C8C" d="M208,252.4c0.1-0.5,0.7-0.8,1.1-0.6l0,0c0.5,0.1,0.8,0.7,0.6,1.1l-13.6,44.4c-0.1,0.5-0.7,0.8-1.1,0.6
				l0,0c-0.5-0.1-0.8-0.7-0.6-1.1L208,252.4z"/>
			<path fill="#515151" d="M146.3,297c0,0.1,0,0.3,0,0.4c0,1.3,0.8,2.4,1.9,2.4h44.5c1,0,1.9-1.1,1.9-2.4c0-0.1,0-0.3,0-0.4H146.3z"
				/>
		</g>
		<g>
			<g>
				<path fill="#262626" d="M339.4,378.7c0,0-1.5,8.1-11.5,13.3c-10,5.2-0.8,7.7,8.5,6.2s10.6-6.8,13.5-8.6c2.9-1.8-0.5-6.7-1.5-9.9
					S339.4,378.7,339.4,378.7z"/>
				<path fill="#262626" d="M302,380c0,0-3.9,7.2-15,9.1c-11.1,1.9-3.1,7.1,6.2,8.5c9.3,1.4,12.1-3.2,15.5-4
					c3.3-0.8,1.6-6.5,1.6-9.9C310.3,380.3,302,380,302,380z"/>
				<path fill="#B78C58" d="M294.9,259.6c0,0-1.3,37.4,0.4,57.1c1.6,19.7,4,48.6,2.2,66.3c9.1,1.5,14.3,0,14.3,0s3.8-34,4-50.3
					c0.2-16.3,4.8-40.3,5.8-43c3.3,11.3,14.1,79.7,15.8,91.4c9,0.7,12-1.4,12-1.4s-0.2-35-3.7-53.3c-3.4-18.3-0.2-58-4.3-73
					C324.2,245.7,294.9,259.6,294.9,259.6z"/>
				<path fill="#0AACC1" d="M301.4,180.2c0,0-6.3,2.3-10,4.4c-3.7,2.1-15.8,33.1-20.1,39.2c-4.3,6.1-26.9,33.3-26.9,33.3v9
					c0,0,22.2-16.2,35.2-31.3c6.3-7.3,14.8-21.2,14.8-21.2s5.6,24.7-2.8,52.3c27.3,8,52.1-1.1,52.1-1.1s-4.3-20.2-3.8-58.4l5.8,27.7
					l5.3,34.9l8.9-7c0,0-0.8-29.9-3.7-41.3c-9-28.4-16.8-40.2-22.9-43.9c-6.1-3.7-14.4-4.9-19.4-4.3
					C308.9,173.3,301.4,180.2,301.4,180.2z"/>
			</g>
			<g>
				<g>
					<path fill="#FABB86" d="M289.6,147c0,0-4.3,6.7-8.4,6c-4.2-0.7-4.4,2.1-3.7,6.9c0.7,4.8,3.2,14.1,7.5,19c2.2,3.1,5,3.8,5,3.8
						s1.8,0.2,3.3-1.3c1.6-1.5,5.7-1,9.6,2.7c4.8,4.6,9.4-2.7,9.4-2.7s4.2-6.8,2.3-8.7c-4.7-4.8-6.1-5.1-7-6.9
						c-1-1.9,2.1-5.2,1.2-9.5C307.8,151.8,301.9,136.3,289.6,147z"/>
				</g>
				<path fill="#939393" d="M278,156.8c0,0,3.7,1.7,9.7-0.1c6.7-2,7.7-3.3,8.3,0c0.7,3.3,1.7,3.6,3.4,4.3s2.8,4.4,2.8,4.4l1.6-1.6
					c0,0-1.3-2-1-4.8s3-3,4.3-0.5c1.3,2.5-1.5,6,1.7,8.8c1.1-5.1,2.5-15.5-4.8-22.1s-23.6,0.3-25.4,4.6S278.4,156,278,156.8z"/>
				<path fill="#353535" d="M277.5,160.6c0,0,6.1-3.5,16.7-4.1c9.7-0.6,15.4,2.3,15.4,2.3s1.4-10.7-4.6-15.5c-6-4.8-18.8-4-24.3,0
					C275.2,147.3,275.5,153.7,277.5,160.6z"/>
				<path fill="#F2595B" d="M296.1,156.4c0,0-11-2.6-18.9-2.1c-7.9,0.5-16.2,6.3-11.2,10.1s13.2,2.8,13.2,2.8s-1.2-4.8-1.2-5.8
					C281.8,158.3,293.4,156.4,296.1,156.4z"/>
			</g>
		</g>
		<g>
			<path fill="#DBDBDB" d="M273.1,294.8c0,1-0.8,1.8-1.8,1.8h-59.4c-1,0-1.8-0.8-1.8-1.8v-38.4c0-1,0.8-1.8,1.8-1.8h59.4
				c1,0,1.8,0.8,1.8,1.8V294.8z"/>
			<path fill="#515151" d="M273.1,299.4c0,0.2-0.4,0.4-0.8,0.4h-61.4c-0.4,0-0.8-0.2-0.8-0.4V297c0-0.2,0.4-0.4,0.8-0.4h61.4
				c0.4,0,0.8,0.2,0.8,0.4V299.4z"/>
		</g>
		<g>
			<path fill="#F2595B" d="M370.3,369.1c0,0,2.6,4.9,1.3,13.1c-1.3,3.3-14.5,10.6-14.5,10.6s0,2.8,12.7,1.4
				c8.3-0.9,13.6-16.1,14.8-19.9c1.2-3.8-1.6-4.8-4-5.5c-2.5-0.7-4.3-2.6-4.3-2.6S370.9,366.9,370.3,369.1z"/>
			<path fill="#0D1F60" d="M390.6,307.9c0,0-3.7-3.3,3.4,5c7.1,8.3-53.9,2.6-54.6,5.8c2.3,4.4,8.1-1.7,18.2,15.9
				c9.6,16.6,22.1,32.9,22.1,32.9l-8.6,6.3c0,0-15.1-17.8-30.5-30.4c-15.5-12.7-24.8-24.5-19.1-30.7c0,0-1.8-5.7,58.2-6.6
				C389.2,306,390.6,307.9,390.6,307.9z"/>
		</g>
		<g>
			<g>
				<path fill="#353535" d="M382.4,395.3c0,0-33.8,4.1-34.6,4.2s-1.1-2.9,2.9-4.2c4-1.3,28.5-5.7,28.5-5.7L382.4,395.3z"/>
				<path fill="#353535" d="M382.4,395.3c0,0,33.8,4.1,34.6,4.2s1.1-2.9-2.9-4.2c-4-1.3-28.5-5.7-28.5-5.7L382.4,395.3z"/>
				<rect x="378" y="343.3" fill="#545454" width="8.8" height="52.5"/>
			</g>
			<rect x="375.8" y="335.9" fill="#353535" width="13.3" height="9"/>
			<g>
				<polygon fill="#353535" points="345.3,338.6 418.1,338.5 439.8,250.7 435.9,249.7 414.3,333.7 345.5,333.8 				"/>
				<path fill="#017994" d="M435.6,250.7c0,0-10.6-2.7-12.6,14.4s-7.3,49.8-11.4,55c-4.2,5.2,1.2,12.1,2.7,13.6
					C417.4,321.5,435.6,250.7,435.6,250.7z"/>
				<path fill="#017994" d="M347.3,333.8h67c0,0-0.7-7.6-7.9-7.6c-7.2,0-23.6,5.3-30.4,4.1C369.1,329.1,346.6,322.5,347.3,333.8z"/>
			</g>
		</g>
		<g>
			<g>
				<g>
					<path fill="#F2595B" d="M305.9,386.4c0,0-8.6,6.4-24.8,8.8c-8.3,0.9-9.5,1.5-9.5,1.5s-1.5,3.8,4.8,4.2c6.4,0.4,25.7,1,29.7,0.8
						c4-0.2,3.9-3.2,3.7-5.7c-0.3-2.5,0.9-4.9,0.9-4.9S308.1,386.1,305.9,386.4z"/>
					<path fill="#12357C" d="M409.4,307.1c0,0,6.3,9.2-0.1,18c-6.4,8.8-60,10.6-63.4,10.6c-3.7,3.3,3.5,13.6-11.2,27.4
						c-14,13.2-23.6,28.2-23.6,28.2l-9.1-4.8c0,0,11.4-26.1,20.2-44c8.8-18,13.8-28,22.4-28.2l39.2-8.3
						C393,303.4,409.4,307.1,409.4,307.1z"/>
					<path fill="#999999" d="M411.2,307.2l0.1,5c0,0-12.7-8.7-29.2-7.9c0.9-2,1.4-3.9,1.4-3.9L411.2,307.2z"/>
					<g>
						<path fill="#FABB86" d="M373.5,207.4c0,0-2.4,8.8-0.8,11.4c-1.6,3.7-3,5.7-3,5.7l3.4,1.8c0,0,1.3,2.8,0.9,3.9
							c-0.4,1.1-0.8,2.6,1.1,4c1.9,1.4,9.8,0.3,9.8,0.3s1.2,5.1,1.8,8.3c0.5,3.2,10.8,0.3,10.8,0.3l-1.3-10.7c0,0,6.3-12.2,6.6-19.6
							c0.3-7.3-5.9-14-13.1-14.2C382.5,198.3,374.6,202.4,373.5,207.4z"/>
						<path fill="#3D3D3D" d="M378.9,230c0,0-1.2-3.5-2.3-4.2c-1.1-0.6-3.1,0.6-4.2,0.1c-1.1-0.5,0,1.7,0.7,2c1-0.4,2.1-0.8,3.3-0.2
							c1.2,0.5,1.7,2.7,1.4,3.3c-0.3,0.5-1.2,1.6-2.4,1c-1.2-0.6-1.5-1.1-1.4-1.8c-0.7,0.2-1.2,1.5-0.8,3.5c0.5,1.9,3.1,2,3.1,2
							l6.3-1C382.7,234.6,379,233,378.9,230z"/>
						<path fill="#3D3D3D" d="M373.2,217.5c0,0-0.3-1.9,0.5-2.6c0.8-0.7,5.3,2.5,7,2.1C377.9,217.9,373.6,216.2,373.2,217.5z"/>
					</g>
					<path fill="#FFE164" d="M396.8,237.6c0,0-5.7,8.6-9.7,5.2c-1.4,2.3-8,14-9.2,19.6c-1.2,5.6-2.2,13.4-0.6,20.7
						c1.6,7.3-1.7,17.2-3.7,22.9c9.2,0,37,5.5,40.6,9.7c-0.3-8.7-0.2-17.1,0.7-23.3C416.5,281.8,417.7,247.3,396.8,237.6z"/>
				</g>
				<path fill="#FABB86" d="M408.9,289.7c0,0-5.1-25.5-8.2-31.7c-3.1-6.3-2.1-10.1,3.6-9.4c5.7,0.8,7.9,7.1,7.9,7.1
					s7.2,30.7,5.5,39.8c-1.7,9.1-17.9,3.9-26.2,3.8c-8.4-0.1-23.2,0-23.2,0l-4.4-5.5C368,291.3,408.9,289.7,408.9,289.7z"/>
				<path fill="#FFED9F" d="M402.9,244.4c-5.7-0.8-7.5,7-4.4,13.2c1.3,2.6,2.9,8.3,4.3,14c3.9-2.4,8.3-3.7,12.9-4.3
					c-1.6-7.5-3.1-13.5-3.1-13.5S408.6,245.2,402.9,244.4z"/>
			</g>
			<path fill="#939393" d="M374.1,205.6c0,0,8.4,0.7,12.4,2.1s1.3,4.5,0.8,5s-1.3,3.2,0.2,4.9s1.2,3.8,1.2,3.8h1.7
				c0,0,0.3-5.2,3.3-4.4c3.1,0.8,1.4,4.1,1.4,6.3c0,2.3,0.1,8,1,9c1.9-2.9,7.2-14.1,7.1-21.1c-0.1-7.1-6.5-12.7-13.4-13.2
				C382.8,197.5,375.2,202,374.1,205.6z"/>
		</g>
		<g>
			<path fill="#FABB86" d="M347.3,263.8c0,0-3.7-3.3-5.6-6.5c-2-3.3-2.9-4.9-2.9-4.9s-6.3-3.1-7.9-3.7c-1.5-0.6-9.6,1.1-12.1,0.9
				c-0.6,1.4,3.1,1.4,5,1.3c1.9-0.1,4.5,0,4.5,0l-4.1,1.5c0,0-1.9,3.3-2.4,3.7c0.4,0.7,1.4,0.7,3.1-1.9c1.6-0.9,5.2-0.4,5.2-0.4
				s-3.1,0.8-3.8,1.1c-0.7,0.3-2.5,2.6-2.5,2.6s-0.1,1.5,3.1-1.2c1.8-1.5,2.9-0.2,5.5,2.5c2.6,2.7,3.8,2.4,3.8,2.4l7.3,8.3l3.9-5.4"
				/>
			<g>
				<path fill="#DBDBDB" d="M388.6,295.7c0,0.8-0.6,1.4-1.4,1.4h-48.4c-0.8,0-1.4-0.6-1.4-1.4v-31.2c0-0.8,0.6-1.4,1.4-1.4h48.4
					c0.8,0,1.4,0.6,1.4,1.4V295.7z"/>
				<path fill="#515151" d="M388.6,299.4c0,0.2-0.3,0.3-0.6,0.3h-50c-0.4,0-0.6-0.1-0.6-0.3v-1.9c0-0.2,0.3-0.3,0.6-0.3h50
					c0.4,0,0.6,0.1,0.6,0.3V299.4z"/>
			</g>
		</g>
		<g>
			<rect x="165.6" y="304.8" fill="#D67838" width="6.3" height="97.1"/>
			<path fill="#D67838" d="M176.4,401.9c0,0.4-0.3,0.7-0.7,0.7h-13.8c-0.4,0-0.7-0.3-0.7-0.7l0,0c0-0.4,0.3-0.7,0.7-0.7h13.8
				C176.1,401.1,176.4,401.5,176.4,401.9L176.4,401.9z"/>
		</g>
		<g>
			<g>
				<g>
					<path fill="#353535" d="M106.1,402c0,0,33.8,4.1,34.6,4.2s1.1-2.9-2.9-4.2c-4-1.3-28.5-5.7-28.5-5.7L106.1,402z"/>
					<path fill="#353535" d="M106.1,402c0,0-33.7,4.1-34.6,4.2s-1.1-2.9,2.9-4.2c4-1.3,28.5-5.7,28.5-5.7L106.1,402z"/>
					<rect x="101.7" y="350.2" fill="#545454" width="8.8" height="52.5"/>
				</g>
				<rect x="99.5" y="352.9" fill="#353535" width="13.3" height="9"/>
				<polygon fill="#353535" points="143.1,355.6 70.4,355.5 48.7,267.7 52.6,266.7 74.2,350.7 143,350.8 				"/>
				<path fill="#017994" d="M52.8,267.7c0,0,10.6-2.7,12.6,14.4s7.3,49.8,11.4,55c4.2,5.2-1.2,12.1-2.7,13.6
					C71,338.5,52.8,267.7,52.8,267.7z"/>
				<path fill="#017994" d="M141.1,350.8h-67c0,0,0.7-7.6,7.9-7.6c7.2,0,23.6,5.3,30.4,4.1C119.4,346.1,141.9,339.5,141.1,350.8z"/>
			</g>
			<g>
				<path fill="#E5A576" d="M157.4,286.5c0,0,4.7-1.4,7.9-3.6c3.2-2.2,4.7-3.2,4.7-3.2s7.1-0.2,8.7-0.1c1.6,0,8.3,5,10.6,5.9
					c0,1.5-3.4,0-5.1-0.9c-1.7-0.9-4.1-1.9-4.1-1.9l3.1,3c0,0,0.3,3.8,0.6,4.3c-0.6,0.5-1.6,0.1-2-3c-1.1-1.5-4.6-2.6-4.6-2.6
					s2.5,2,3,2.6c0.5,0.6,1.2,3.4,1.2,3.4s-0.6,1.4-2.4-2.4c-1-2.2-2.6-1.4-6.1-0.1c-3.5,1.4-4.5,0.5-4.5,0.5l-10.1,4.5l-1.4-6.6"/>
				<path fill="#823D1A" d="M200.5,385.5c0,0,9.2,7.3,26.8,10.4c9.1,1.2,10.3,1.9,10.3,1.9s1.6,4.2-5.4,4.4c-7,0.2-28.1,0.3-32.5,0
					c-4.3-0.4-4.2-3.6-3.8-6.3c0.4-2.8-0.8-5.4-0.8-5.4S198.1,385.1,200.5,385.5z"/>
				<path fill="#666666" d="M73.6,323.9c0,0-5.3,11.1,3.1,19.5c8.4,8.4,66.7,1.2,70.3,0.8c4.6,2.9-2.5,8.7,15.8,21.2
					c17.3,11.9,30.3,26.5,30.3,26.5l9-6.7c0,0-15.8-19.7-28.3-37.6c-12.5-18-19.6-28-28.9-26.7l-43.8-2.3
					C90.7,317.2,73.6,323.9,73.6,323.9z"/>
				<path fill="#999999" d="M72.7,322l-0.2,5.6c0,0,14.5-9.9,33.2-9c-1-2.3-1.6-4.4-1.6-4.4L72.7,322z"/>
				<path fill="#E06873" d="M159.8,285.1c-14.6,0.7-42.4,3.7-42.4,3.7s-16.3-23.3-18.9-30.8c-2.7-7.5-10.5-12.1-14.3-6.8
					c-3.9,5.3,0,15.3,0,15.3s18.7,27.9,27.6,33.7c8.8,5.8,15.9,1,28.2-1.8c8-1.8,16.1-3.7,21.2-4.8
					C161.1,292.1,159.8,285.7,159.8,285.1z"/>
				<g>
					<path fill="#FABB86" d="M123.8,213.1c0,0,0.4,10.4-2.1,12.8c0.8,4.5,1.9,7.1,1.9,7.1l-4.2,1.1c0,0-2.2,2.7-2.1,4
						c0.2,1.3,0.2,3.1-2.2,4.1c-2.5,1-10.9-2.2-10.9-2.2s-2.7,5.4-4.1,8.8c-1.4,3.4-12-2.5-12-2.5l4.2-11.5c0,0-3.8-15.2-2.3-23.4
						c1.5-8.2,10.2-14,18.2-12.4C116.3,200.7,124,207.3,123.8,213.1z"/>
					<path fill="#7F3F22" d="M105.3,212.2c0,0,1.4,3.3,7.6,3.3c6.2,0,8.3,2.1,7.4,3.7c1.8-1,1.3-3,1.3-3s2.9,1.1,2.3,4.4
						c0.8-0.7,1.6-3.6,0.6-6.1c0.9,0,1.5,1.5,1.9,3.1c0.1-1.4-1.5-10.7-7.8-14.7c1.9-0.1,2.6-1.6,2.4-3.2c-0.2,0.9-1.6,4.8-6.3,0.3
						c-4.7-4.5-13.3-3.9-16.3-1c0.6-2,2.6-3.5,4.2-3.8c-1.2-0.2-6.1,1.7-6.9,5c-0.1-2.9,1.2-4.5,1.2-4.5s-2.7,1.7-3.1,5.3
						c-2.2-0.3-6.6,1.6-7.5,7.3c-0.9,5.8-3.4,9-3.9,8.4c1.3,0.5,3.2-0.9,3.7-1.5c-0.7,2.8-2,5.3-0.7,8.1c1.3,2.9,3.5,7.4,1.4,9.7
						c1.2-0.5,2.3-2.5,2.1-4.1c0.7,1.7-0.4,5,0.6,6.8c0.9,1.9-0.5,4.8-1.3,5.5c1.5-0.3,3.2-1.7,3.5-3.4c0.5,0,1.1,2.6,0.2,3.6
						c1.2-0.8,2.4-1.9,2.5-4.7c0.6,0.2,1.2,1.2,0.7,3.3c0.6-0.4,5.8-3.4,4.7-8c-1-4.6-0.3-9.5,0.2-10.6c0.9,0.5,0.7,3.6,0,5.7
						c1-0.4,2.2-2.9,2.1-5.1c1.2,0.5,1.7,2.8,1,3.6c0.9-1.2,1.2-3.8,0.7-5C103.3,219.3,108.2,219.3,105.3,212.2z"/>
					<path fill="#7F3F22" d="M112,236.7c0,0,2.2-3.6,3.6-4c1.4-0.4,3.3,1.4,4.6,1.2c1.3-0.2-0.4,1.9-1.3,2.1c-1-0.7-2.1-1.4-3.6-1.1
						c-1.5,0.3-2.5,2.6-2.4,3.3c0.2,0.7,0.9,2.1,2.4,1.7c1.5-0.4,2-0.9,2.1-1.6c0.8,0.5,1,2-0.1,4c-1,2-4,1.4-4,1.4l-6.7-2.7
						C106.6,240.9,111.2,240.1,112,236.7z"/>
					<path fill="#7F3F22" d="M121.6,224.4c0,0,0.8-2,0.2-3c-0.7-0.9-6.5,1.4-8.3,0.6C116.3,223.7,121.5,222.9,121.6,224.4z"/>
				</g>
				<path fill="#F2595B" d="M89.1,242.9c0,0,6.5,9.7,11,6c1.6,2.6,9.1,15.9,10.4,22.3c1.3,6.3-3.7,13.7-5.5,22
					c-1.8,8.3-1,18.7,1.2,25.2c-10.5,0-30.2,1.2-34.2,5.9c0.3-9.8,2.2-14.7,1.2-21.8C71.5,290.3,65.4,254,89.1,242.9z"/>
				<path fill="#F47D83" d="M72.3,295.8c0.1,1.1,0.3,2.1,0.4,3.1c9.8-3.9,21.6-3.9,31.5,0.1c0.1-1.2,0.2-2.3,0.4-3.4
					C94.4,291.9,82.6,293,72.3,295.8z"/>
				<path fill="#F47D83" d="M73.1,301.9c0,0.2,0.1,0.4,0.1,0.6c0.3,2.2,0.3,4.2,0.2,6.2c9.8-3.5,20.2-4.3,30.6-3.5
					c0-1.4,0-2.8,0-4.2C93.8,298.5,83.5,299.4,73.1,301.9z"/>
				<path fill="#FABB86" d="M158.8,289.2c0,0,4.9-0.8,8.3-2.4c3.4-1.7,5.1-2.5,5.1-2.5s7,0.8,8.6,1.1c1.6,0.3,7.5,6.1,9.7,7.3
					c-0.2,1.5-3.4-0.5-5-1.6c-1.6-1.1-3.8-2.4-3.8-2.4l2.6,3.4c0,0-0.2,3.8,0,4.4c-0.7,0.4-1.6-0.2-1.6-3.3
					c-0.9-1.6-4.2-3.2-4.2-3.2s2.2,2.4,2.6,3c0.4,0.7,0.7,3.5,0.7,3.5s-0.8,1.3-2-2.7c-0.7-2.3-2.4-1.8-6-0.9
					c-3.6,0.8-4.5-0.1-4.5-0.1l-10.7,3l-0.4-6.7"/>
				<path fill="#F47D83" d="M116.5,291.8c0,0-16.3-23.3-18.9-30.8c-2.7-7.5-10.5-12.1-14.3-6.8c-3.9,5.3,0,15.3,0,15.3
					s18.7,27.9,27.6,33.7c8.8,5.8,15.9,1,28.2-1.8c9.3-2.1,19.6-4.5,24-5.5l-1-7.9C148.3,288.5,116.5,291.8,116.5,291.8z"/>
				<g>
					<path fill="#ADADAD" d="M103.4,217.2c-0.2,1-1.2,1.6-2.2,1.3l0,0c-1-0.2-1.6-1.2-1.3-2.2l5.1-20.7c0.2-1,1.2-1.6,2.2-1.3l0,0
						c1,0.2,1.6,1.2,1.3,2.2L103.4,217.2z"/>
					
						<ellipse transform="matrix(0.2407 -0.9706 0.9706 0.2407 -138.3315 265.5305)" fill="#6D6D6D" cx="100.5" cy="221.2" rx="5.9" ry="5.9"/>
				</g>
			</g>
		</g>
		<g>
			<path fill="#DBDBDB" d="M288.9,285.7v7.8c0,2.5,1.2,4.7,3.1,6h8.6c1.9-1.3,3.1-3.5,3.1-6v-7.8H288.9z"/>
			<path fill="#A3A3A3" d="M308,299.9c0,0.4-0.3,0.7-0.7,0.7h-21.5c-0.4,0-0.7-0.3-0.7-0.7l0,0c0-0.4,0.3-0.7,0.7-0.7h21.5
				C307.7,299.2,308,299.5,308,299.9L308,299.9z"/>
			<g>
				<path fill="#DBDBDB" d="M302.9,297.1c-0.4,0-0.7,0-0.7,0l0.2-1c0,0,1.2,0.2,3.1-0.5c1.1-0.4,1.8-3.8,1.4-5.7
					c-0.1-0.7-0.3-0.8-0.3-0.8h-4.3v-1h4.3c0.4,0,1.1,0.2,1.3,1.6c0.4,1.9-0.2,6.1-2.1,6.8C304.6,297,303.6,297.1,302.9,297.1z"/>
			</g>
		</g>
		<g>
			<path fill="#DBDBDB" d="M185.9,285.9v7.8c0,2.5,1.2,4.7,3.1,6h8.6c1.9-1.3,3.1-3.5,3.1-6v-7.8H185.9z"/>
			<path fill="#A3A3A3" d="M205,300c0,0.4-0.3,0.7-0.7,0.7h-21.5c-0.4,0-0.7-0.3-0.7-0.7l0,0c0-0.4,0.3-0.7,0.7-0.7h21.5
				C204.7,299.3,205,299.6,205,300L205,300z"/>
			<g>
				<path fill="#DBDBDB" d="M199.9,297.3c-0.4,0-0.7,0-0.7,0l0.2-1c0,0,1.2,0.2,3.1-0.5c1.1-0.4,1.8-3.8,1.4-5.7
					c-0.1-0.7-0.3-0.8-0.3-0.8h-4.3v-1h4.3c0.4,0,1.1,0.2,1.3,1.6c0.4,1.9-0.2,6.1-2.1,6.8C201.6,297.2,200.5,297.3,199.9,297.3z"/>
			</g>
		</g>
		<g>
			<path fill="#D67838" d="M419.8,401.9c0,0.4-0.3,0.7-0.7,0.7h-13.8c-0.4,0-0.7-0.3-0.7-0.7l0,0c0-0.4,0.3-0.7,0.7-0.7h13.8
				C419.5,401.1,419.8,401.5,419.8,401.9L419.8,401.9z"/>
			<rect x="409" y="304.8" fill="#D67838" width="6.3" height="97.1"/>
		</g>
		<rect x="130.3" y="300.5" fill="#FF9A55" width="321" height="7.8"/>
	</g>
	<g>
		<g>
			<g>
				<path fill="#B7B7B7" d="M195.3,79.9V59.1c0-7.3-5.9-13.2-13.2-13.2c-7.3,0-13.2,5.9-13.2,13.2v20.8H195.3z"/>
			</g>
			<g>
				<rect x="181.3" fill="#B7B7B7" width="1.6" height="56.7"/>
			</g>
		</g>
		<g>
			<g>
				<path fill="#B7B7B7" d="M331.1,99.4V78.6c0-7.3-5.9-13.2-13.2-13.2s-13.2,5.9-13.2,13.2v20.8H331.1z"/>
			</g>
			<g>
				<rect x="317.1" fill="#B7B7B7" width="1.6" height="69.7"/>
			</g>
		</g>
		<g>
			<g>
				<path fill="#B7B7B7" d="M261.8,128.8V108c0-7.3-5.9-13.2-13.2-13.2c-7.3,0-13.2,5.9-13.2,13.2v20.8H261.8z"/>
			</g>
			<g>
				<rect x="247.8" fill="#B7B7B7" width="1.6" height="105.7"/>
			</g>
		</g>
	</g>
</g>
</svg>
